<?xml version="1.0" encoding="utf-8"?>
<!-- Generator: Adobe Illustrator 16.0.0, SVG Export Plug-In . SVG Version: 6.00 Build 0)  -->
<!DOCTYPE svg PUBLIC "-//W3C//DTD SVG 1.1//EN" "http://www.w3.org/Graphics/SVG/1.1/DTD/svg11.dtd">
<svg version="1.1" id="Layer_1" xmlns="http://www.w3.org/2000/svg" xmlns:xlink="http://www.w3.org/1999/xlink" x="0px" y="0px"
	 width="403px" height="284.986px" viewBox="15.488 0 403 284.986" enable-background="new 15.488 0 403 284.986"
	 xml:space="preserve">
<line fill="none" stroke="#000000" stroke-width="4" stroke-miterlimit="10" x1="184.398" y1="258.903" x2="184.398" y2="173.903"/>
<line fill="none" stroke="#000000" stroke-width="4" stroke-miterlimit="10" x1="184.398" y1="173.903" x2="342.898" y2="54.403"/>
<polyline stroke="#000000" stroke-width="4" stroke-miterlimit="10" points="184.398,173.903 104.032,109.654 41.398,57.903 "/>
<line fill="none" stroke="#000000" stroke-width="4" stroke-miterlimit="10" x1="104.032" y1="109.654" x2="176.898" y2="54.403"/>
<g enable-background="new    ">
	<path d="M157.666,89.974c0.468,0.288,1.151,0.528,1.871,0.528c1.067,0,1.691-0.564,1.691-1.38c0-0.756-0.432-1.188-1.523-1.606
		c-1.319-0.468-2.135-1.151-2.135-2.291c0-1.26,1.043-2.195,2.614-2.195c0.828,0,1.427,0.192,1.787,0.396l-0.288,0.852
		c-0.264-0.145-0.803-0.384-1.535-0.384c-1.103,0-1.523,0.659-1.523,1.211c0,0.756,0.492,1.127,1.607,1.56
		c1.367,0.527,2.063,1.187,2.063,2.374c0,1.248-0.923,2.327-2.831,2.327c-0.779,0-1.631-0.229-2.063-0.516L157.666,89.974z"/>
	<path d="M164.349,88.535c0.024,1.428,0.936,2.016,1.991,2.016c0.755,0,1.211-0.132,1.607-0.3l0.18,0.755
		c-0.372,0.168-1.007,0.36-1.931,0.36c-1.787,0-2.854-1.176-2.854-2.927s1.032-3.13,2.723-3.13c1.895,0,2.399,1.667,2.399,2.734
		c0,0.216-0.024,0.384-0.036,0.491H164.349z M167.443,87.78c0.012-0.672-0.276-1.716-1.463-1.716c-1.067,0-1.535,0.984-1.619,1.716
		H167.443z"/>
	<path d="M169.773,87.012c0-0.6-0.012-1.092-0.048-1.571h0.923l0.048,0.936h0.036c0.324-0.552,0.864-1.067,1.823-1.067
		c0.792,0,1.391,0.479,1.643,1.163h0.024c0.18-0.324,0.408-0.575,0.647-0.756c0.348-0.264,0.731-0.407,1.283-0.407
		c0.768,0,1.907,0.504,1.907,2.519v3.418h-1.032V87.96c0-1.115-0.408-1.787-1.259-1.787c-0.6,0-1.067,0.443-1.247,0.96
		c-0.048,0.144-0.084,0.335-0.084,0.527v3.586h-1.031v-3.479c0-0.923-0.408-1.595-1.211-1.595c-0.66,0-1.14,0.527-1.308,1.056
		c-0.06,0.155-0.084,0.336-0.084,0.516v3.502h-1.031V87.012z"/>
	<path d="M180.957,83.81c0.012,0.359-0.252,0.647-0.671,0.647c-0.372,0-0.636-0.288-0.636-0.647c0-0.372,0.276-0.66,0.66-0.66
		C180.705,83.15,180.957,83.438,180.957,83.81z M179.781,91.246v-5.805h1.056v5.805H179.781z"/>
	<path d="M182.589,82.73h1.056v8.516h-1.056V82.73z"/>
	<path d="M185.421,82.73h1.056v8.516h-1.056V82.73z"/>
	<path d="M191.467,91.246l-0.084-0.731h-0.036c-0.324,0.456-0.947,0.863-1.775,0.863c-1.175,0-1.775-0.827-1.775-1.667
		c0-1.403,1.247-2.171,3.49-2.159v-0.119c0-0.48-0.132-1.344-1.319-1.344c-0.54,0-1.104,0.168-1.511,0.432l-0.24-0.695
		c0.48-0.312,1.175-0.516,1.907-0.516c1.775,0,2.207,1.211,2.207,2.374v2.171c0,0.504,0.024,0.996,0.096,1.392H191.467z
		 M191.311,88.284c-1.151-0.024-2.458,0.18-2.458,1.307c0,0.684,0.456,1.008,0.996,1.008c0.755,0,1.235-0.479,1.403-0.972
		c0.036-0.107,0.06-0.228,0.06-0.336V88.284z"/>
</g>
<g enable-background="new    ">
	<path d="M157.773,105.808c0-0.684-0.012-1.271-0.048-1.811h0.923l0.036,1.14h0.048c0.264-0.78,0.899-1.271,1.607-1.271
		c0.12,0,0.204,0.012,0.3,0.036v0.995c-0.108-0.024-0.216-0.036-0.36-0.036c-0.744,0-1.271,0.563-1.416,1.355
		c-0.024,0.144-0.048,0.312-0.048,0.491v3.095h-1.043V105.808z"/>
	<path d="M166.555,108.219c0,0.6,0.012,1.127,0.048,1.583h-0.936l-0.06-0.947h-0.024c-0.276,0.468-0.887,1.079-1.919,1.079
		c-0.911,0-2.003-0.504-2.003-2.543v-3.394h1.056v3.214c0,1.104,0.336,1.848,1.295,1.848c0.708,0,1.199-0.492,1.391-0.96
		c0.06-0.156,0.096-0.348,0.096-0.54v-3.562h1.056V108.219z"/>
	<path d="M173.311,103.998c-0.024,0.42-0.048,0.888-0.048,1.595v3.37c0,1.332-0.264,2.147-0.827,2.65
		c-0.564,0.528-1.379,0.696-2.111,0.696c-0.696,0-1.463-0.168-1.931-0.479l0.264-0.804c0.384,0.239,0.984,0.455,1.703,0.455
		c1.08,0,1.871-0.563,1.871-2.026v-0.647h-0.024c-0.324,0.539-0.948,0.971-1.847,0.971c-1.439,0-2.471-1.223-2.471-2.83
		c0-1.967,1.284-3.082,2.615-3.082c1.007,0,1.559,0.527,1.811,1.007h0.024l0.048-0.875H173.311z M172.219,106.289
		c0-0.181-0.012-0.336-0.06-0.48c-0.192-0.611-0.708-1.115-1.476-1.115c-1.007,0-1.727,0.852-1.727,2.195
		c0,1.139,0.576,2.087,1.715,2.087c0.647,0,1.235-0.408,1.463-1.08c0.06-0.18,0.084-0.384,0.084-0.563V106.289z"/>
	<path d="M180.27,106.852c0,2.146-1.487,3.082-2.89,3.082c-1.571,0-2.783-1.151-2.783-2.986c0-1.942,1.271-3.082,2.878-3.082
		C179.143,103.866,180.27,105.077,180.27,106.852z M175.665,106.912c0,1.271,0.732,2.231,1.763,2.231
		c1.007,0,1.763-0.948,1.763-2.255c0-0.983-0.492-2.231-1.739-2.231C176.205,104.657,175.665,105.808,175.665,106.912z"/>
	<path d="M181.461,108.723c0.312,0.203,0.864,0.42,1.392,0.42c0.768,0,1.127-0.384,1.127-0.864c0-0.504-0.3-0.779-1.079-1.067
		c-1.043-0.371-1.535-0.947-1.535-1.643c0-0.936,0.755-1.703,2.003-1.703c0.587,0,1.103,0.168,1.427,0.359l-0.264,0.768
		c-0.228-0.144-0.647-0.336-1.187-0.336c-0.624,0-0.972,0.36-0.972,0.792c0,0.479,0.348,0.695,1.104,0.983
		c1.007,0.384,1.523,0.888,1.523,1.751c0,1.02-0.792,1.739-2.171,1.739c-0.635,0-1.223-0.156-1.631-0.396L181.461,108.723z"/>
	<path d="M189.571,109.802l-0.084-0.731h-0.036c-0.324,0.456-0.947,0.863-1.775,0.863c-1.175,0-1.775-0.827-1.775-1.667
		c0-1.403,1.247-2.171,3.49-2.159v-0.119c0-0.48-0.132-1.344-1.319-1.344c-0.54,0-1.103,0.168-1.511,0.432l-0.24-0.695
		c0.48-0.312,1.176-0.516,1.907-0.516c1.775,0,2.207,1.211,2.207,2.374v2.171c0,0.504,0.024,0.996,0.096,1.392H189.571z
		 M189.416,106.841c-1.151-0.024-2.459,0.18-2.459,1.307c0,0.684,0.456,1.008,0.996,1.008c0.755,0,1.235-0.479,1.403-0.972
		c0.036-0.107,0.06-0.228,0.06-0.336V106.841z"/>
</g>
<g enable-background="new    ">
	<path d="M32.81,84.119h4.354v0.876h-3.31v2.687h3.058v0.863h-3.058v3.658H32.81V84.119z"/>
	<path d="M38.306,88.209c0-0.684-0.012-1.271-0.048-1.811h0.923l0.036,1.14h0.048c0.264-0.78,0.899-1.271,1.607-1.271
		c0.12,0,0.204,0.012,0.3,0.036v0.995c-0.108-0.024-0.216-0.036-0.36-0.036c-0.744,0-1.271,0.563-1.416,1.355
		c-0.024,0.144-0.048,0.312-0.048,0.491v3.095h-1.043V88.209z"/>
	<path d="M47.087,90.62c0,0.6,0.012,1.127,0.048,1.583h-0.936l-0.06-0.947h-0.024c-0.276,0.468-0.887,1.079-1.919,1.079
		c-0.911,0-2.003-0.504-2.003-2.543v-3.394h1.056v3.214c0,1.104,0.336,1.848,1.295,1.848c0.708,0,1.199-0.492,1.391-0.96
		c0.06-0.156,0.096-0.348,0.096-0.54v-3.562h1.056V90.62z"/>
	<path d="M50.113,84.732v1.667h1.511v0.804h-1.511v3.13c0,0.72,0.204,1.128,0.792,1.128c0.276,0,0.479-0.036,0.612-0.072
		l0.048,0.791c-0.204,0.084-0.528,0.145-0.936,0.145c-0.492,0-0.888-0.156-1.14-0.444c-0.3-0.312-0.408-0.827-0.408-1.511v-3.166
		h-0.899v-0.804h0.899v-1.392L50.113,84.732z"/>
	<path d="M57.994,89.253c0,2.146-1.487,3.082-2.89,3.082c-1.571,0-2.783-1.151-2.783-2.986c0-1.942,1.271-3.082,2.878-3.082
		C56.867,86.267,57.994,87.478,57.994,89.253z M53.389,89.313c0,1.271,0.732,2.231,1.763,2.231c1.007,0,1.763-0.948,1.763-2.255
		c0-0.983-0.492-2.231-1.739-2.231C53.929,87.058,53.389,88.209,53.389,89.313z"/>
</g>
<g enable-background="new    ">
	<path d="M36.911,106.387c-0.276,0.144-0.887,0.336-1.667,0.336c-1.751,0-2.891-1.188-2.891-2.963c0-1.787,1.224-3.082,3.119-3.082
		c0.624,0,1.175,0.156,1.463,0.3l-0.24,0.815c-0.252-0.144-0.647-0.275-1.223-0.275c-1.332,0-2.051,0.983-2.051,2.194
		c0,1.344,0.864,2.171,2.015,2.171c0.6,0,0.996-0.156,1.295-0.288L36.911,106.387z"/>
	<path d="M41.364,106.603l-0.084-0.731h-0.036c-0.324,0.456-0.947,0.863-1.775,0.863c-1.175,0-1.775-0.827-1.775-1.667
		c0-1.403,1.247-2.171,3.49-2.159v-0.119c0-0.48-0.132-1.344-1.319-1.344c-0.54,0-1.104,0.168-1.511,0.432l-0.24-0.695
		c0.48-0.312,1.175-0.516,1.907-0.516c1.775,0,2.207,1.211,2.207,2.374v2.171c0,0.504,0.024,0.996,0.096,1.392H41.364z
		 M41.208,103.641c-1.151-0.024-2.458,0.18-2.458,1.307c0,0.684,0.456,1.008,0.996,1.008c0.755,0,1.235-0.479,1.403-0.972
		c0.036-0.107,0.06-0.228,0.06-0.336V103.641z"/>
	<path d="M43.934,102.609c0-0.684-0.012-1.271-0.048-1.811h0.923l0.036,1.14h0.048c0.264-0.78,0.899-1.271,1.607-1.271
		c0.12,0,0.204,0.012,0.3,0.036v0.995c-0.108-0.024-0.216-0.036-0.36-0.036c-0.744,0-1.271,0.563-1.416,1.355
		c-0.024,0.144-0.048,0.312-0.048,0.491v3.095h-1.043V102.609z"/>
	<path d="M47.905,102.369c0-0.6-0.012-1.092-0.048-1.571h0.936l0.06,0.959h0.024c0.288-0.552,0.959-1.091,1.919-1.091
		c0.803,0,2.051,0.479,2.051,2.471v3.466h-1.056v-3.346c0-0.936-0.348-1.716-1.343-1.716c-0.695,0-1.235,0.492-1.415,1.08
		c-0.048,0.132-0.072,0.312-0.072,0.491v3.49h-1.056V102.369z"/>
	<path d="M59.818,103.653c0,2.146-1.487,3.082-2.89,3.082c-1.571,0-2.783-1.151-2.783-2.986c0-1.942,1.271-3.082,2.878-3.082
		C58.691,100.666,59.818,101.877,59.818,103.653z M55.213,103.712c0,1.271,0.732,2.231,1.763,2.231c1.007,0,1.763-0.948,1.763-2.255
		c0-0.983-0.492-2.231-1.739-2.231C55.753,101.457,55.213,102.609,55.213,103.712z"/>
	<path d="M61.009,105.524c0.312,0.203,0.864,0.42,1.392,0.42c0.768,0,1.127-0.384,1.127-0.864c0-0.504-0.3-0.779-1.079-1.067
		c-1.043-0.371-1.535-0.947-1.535-1.643c0-0.936,0.755-1.703,2.003-1.703c0.587,0,1.104,0.168,1.427,0.359l-0.264,0.768
		c-0.228-0.144-0.647-0.336-1.187-0.336c-0.624,0-0.972,0.36-0.972,0.792c0,0.479,0.348,0.695,1.104,0.983
		c1.007,0.384,1.523,0.888,1.523,1.751c0,1.02-0.792,1.739-2.171,1.739c-0.635,0-1.223-0.156-1.631-0.396L61.009,105.524z"/>
	<path d="M71.158,103.653c0,2.146-1.487,3.082-2.89,3.082c-1.571,0-2.783-1.151-2.783-2.986c0-1.942,1.271-3.082,2.878-3.082
		C70.031,100.666,71.158,101.877,71.158,103.653z M66.553,103.712c0,1.271,0.732,2.231,1.763,2.231c1.007,0,1.763-0.948,1.763-2.255
		c0-0.983-0.492-2.231-1.739-2.231C67.093,101.457,66.553,102.609,66.553,103.712z"/>
</g>
<g enable-background="new    ">
	<path d="M60.095,138.548h-2.459v-0.888h5.985v0.888H61.15v7.196h-1.055V138.548z"/>
	<path d="M66.934,145.744l-0.084-0.731h-0.036c-0.324,0.456-0.947,0.863-1.775,0.863c-1.175,0-1.775-0.827-1.775-1.667
		c0-1.403,1.247-2.171,3.49-2.159v-0.119c0-0.48-0.132-1.344-1.319-1.344c-0.54,0-1.103,0.168-1.511,0.432l-0.24-0.695
		c0.48-0.312,1.176-0.516,1.907-0.516c1.775,0,2.207,1.211,2.207,2.374v2.171c0,0.504,0.024,0.996,0.096,1.392H66.934z
		 M66.778,142.782c-1.151-0.024-2.459,0.18-2.459,1.307c0,0.684,0.456,1.008,0.996,1.008c0.755,0,1.235-0.479,1.403-0.972
		c0.036-0.107,0.06-0.228,0.06-0.336V142.782z"/>
	<path d="M69.503,137.228h1.056v8.516h-1.056V137.228z"/>
	<path d="M72.335,137.228h1.056v8.516h-1.056V137.228z"/>
	<path d="M80.42,142.794c0,2.146-1.487,3.082-2.89,3.082c-1.571,0-2.783-1.151-2.783-2.986c0-1.942,1.271-3.082,2.878-3.082
		C79.293,139.807,80.42,141.018,80.42,142.794z M75.814,142.853c0,1.271,0.732,2.231,1.763,2.231c1.007,0,1.763-0.948,1.763-2.255
		c0-0.983-0.492-2.231-1.739-2.231C76.354,140.598,75.814,141.75,75.814,142.853z"/>
	<path d="M84.299,137.228h1.056v8.516h-1.056V137.228z"/>
	<path d="M87.719,143.033c0.024,1.428,0.935,2.016,1.991,2.016c0.755,0,1.211-0.132,1.607-0.3l0.18,0.755
		c-0.372,0.168-1.007,0.36-1.931,0.36c-1.787,0-2.854-1.176-2.854-2.927s1.032-3.13,2.723-3.13c1.895,0,2.399,1.667,2.399,2.734
		c0,0.216-0.024,0.384-0.036,0.491H87.719z M90.813,142.278c0.012-0.672-0.276-1.716-1.463-1.716c-1.067,0-1.535,0.984-1.619,1.716
		H90.813z"/>
	<path d="M93.143,141.51c0-0.6-0.012-1.092-0.048-1.571h0.936l0.06,0.959h0.024c0.288-0.552,0.959-1.091,1.919-1.091
		c0.803,0,2.051,0.479,2.051,2.471v3.466h-1.056v-3.346c0-0.936-0.348-1.716-1.343-1.716c-0.695,0-1.235,0.492-1.415,1.08
		c-0.048,0.132-0.072,0.312-0.072,0.491v3.49h-1.056V141.51z M94.126,138.944c-0.024-0.78,0.3-1.248,0.815-1.248
		c0.264,0,0.468,0.108,0.744,0.264c0.192,0.108,0.36,0.204,0.504,0.204c0.192,0,0.312-0.107,0.336-0.516h0.563
		c0.012,0.804-0.264,1.212-0.828,1.212c-0.251,0-0.479-0.108-0.731-0.24c-0.24-0.144-0.372-0.216-0.516-0.216
		c-0.192,0-0.288,0.204-0.312,0.54H94.126z"/>
	<path d="M105.056,142.794c0,2.146-1.487,3.082-2.89,3.082c-1.571,0-2.783-1.151-2.783-2.986c0-1.942,1.271-3.082,2.878-3.082
		C103.929,139.807,105.056,141.018,105.056,142.794z M100.45,142.853c0,1.271,0.732,2.231,1.763,2.231
		c1.007,0,1.763-0.948,1.763-2.255c0-0.983-0.492-2.231-1.739-2.231C100.99,140.598,100.45,141.75,100.45,142.853z"/>
	<path d="M106.247,144.665c0.312,0.203,0.864,0.42,1.392,0.42c0.768,0,1.127-0.384,1.127-0.864c0-0.504-0.3-0.779-1.079-1.067
		c-1.043-0.371-1.535-0.947-1.535-1.643c0-0.936,0.755-1.703,2.003-1.703c0.587,0,1.104,0.168,1.427,0.359l-0.264,0.768
		c-0.228-0.144-0.647-0.336-1.187-0.336c-0.624,0-0.972,0.36-0.972,0.792c0,0.479,0.348,0.695,1.104,0.983
		c1.007,0.384,1.523,0.888,1.523,1.751c0,1.02-0.792,1.739-2.171,1.739c-0.635,0-1.223-0.156-1.631-0.396L106.247,144.665z"/>
	<path d="M116.396,142.794c0,2.146-1.487,3.082-2.89,3.082c-1.571,0-2.783-1.151-2.783-2.986c0-1.942,1.271-3.082,2.878-3.082
		C115.269,139.807,116.396,141.018,116.396,142.794z M111.79,142.853c0,1.271,0.732,2.231,1.763,2.231
		c1.007,0,1.763-0.948,1.763-2.255c0-0.983-0.492-2.231-1.739-2.231C112.33,140.598,111.79,141.75,111.79,142.853z"/>
</g>
<g enable-background="new    ">
	<path d="M267.143,129.926c0.504-0.084,1.163-0.156,2.003-0.156c1.031,0,1.786,0.24,2.267,0.672c0.443,0.384,0.707,0.972,0.707,1.69
		c0,0.732-0.215,1.308-0.623,1.728c-0.552,0.588-1.451,0.888-2.471,0.888c-0.313,0-0.6-0.013-0.84-0.072v3.238h-1.043V129.926z
		 M268.186,133.823c0.229,0.061,0.516,0.084,0.863,0.084c1.26,0,2.027-0.611,2.027-1.727c0-1.067-0.756-1.584-1.906-1.584
		c-0.457,0-0.805,0.036-0.984,0.084V133.823z"/>
	<path d="M273.778,135.202c0.024,1.428,0.935,2.016,1.991,2.016c0.755,0,1.211-0.132,1.606-0.3l0.181,0.755
		c-0.373,0.168-1.008,0.36-1.932,0.36c-1.787,0-2.854-1.176-2.854-2.927s1.032-3.13,2.723-3.13c1.896,0,2.399,1.667,2.399,2.734
		c0,0.216-0.025,0.384-0.037,0.491H273.778z M276.873,134.448c0.012-0.672-0.276-1.716-1.464-1.716
		c-1.067,0-1.535,0.984-1.619,1.716H276.873z M277.125,129.602l-1.464,1.715h-0.755l1.055-1.715H277.125z"/>
	<path d="M280.474,130.442v1.667h1.511v0.804h-1.511v3.13c0,0.72,0.204,1.128,0.792,1.128c0.275,0,0.479-0.036,0.611-0.072
		l0.048,0.791c-0.204,0.084-0.528,0.145-0.936,0.145c-0.491,0-0.888-0.156-1.14-0.444c-0.3-0.312-0.408-0.827-0.408-1.511v-3.166
		h-0.898v-0.804h0.898v-1.392L280.474,130.442z"/>
	<path d="M286.389,137.913l-0.084-0.731h-0.036c-0.323,0.456-0.947,0.863-1.774,0.863c-1.176,0-1.775-0.827-1.775-1.667
		c0-1.403,1.247-2.171,3.49-2.159V134.1c0-0.48-0.133-1.344-1.32-1.344c-0.539,0-1.103,0.168-1.51,0.432l-0.24-0.695
		c0.479-0.312,1.176-0.516,1.906-0.516c1.775,0,2.207,1.211,2.207,2.374v2.171c0,0.504,0.023,0.996,0.096,1.392H286.389z
		 M286.232,134.951c-1.15-0.024-2.459,0.18-2.459,1.307c0,0.684,0.457,1.008,0.996,1.008c0.756,0,1.235-0.479,1.403-0.972
		c0.036-0.107,0.06-0.228,0.06-0.336V134.951z"/>
	<path d="M288.958,129.398h1.056v8.516h-1.056V129.398z"/>
	<path d="M297.043,134.963c0,2.146-1.486,3.082-2.891,3.082c-1.57,0-2.782-1.151-2.782-2.986c0-1.942,1.271-3.082,2.878-3.082
		C295.916,131.977,297.043,133.188,297.043,134.963z M292.438,135.023c0,1.271,0.732,2.231,1.764,2.231
		c1.007,0,1.763-0.948,1.763-2.255c0-0.983-0.491-2.231-1.739-2.231C292.978,132.768,292.438,133.919,292.438,135.023z"/>
	<path d="M298.234,136.834c0.312,0.203,0.863,0.42,1.391,0.42c0.768,0,1.127-0.384,1.127-0.864c0-0.504-0.299-0.779-1.078-1.067
		c-1.044-0.371-1.535-0.947-1.535-1.643c0-0.936,0.755-1.703,2.002-1.703c0.588,0,1.104,0.168,1.428,0.359l-0.264,0.768
		c-0.229-0.144-0.648-0.336-1.188-0.336c-0.624,0-0.972,0.36-0.972,0.792c0,0.479,0.348,0.695,1.104,0.983
		c1.007,0.384,1.522,0.888,1.522,1.751c0,1.02-0.791,1.739-2.17,1.739c-0.636,0-1.224-0.156-1.631-0.396L298.234,136.834z"/>
	<path d="M305.674,133.919c0-0.684-0.012-1.271-0.048-1.811h0.923l0.037,1.14h0.047c0.264-0.78,0.9-1.271,1.607-1.271
		c0.12,0,0.204,0.012,0.301,0.036v0.995c-0.109-0.024-0.217-0.036-0.36-0.036c-0.743,0-1.271,0.563-1.415,1.355
		c-0.024,0.144-0.049,0.312-0.049,0.491v3.095h-1.043V133.919z"/>
	<path d="M314.73,134.963c0,2.146-1.486,3.082-2.89,3.082c-1.571,0-2.782-1.151-2.782-2.986c0-1.942,1.271-3.082,2.878-3.082
		C313.604,131.977,314.73,133.188,314.73,134.963z M310.125,135.023c0,1.271,0.732,2.231,1.764,2.231
		c1.008,0,1.764-0.948,1.764-2.255c0-0.983-0.492-2.231-1.74-2.231C310.666,132.768,310.125,133.919,310.125,135.023z"/>
	<path d="M314.65,139.592c0.48-0.035,0.9-0.168,1.152-0.443c0.287-0.336,0.395-0.792,0.395-2.183v-4.857h1.057v5.265
		c0,1.128-0.181,1.859-0.696,2.387c-0.468,0.468-1.235,0.66-1.799,0.66L314.65,139.592z M317.373,130.478
		c0.012,0.348-0.24,0.647-0.66,0.647c-0.395,0-0.646-0.3-0.646-0.647c0-0.372,0.275-0.66,0.672-0.66
		C317.121,129.818,317.373,130.106,317.373,130.478z"/>
	<path d="M324.234,134.963c0,2.146-1.486,3.082-2.89,3.082c-1.571,0-2.782-1.151-2.782-2.986c0-1.942,1.271-3.082,2.878-3.082
		C323.107,131.977,324.234,133.188,324.234,134.963z M319.629,135.023c0,1.271,0.732,2.231,1.764,2.231
		c1.008,0,1.764-0.948,1.764-2.255c0-0.983-0.492-2.231-1.74-2.231C320.17,132.768,319.629,133.919,319.629,135.023z"/>
	<path d="M325.426,136.834c0.313,0.203,0.863,0.42,1.392,0.42c0.768,0,1.127-0.384,1.127-0.864c0-0.504-0.3-0.779-1.079-1.067
		c-1.043-0.371-1.535-0.947-1.535-1.643c0-0.936,0.756-1.703,2.003-1.703c0.587,0,1.103,0.168,1.427,0.359l-0.264,0.768
		c-0.228-0.144-0.647-0.336-1.188-0.336c-0.623,0-0.971,0.36-0.971,0.792c0,0.479,0.348,0.695,1.104,0.983
		c1.007,0.384,1.522,0.888,1.522,1.751c0,1.02-0.792,1.739-2.171,1.739c-0.635,0-1.223-0.156-1.631-0.396L325.426,136.834z"/>
</g>
<g enable-background="new    ">
	<path d="M354.521,49.757c-0.576,0.288-1.729,0.576-3.205,0.576c-3.422,0-5.996-2.16-5.996-6.14c0-3.799,2.574-6.374,6.338-6.374
		c1.512,0,2.467,0.324,2.881,0.54l-0.379,1.278c-0.594-0.287-1.439-0.504-2.448-0.504c-2.845,0-4.735,1.818-4.735,5.006
		c0,2.971,1.711,4.879,4.664,4.879c0.953,0,1.926-0.197,2.557-0.504L354.521,49.757z"/>
</g>
<g enable-background="new    ">
	<path d="M35.229,46.336l-1.26,3.817h-1.621l4.123-12.136h1.891l4.141,12.136h-1.674l-1.296-3.817H35.229z M39.208,45.112
		l-1.188-3.493c-0.271-0.793-0.45-1.513-0.63-2.215h-0.036c-0.18,0.72-0.378,1.458-0.612,2.196l-1.188,3.512H39.208z"/>
</g>
<g enable-background="new    ">
	<path d="M178.266,38.179c0.685-0.144,1.765-0.252,2.863-0.252c1.566,0,2.575,0.271,3.331,0.882c0.63,0.469,1.008,1.188,1.008,2.143
		c0,1.171-0.774,2.197-2.052,2.665v0.036c1.152,0.288,2.502,1.242,2.502,3.043c0,1.044-0.414,1.837-1.026,2.431
		c-0.846,0.774-2.214,1.135-4.195,1.135c-1.081,0-1.909-0.072-2.431-0.145V38.179z M179.833,43.149h1.422
		c1.656,0,2.629-0.864,2.629-2.035c0-1.422-1.081-1.98-2.665-1.98c-0.72,0-1.134,0.055-1.386,0.108V43.149z M179.833,48.965
		c0.306,0.054,0.756,0.072,1.314,0.072c1.621,0,3.115-0.595,3.115-2.358c0-1.657-1.422-2.341-3.133-2.341h-1.296V48.965z"/>
</g>
<rect x="244.308" y="117.566" transform="matrix(-0.6846 -0.7289 0.7289 -0.6846 339.3743 389.9774)" fill="#FF0000" width="19.5" height="8"/>
<rect x="116.38" y="124.098" transform="matrix(-0.6902 0.7236 -0.7236 -0.6902 305.8784 125.2432)" fill="#FF0000" width="19.5" height="8"/>
<rect x="57.522" y="75.156" transform="matrix(-0.6902 0.7236 -0.7236 -0.6902 170.9825 85.1139)" fill="#FF0000" width="19.5" height="8"/>
<rect x="133.399" y="77.401" transform="matrix(-0.6846 -0.7289 0.7289 -0.6846 181.8148 241.4719)" fill="#FF0000" width="19.5" height="8"/>
<ellipse fill="#FF0000" cx="184.398" cy="171.114" rx="7.5" ry="7.789"/>
<g>
	<path d="M205.4,178.006c0.503-0.084,1.163-0.156,2.003-0.156c1.031,0,1.787,0.24,2.267,0.672c0.444,0.384,0.708,0.972,0.708,1.69
		c0,0.732-0.216,1.308-0.624,1.728c-0.552,0.588-1.451,0.888-2.471,0.888c-0.312,0-0.6-0.013-0.839-0.072v3.238H205.4V178.006z
		 M206.443,181.903c0.228,0.061,0.516,0.084,0.863,0.084c1.259,0,2.027-0.611,2.027-1.727c0-1.067-0.755-1.584-1.907-1.584
		c-0.456,0-0.804,0.036-0.983,0.084V181.903z"/>
	<path d="M212.036,183.282c0.024,1.428,0.935,2.016,1.991,2.016c0.755,0,1.211-0.132,1.607-0.3l0.18,0.755
		c-0.372,0.168-1.007,0.36-1.931,0.36c-1.787,0-2.854-1.176-2.854-2.927s1.032-3.13,2.723-3.13c1.895,0,2.399,1.667,2.399,2.734
		c0,0.216-0.024,0.384-0.036,0.491H212.036z M215.13,182.527c0.012-0.672-0.276-1.716-1.463-1.716c-1.067,0-1.535,0.984-1.619,1.716
		H215.13z M215.382,177.681l-1.463,1.715h-0.755l1.055-1.715H215.382z"/>
	<path d="M218.731,178.521v1.667h1.511v0.804h-1.511v3.13c0,0.72,0.204,1.128,0.792,1.128c0.276,0,0.479-0.036,0.611-0.072
		l0.048,0.791c-0.204,0.084-0.528,0.145-0.936,0.145c-0.492,0-0.888-0.156-1.14-0.444c-0.3-0.312-0.408-0.827-0.408-1.511v-3.166
		H216.8v-0.804h0.899v-1.392L218.731,178.521z"/>
	<path d="M224.646,185.993l-0.084-0.731h-0.036c-0.324,0.456-0.947,0.863-1.775,0.863c-1.175,0-1.775-0.827-1.775-1.667
		c0-1.403,1.247-2.171,3.49-2.159v-0.119c0-0.48-0.132-1.344-1.319-1.344c-0.54,0-1.103,0.168-1.511,0.432l-0.24-0.695
		c0.48-0.312,1.176-0.516,1.907-0.516c1.775,0,2.207,1.211,2.207,2.374v2.171c0,0.504,0.023,0.996,0.096,1.392H224.646z
		 M224.49,183.031c-1.151-0.024-2.459,0.18-2.459,1.307c0,0.684,0.456,1.008,0.996,1.008c0.755,0,1.235-0.479,1.403-0.972
		c0.036-0.107,0.06-0.228,0.06-0.336V183.031z"/>
	<path d="M227.216,177.477h1.055v8.516h-1.055V177.477z"/>
	<path d="M235.301,183.043c0,2.146-1.487,3.082-2.891,3.082c-1.571,0-2.782-1.151-2.782-2.986c0-1.942,1.271-3.082,2.878-3.082
		C234.173,180.056,235.301,181.267,235.301,183.043z M230.695,183.102c0,1.271,0.731,2.231,1.763,2.231
		c1.008,0,1.763-0.948,1.763-2.255c0-0.983-0.491-2.231-1.738-2.231C231.234,180.847,230.695,181.999,230.695,183.102z"/>
	<path d="M236.491,184.914c0.312,0.203,0.863,0.42,1.392,0.42c0.768,0,1.127-0.384,1.127-0.864c0-0.504-0.3-0.779-1.079-1.067
		c-1.044-0.371-1.535-0.947-1.535-1.643c0-0.936,0.756-1.703,2.003-1.703c0.588,0,1.104,0.168,1.427,0.359l-0.264,0.768
		c-0.228-0.144-0.647-0.336-1.188-0.336c-0.623,0-0.971,0.36-0.971,0.792c0,0.479,0.348,0.695,1.103,0.983
		c1.008,0.384,1.523,0.888,1.523,1.751c0,1.02-0.791,1.739-2.171,1.739c-0.636,0-1.223-0.156-1.631-0.396L236.491,184.914z"/>
	<path d="M243.883,185.993c0.024-0.396,0.049-0.983,0.049-1.499v-7.017h1.043v3.646h0.024c0.371-0.647,1.043-1.067,1.979-1.067
		c1.439,0,2.459,1.199,2.446,2.962c0,2.075-1.307,3.106-2.603,3.106c-0.839,0-1.511-0.323-1.942-1.091h-0.036l-0.048,0.959H243.883z
		 M244.975,183.666c0,0.133,0.024,0.265,0.048,0.384c0.204,0.732,0.815,1.235,1.583,1.235c1.104,0,1.764-0.899,1.764-2.23
		c0-1.163-0.6-2.159-1.728-2.159c-0.72,0-1.392,0.492-1.607,1.296c-0.023,0.12-0.06,0.264-0.06,0.432V183.666z"/>
	<path d="M250.76,177.477h1.055v8.516h-1.055V177.477z"/>
	<path d="M256.806,185.993l-0.084-0.731h-0.036c-0.324,0.456-0.947,0.863-1.775,0.863c-1.175,0-1.774-0.827-1.774-1.667
		c0-1.403,1.247-2.171,3.49-2.159v-0.119c0-0.48-0.132-1.344-1.319-1.344c-0.54,0-1.104,0.168-1.512,0.432l-0.239-0.695
		c0.479-0.312,1.175-0.516,1.906-0.516c1.775,0,2.207,1.211,2.207,2.374v2.171c0,0.504,0.024,0.996,0.096,1.392H256.806z
		 M256.649,183.031c-1.151-0.024-2.458,0.18-2.458,1.307c0,0.684,0.455,1.008,0.995,1.008c0.756,0,1.235-0.479,1.403-0.972
		c0.036-0.107,0.06-0.228,0.06-0.336V183.031z"/>
	<path d="M259.375,181.76c0-0.6-0.013-1.092-0.049-1.571h0.936l0.061,0.959h0.023c0.288-0.552,0.96-1.091,1.919-1.091
		c0.804,0,2.051,0.479,2.051,2.471v3.466h-1.055v-3.346c0-0.936-0.349-1.716-1.344-1.716c-0.695,0-1.235,0.492-1.415,1.08
		c-0.048,0.132-0.072,0.312-0.072,0.491v3.49h-1.055V181.76z"/>
	<path d="M270.173,185.777c-0.276,0.144-0.888,0.336-1.668,0.336c-1.751,0-2.89-1.188-2.89-2.963c0-1.787,1.223-3.082,3.118-3.082
		c0.623,0,1.175,0.156,1.463,0.3l-0.239,0.815c-0.252-0.144-0.648-0.275-1.224-0.275c-1.331,0-2.051,0.983-2.051,2.194
		c0,1.344,0.863,2.171,2.015,2.171c0.6,0,0.995-0.156,1.295-0.288L270.173,185.777z"/>
	<path d="M276.592,183.043c0,2.146-1.487,3.082-2.891,3.082c-1.571,0-2.782-1.151-2.782-2.986c0-1.942,1.271-3.082,2.878-3.082
		C275.464,180.056,276.592,181.267,276.592,183.043z M271.986,183.102c0,1.271,0.731,2.231,1.763,2.231
		c1.008,0,1.763-0.948,1.763-2.255c0-0.983-0.491-2.231-1.738-2.231C272.525,180.847,271.986,181.999,271.986,183.102z"/>
	<path d="M277.783,184.914c0.312,0.203,0.863,0.42,1.392,0.42c0.768,0,1.127-0.384,1.127-0.864c0-0.504-0.3-0.779-1.079-1.067
		c-1.044-0.371-1.535-0.947-1.535-1.643c0-0.936,0.756-1.703,2.003-1.703c0.588,0,1.104,0.168,1.427,0.359l-0.264,0.768
		c-0.228-0.144-0.647-0.336-1.188-0.336c-0.623,0-0.971,0.36-0.971,0.792c0,0.479,0.348,0.695,1.103,0.983
		c1.008,0.384,1.523,0.888,1.523,1.751c0,1.02-0.791,1.739-2.171,1.739c-0.636,0-1.223-0.156-1.631-0.396L277.783,184.914z"/>
	<path d="M281.863,187.469c0.265-0.708,0.588-1.991,0.72-2.867l1.176-0.119c-0.276,1.019-0.804,2.351-1.14,2.914L281.863,187.469z"
		/>
	<path d="M288.846,178.521v1.667h1.512v0.804h-1.512v3.13c0,0.72,0.204,1.128,0.792,1.128c0.275,0,0.479-0.036,0.611-0.072
		l0.048,0.791c-0.203,0.084-0.527,0.145-0.936,0.145c-0.491,0-0.887-0.156-1.139-0.444c-0.3-0.312-0.408-0.827-0.408-1.511v-3.166
		h-0.899v-0.804h0.899v-1.392L288.846,178.521z"/>
	<path d="M294.761,185.993l-0.084-0.731h-0.036c-0.324,0.456-0.947,0.863-1.775,0.863c-1.175,0-1.774-0.827-1.774-1.667
		c0-1.403,1.247-2.171,3.49-2.159v-0.119c0-0.48-0.132-1.344-1.319-1.344c-0.54,0-1.104,0.168-1.512,0.432l-0.239-0.695
		c0.479-0.312,1.175-0.516,1.906-0.516c1.775,0,2.207,1.211,2.207,2.374v2.171c0,0.504,0.024,0.996,0.096,1.392H294.761z
		 M294.604,183.031c-1.151-0.024-2.458,0.18-2.458,1.307c0,0.684,0.455,1.008,0.995,1.008c0.756,0,1.235-0.479,1.403-0.972
		c0.036-0.107,0.06-0.228,0.06-0.336V183.031z"/>
	<path d="M297.331,177.477h1.055v8.516h-1.055V177.477z"/>
	<path d="M300.163,177.477h1.055v8.516h-1.055V177.477z"/>
	<path d="M308.248,183.043c0,2.146-1.487,3.082-2.891,3.082c-1.571,0-2.782-1.151-2.782-2.986c0-1.942,1.271-3.082,2.878-3.082
		C307.12,180.056,308.248,181.267,308.248,183.043z M303.643,183.102c0,1.271,0.731,2.231,1.763,2.231
		c1.008,0,1.763-0.948,1.763-2.255c0-0.983-0.491-2.231-1.738-2.231C304.182,180.847,303.643,181.999,303.643,183.102z"/>
	<path d="M312.127,177.477h1.055v3.622h0.024c0.168-0.3,0.432-0.563,0.756-0.743c0.312-0.18,0.684-0.3,1.079-0.3
		c0.779,0,2.026,0.479,2.026,2.482v3.454h-1.055v-3.334c0-0.936-0.349-1.728-1.344-1.728c-0.684,0-1.224,0.48-1.415,1.056
		c-0.06,0.144-0.072,0.3-0.072,0.504v3.502h-1.055V177.477z"/>
	<path d="M319.373,183.282c0.024,1.428,0.936,2.016,1.991,2.016c0.756,0,1.211-0.132,1.607-0.3l0.18,0.755
		c-0.372,0.168-1.008,0.36-1.931,0.36c-1.787,0-2.854-1.176-2.854-2.927s1.031-3.13,2.723-3.13c1.895,0,2.398,1.667,2.398,2.734
		c0,0.216-0.024,0.384-0.036,0.491H319.373z M322.468,182.527c0.012-0.672-0.276-1.716-1.463-1.716
		c-1.067,0-1.535,0.984-1.619,1.716H322.468z"/>
	<path d="M324.799,181.999c0-0.684-0.013-1.271-0.049-1.811h0.924l0.036,1.14h0.048c0.264-0.78,0.899-1.271,1.607-1.271
		c0.12,0,0.203,0.012,0.3,0.036v0.995c-0.108-0.024-0.216-0.036-0.36-0.036c-0.743,0-1.271,0.563-1.415,1.355
		c-0.023,0.144-0.048,0.312-0.048,0.491v3.095h-1.043V181.999z"/>
	<path d="M328.722,185.993c0.024-0.396,0.049-0.983,0.049-1.499v-7.017h1.043v3.646h0.024c0.371-0.647,1.043-1.067,1.979-1.067
		c1.439,0,2.459,1.199,2.446,2.962c0,2.075-1.307,3.106-2.603,3.106c-0.839,0-1.511-0.323-1.942-1.091h-0.036l-0.048,0.959H328.722z
		 M329.813,183.666c0,0.133,0.024,0.265,0.048,0.384c0.204,0.732,0.815,1.235,1.583,1.235c1.104,0,1.764-0.899,1.764-2.23
		c0-1.163-0.6-2.159-1.728-2.159c-0.72,0-1.392,0.492-1.607,1.296c-0.023,0.12-0.06,0.264-0.06,0.432V183.666z"/>
	<path d="M338.813,185.993l-0.084-0.731h-0.036c-0.323,0.456-0.947,0.863-1.775,0.863c-1.175,0-1.774-0.827-1.774-1.667
		c0-1.403,1.247-2.171,3.49-2.159v-0.119c0-0.48-0.132-1.344-1.319-1.344c-0.54,0-1.104,0.168-1.512,0.432l-0.239-0.695
		c0.479-0.312,1.175-0.516,1.906-0.516c1.775,0,2.207,1.211,2.207,2.374v2.171c0,0.504,0.024,0.996,0.096,1.392H338.813z
		 M338.656,183.031c-1.151-0.024-2.458,0.18-2.458,1.307c0,0.684,0.455,1.008,0.995,1.008c0.756,0,1.235-0.479,1.403-0.972
		c0.036-0.107,0.06-0.228,0.06-0.336V183.031z M339.185,177.681l-1.464,1.715h-0.755l1.055-1.715H339.185z"/>
	<path d="M345.52,185.777c-0.276,0.144-0.888,0.336-1.668,0.336c-1.751,0-2.89-1.188-2.89-2.963c0-1.787,1.223-3.082,3.118-3.082
		c0.623,0,1.175,0.156,1.463,0.3l-0.24,0.815c-0.251-0.144-0.647-0.275-1.223-0.275c-1.331,0-2.051,0.983-2.051,2.194
		c0,1.344,0.863,2.171,2.015,2.171c0.6,0,0.995-0.156,1.295-0.288L345.52,185.777z"/>
	<path d="M347.273,183.282c0.024,1.428,0.936,2.016,1.991,2.016c0.756,0,1.211-0.132,1.607-0.3l0.18,0.755
		c-0.372,0.168-1.008,0.36-1.931,0.36c-1.787,0-2.854-1.176-2.854-2.927s1.031-3.13,2.723-3.13c1.895,0,2.398,1.667,2.398,2.734
		c0,0.216-0.024,0.384-0.036,0.491H347.273z M350.368,182.527c0.012-0.672-0.276-1.716-1.463-1.716
		c-1.067,0-1.535,0.984-1.619,1.716H350.368z"/>
	<path d="M357.951,183.043c0,2.146-1.487,3.082-2.891,3.082c-1.571,0-2.782-1.151-2.782-2.986c0-1.942,1.271-3.082,2.878-3.082
		C356.823,180.056,357.951,181.267,357.951,183.043z M353.346,183.102c0,1.271,0.731,2.231,1.763,2.231
		c1.008,0,1.763-0.948,1.763-2.255c0-0.983-0.491-2.231-1.738-2.231C353.885,180.847,353.346,181.999,353.346,183.102z"/>
	<path d="M358.314,187.469c0.264-0.708,0.587-1.991,0.719-2.867l1.176-0.119c-0.276,1.019-0.804,2.351-1.14,2.914L358.314,187.469z"
		/>
	<path d="M205.364,191.878h1.056v3.622h0.024c0.168-0.3,0.432-0.563,0.755-0.743c0.312-0.18,0.684-0.3,1.08-0.3
		c0.779,0,2.027,0.479,2.027,2.482v3.454h-1.056v-3.334c0-0.936-0.348-1.728-1.343-1.728c-0.684,0-1.223,0.48-1.415,1.056
		c-0.06,0.144-0.072,0.3-0.072,0.504v3.502h-1.056V191.878z"/>
	<path d="M217.277,197.443c0,2.146-1.487,3.082-2.89,3.082c-1.571,0-2.783-1.151-2.783-2.986c0-1.942,1.271-3.082,2.878-3.082
		C216.15,194.457,217.277,195.668,217.277,197.443z M212.671,197.503c0,1.271,0.732,2.231,1.763,2.231
		c1.007,0,1.763-0.948,1.763-2.255c0-0.983-0.492-2.231-1.739-2.231C213.211,195.248,212.671,196.399,212.671,197.503z"/>
	<path d="M217.197,202.072c0.479-0.035,0.899-0.168,1.151-0.443c0.288-0.336,0.396-0.792,0.396-2.183v-4.857h1.056v5.265
		c0,1.128-0.18,1.859-0.696,2.387c-0.468,0.468-1.235,0.66-1.799,0.66L217.197,202.072z M219.919,192.958
		c0.012,0.348-0.24,0.647-0.66,0.647c-0.396,0-0.647-0.3-0.647-0.647c0-0.372,0.276-0.66,0.672-0.66
		C219.667,192.298,219.919,192.586,219.919,192.958z"/>
	<path d="M224.742,200.393l-0.084-0.731h-0.036c-0.324,0.456-0.947,0.863-1.775,0.863c-1.175,0-1.775-0.827-1.775-1.667
		c0-1.403,1.247-2.171,3.49-2.159v-0.119c0-0.48-0.132-1.344-1.319-1.344c-0.54,0-1.104,0.168-1.511,0.432l-0.24-0.695
		c0.48-0.312,1.175-0.516,1.907-0.516c1.775,0,2.207,1.211,2.207,2.374v2.171c0,0.504,0.024,0.996,0.096,1.392H224.742z
		 M224.586,197.431c-1.151-0.024-2.458,0.18-2.458,1.307c0,0.684,0.456,1.008,0.996,1.008c0.755,0,1.235-0.479,1.403-0.972
		c0.036-0.107,0.06-0.228,0.06-0.336V197.431z"/>
	<path d="M227.167,199.314c0.312,0.203,0.863,0.42,1.392,0.42c0.768,0,1.127-0.384,1.127-0.864c0-0.504-0.3-0.779-1.079-1.067
		c-1.044-0.371-1.535-0.947-1.535-1.643c0-0.936,0.756-1.703,2.003-1.703c0.588,0,1.104,0.168,1.427,0.359l-0.264,0.768
		c-0.228-0.144-0.647-0.336-1.188-0.336c-0.623,0-0.971,0.36-0.971,0.792c0,0.479,0.348,0.695,1.103,0.983
		c1.008,0.384,1.523,0.888,1.523,1.751c0,1.02-0.791,1.739-2.171,1.739c-0.636,0-1.223-0.156-1.631-0.396L227.167,199.314z"/>
	<path d="M234.463,199.314c0.312,0.203,0.863,0.42,1.392,0.42c0.768,0,1.127-0.384,1.127-0.864c0-0.504-0.3-0.779-1.079-1.067
		c-1.044-0.371-1.535-0.947-1.535-1.643c0-0.936,0.756-1.703,2.003-1.703c0.588,0,1.104,0.168,1.427,0.359l-0.264,0.768
		c-0.228-0.144-0.647-0.336-1.188-0.336c-0.623,0-0.971,0.36-0.971,0.792c0,0.479,0.348,0.695,1.103,0.983
		c1.008,0.384,1.523,0.888,1.523,1.751c0,1.02-0.791,1.739-2.171,1.739c-0.636,0-1.223-0.156-1.631-0.396L234.463,199.314z"/>
	<path d="M240.534,192.958c0.012,0.359-0.252,0.647-0.672,0.647c-0.371,0-0.636-0.288-0.636-0.647c0-0.372,0.276-0.66,0.66-0.66
		C240.282,192.298,240.534,192.586,240.534,192.958z M239.359,200.393v-5.805h1.055v5.805H239.359z"/>
	<path d="M242.168,196.16c0-0.6-0.013-1.092-0.049-1.571h0.936l0.061,0.959h0.023c0.288-0.552,0.96-1.091,1.919-1.091
		c0.804,0,2.051,0.479,2.051,2.471v3.466h-1.055v-3.346c0-0.936-0.349-1.716-1.344-1.716c-0.695,0-1.235,0.492-1.415,1.08
		c-0.048,0.132-0.072,0.312-0.072,0.491v3.49h-1.055V196.16z"/>
	<path d="M252.642,192.922v1.667h1.512v0.804h-1.512v3.13c0,0.72,0.204,1.128,0.792,1.128c0.275,0,0.479-0.036,0.611-0.072
		l0.048,0.791c-0.203,0.084-0.527,0.145-0.936,0.145c-0.491,0-0.887-0.156-1.139-0.444c-0.3-0.312-0.408-0.827-0.408-1.511v-3.166
		h-0.899v-0.804h0.899v-1.392L252.642,192.922z"/>
	<path d="M255.344,196.399c0-0.684-0.013-1.271-0.049-1.811h0.924l0.036,1.14h0.048c0.264-0.78,0.899-1.271,1.607-1.271
		c0.12,0,0.203,0.012,0.3,0.036v0.995c-0.108-0.024-0.216-0.036-0.36-0.036c-0.743,0-1.271,0.563-1.415,1.355
		c-0.023,0.144-0.048,0.312-0.048,0.491v3.095h-1.043V196.399z"/>
	<path d="M260.49,192.958c0.012,0.359-0.252,0.647-0.672,0.647c-0.371,0-0.636-0.288-0.636-0.647c0-0.372,0.276-0.66,0.66-0.66
		C260.238,192.298,260.49,192.586,260.49,192.958z M259.315,200.393v-5.805h1.055v5.805H259.315z"/>
	<path d="M266.261,200.177c-0.276,0.144-0.888,0.336-1.668,0.336c-1.751,0-2.89-1.188-2.89-2.963c0-1.787,1.223-3.082,3.118-3.082
		c0.623,0,1.175,0.156,1.463,0.3l-0.239,0.815c-0.252-0.144-0.648-0.275-1.224-0.275c-1.331,0-2.051,0.983-2.051,2.194
		c0,1.344,0.863,2.171,2.015,2.171c0.6,0,0.995-0.156,1.295-0.288L266.261,200.177z"/>
	<path d="M272.681,197.443c0,2.146-1.487,3.082-2.891,3.082c-1.571,0-2.782-1.151-2.782-2.986c0-1.942,1.271-3.082,2.878-3.082
		C271.553,194.457,272.681,195.668,272.681,197.443z M268.075,197.503c0,1.271,0.731,2.231,1.763,2.231
		c1.008,0,1.763-0.948,1.763-2.255c0-0.983-0.491-2.231-1.738-2.231C268.614,195.248,268.075,196.399,268.075,197.503z"/>
	<path d="M274.016,196.16c0-0.6-0.013-1.092-0.049-1.571h0.924l0.048,0.936h0.036c0.324-0.552,0.863-1.067,1.823-1.067
		c0.791,0,1.391,0.479,1.643,1.163h0.024c0.18-0.324,0.407-0.575,0.647-0.756c0.348-0.264,0.731-0.407,1.283-0.407
		c0.768,0,1.907,0.504,1.907,2.519v3.418h-1.031v-3.286c0-1.115-0.408-1.787-1.26-1.787c-0.6,0-1.067,0.443-1.247,0.96
		c-0.048,0.144-0.084,0.335-0.084,0.527v3.586h-1.031v-3.479c0-0.923-0.408-1.595-1.212-1.595c-0.659,0-1.139,0.527-1.307,1.056
		c-0.061,0.155-0.084,0.336-0.084,0.516v3.502h-1.031V196.16z"/>
	<path d="M287.237,200.393l-0.084-0.731h-0.036c-0.324,0.456-0.947,0.863-1.775,0.863c-1.175,0-1.774-0.827-1.774-1.667
		c0-1.403,1.247-2.171,3.49-2.159v-0.119c0-0.48-0.132-1.344-1.319-1.344c-0.54,0-1.104,0.168-1.512,0.432l-0.239-0.695
		c0.479-0.312,1.175-0.516,1.906-0.516c1.775,0,2.207,1.211,2.207,2.374v2.171c0,0.504,0.024,0.996,0.096,1.392H287.237z
		 M287.081,197.431c-1.151-0.024-2.458,0.18-2.458,1.307c0,0.684,0.455,1.008,0.995,1.008c0.756,0,1.235-0.479,1.403-0.972
		c0.036-0.107,0.06-0.228,0.06-0.336V197.431z"/>
	<path d="M289.663,199.314c0.312,0.203,0.863,0.42,1.392,0.42c0.768,0,1.127-0.384,1.127-0.864c0-0.504-0.3-0.779-1.079-1.067
		c-1.044-0.371-1.535-0.947-1.535-1.643c0-0.936,0.756-1.703,2.003-1.703c0.588,0,1.104,0.168,1.427,0.359l-0.264,0.768
		c-0.228-0.144-0.647-0.336-1.188-0.336c-0.623,0-0.971,0.36-0.971,0.792c0,0.479,0.348,0.695,1.103,0.983
		c1.008,0.384,1.523,0.888,1.523,1.751c0,1.02-0.791,1.739-2.171,1.739c-0.636,0-1.223-0.156-1.631-0.396L289.663,199.314z"/>
	<path d="M293.744,201.869c0.264-0.708,0.587-1.991,0.719-2.867l1.176-0.119c-0.276,1.019-0.804,2.351-1.14,2.914L293.744,201.869z"
		/>
	<path d="M299.563,200.393v-5.001h-0.815v-0.804h0.815v-0.276c0-0.815,0.18-1.559,0.672-2.026c0.396-0.384,0.923-0.54,1.415-0.54
		c0.372,0,0.695,0.084,0.899,0.168l-0.144,0.815c-0.156-0.071-0.372-0.132-0.672-0.132c-0.899,0-1.127,0.792-1.127,1.68v0.312h1.402
		v0.804h-1.402v5.001H299.563z"/>
	<path d="M302.959,196.399c0-0.684-0.013-1.271-0.049-1.811h0.924l0.036,1.14h0.048c0.264-0.78,0.899-1.271,1.607-1.271
		c0.12,0,0.203,0.012,0.3,0.036v0.995c-0.108-0.024-0.216-0.036-0.36-0.036c-0.743,0-1.271,0.563-1.415,1.355
		c-0.023,0.144-0.048,0.312-0.048,0.491v3.095h-1.043V196.399z"/>
	<path d="M311.739,198.81c0,0.6,0.013,1.127,0.049,1.583h-0.936l-0.061-0.947h-0.023c-0.276,0.468-0.888,1.079-1.919,1.079
		c-0.912,0-2.003-0.504-2.003-2.543v-3.394h1.055v3.214c0,1.104,0.336,1.848,1.296,1.848c0.707,0,1.199-0.492,1.391-0.96
		c0.061-0.156,0.097-0.348,0.097-0.54v-3.562h1.055V198.81z"/>
	<path d="M314.766,192.922v1.667h1.512v0.804h-1.512v3.13c0,0.72,0.204,1.128,0.792,1.128c0.275,0,0.479-0.036,0.611-0.072
		l0.048,0.791c-0.203,0.084-0.527,0.145-0.936,0.145c-0.491,0-0.887-0.156-1.139-0.444c-0.3-0.312-0.408-0.827-0.408-1.511v-3.166
		h-0.899v-0.804h0.899v-1.392L314.766,192.922z"/>
	<path d="M322.647,197.443c0,2.146-1.487,3.082-2.891,3.082c-1.571,0-2.782-1.151-2.782-2.986c0-1.942,1.271-3.082,2.878-3.082
		C321.52,194.457,322.647,195.668,322.647,197.443z M318.042,197.503c0,1.271,0.731,2.231,1.763,2.231
		c1.008,0,1.763-0.948,1.763-2.255c0-0.983-0.491-2.231-1.738-2.231C318.581,195.248,318.042,196.399,318.042,197.503z"/>
	<path d="M326.382,199.314c0.312,0.203,0.863,0.42,1.392,0.42c0.768,0,1.127-0.384,1.127-0.864c0-0.504-0.3-0.779-1.079-1.067
		c-1.044-0.371-1.535-0.947-1.535-1.643c0-0.936,0.756-1.703,2.003-1.703c0.588,0,1.104,0.168,1.427,0.359l-0.264,0.768
		c-0.228-0.144-0.647-0.336-1.188-0.336c-0.623,0-0.971,0.36-0.971,0.792c0,0.479,0.348,0.695,1.103,0.983
		c1.008,0.384,1.523,0.888,1.523,1.751c0,1.02-0.791,1.739-2.171,1.739c-0.636,0-1.223-0.156-1.631-0.396L326.382,199.314z"/>
	<path d="M331.865,197.682c0.024,1.428,0.936,2.016,1.991,2.016c0.756,0,1.211-0.132,1.607-0.3l0.18,0.755
		c-0.372,0.168-1.008,0.36-1.931,0.36c-1.787,0-2.854-1.176-2.854-2.927s1.031-3.13,2.723-3.13c1.895,0,2.398,1.667,2.398,2.734
		c0,0.216-0.024,0.384-0.036,0.491H331.865z M334.96,196.927c0.012-0.672-0.276-1.716-1.463-1.716c-1.067,0-1.535,0.984-1.619,1.716
		H334.96z"/>
	<path d="M341.428,200.177c-0.276,0.144-0.888,0.336-1.668,0.336c-1.751,0-2.89-1.188-2.89-2.963c0-1.787,1.223-3.082,3.118-3.082
		c0.623,0,1.175,0.156,1.463,0.3l-0.24,0.815c-0.251-0.144-0.647-0.275-1.223-0.275c-1.331,0-2.051,0.983-2.051,2.194
		c0,1.344,0.863,2.171,2.015,2.171c0.6,0,0.995-0.156,1.295-0.288L341.428,200.177z"/>
	<path d="M347.848,197.443c0,2.146-1.487,3.082-2.891,3.082c-1.571,0-2.782-1.151-2.782-2.986c0-1.942,1.271-3.082,2.878-3.082
		C346.72,194.457,347.848,195.668,347.848,197.443z M343.242,197.503c0,1.271,0.731,2.231,1.763,2.231
		c1.008,0,1.763-0.948,1.763-2.255c0-0.983-0.491-2.231-1.738-2.231C343.781,195.248,343.242,196.399,343.242,197.503z"/>
	<path d="M348.211,201.869c0.264-0.708,0.587-1.991,0.719-2.867l1.176-0.119c-0.276,1.019-0.804,2.351-1.14,2.914L348.211,201.869z"
		/>
	<path d="M353.777,199.314c0.312,0.203,0.863,0.42,1.392,0.42c0.768,0,1.127-0.384,1.127-0.864c0-0.504-0.3-0.779-1.079-1.067
		c-1.044-0.371-1.535-0.947-1.535-1.643c0-0.936,0.756-1.703,2.003-1.703c0.588,0,1.104,0.168,1.427,0.359l-0.264,0.768
		c-0.228-0.144-0.647-0.336-1.188-0.336c-0.623,0-0.971,0.36-0.971,0.792c0,0.479,0.348,0.695,1.103,0.983
		c1.008,0.384,1.523,0.888,1.523,1.751c0,1.02-0.791,1.739-2.171,1.739c-0.636,0-1.223-0.156-1.631-0.396L353.777,199.314z"/>
	<path d="M359.261,197.682c0.024,1.428,0.936,2.016,1.991,2.016c0.756,0,1.211-0.132,1.607-0.3l0.18,0.755
		c-0.372,0.168-1.008,0.36-1.931,0.36c-1.787,0-2.854-1.176-2.854-2.927s1.031-3.13,2.723-3.13c1.895,0,2.398,1.667,2.398,2.734
		c0,0.216-0.024,0.384-0.036,0.491H359.261z M362.355,196.927c0.012-0.672-0.276-1.716-1.463-1.716
		c-1.067,0-1.535,0.984-1.619,1.716H362.355z"/>
	<path d="M364.687,196.16c0-0.6-0.013-1.092-0.049-1.571h0.924l0.048,0.936h0.036c0.324-0.552,0.863-1.067,1.823-1.067
		c0.791,0,1.391,0.479,1.643,1.163h0.024c0.18-0.324,0.407-0.575,0.647-0.756c0.348-0.264,0.731-0.407,1.283-0.407
		c0.768,0,1.907,0.504,1.907,2.519v3.418h-1.031v-3.286c0-1.115-0.408-1.787-1.26-1.787c-0.6,0-1.067,0.443-1.247,0.96
		c-0.048,0.144-0.084,0.335-0.084,0.527v3.586h-1.031v-3.479c0-0.923-0.408-1.595-1.212-1.595c-0.659,0-1.139,0.527-1.307,1.056
		c-0.061,0.155-0.084,0.336-0.084,0.516v3.502h-1.031V196.16z"/>
	<path d="M375.869,192.958c0.012,0.359-0.252,0.647-0.672,0.647c-0.371,0-0.636-0.288-0.636-0.647c0-0.372,0.276-0.66,0.66-0.66
		C375.617,192.298,375.869,192.586,375.869,192.958z M374.694,200.393v-5.805h1.055v5.805H374.694z"/>
	<path d="M377.502,191.878h1.055v8.516h-1.055V191.878z"/>
	<path d="M380.334,191.878h1.055v8.516h-1.055V191.878z"/>
	<path d="M386.38,200.393l-0.084-0.731h-0.036c-0.324,0.456-0.947,0.863-1.775,0.863c-1.175,0-1.774-0.827-1.774-1.667
		c0-1.403,1.247-2.171,3.49-2.159v-0.119c0-0.48-0.132-1.344-1.319-1.344c-0.54,0-1.104,0.168-1.512,0.432l-0.239-0.695
		c0.479-0.312,1.175-0.516,1.906-0.516c1.775,0,2.207,1.211,2.207,2.374v2.171c0,0.504,0.024,0.996,0.096,1.392H386.38z
		 M386.224,197.431c-1.151-0.024-2.458,0.18-2.458,1.307c0,0.684,0.455,1.008,0.995,1.008c0.756,0,1.235-0.479,1.403-0.972
		c0.036-0.107,0.06-0.228,0.06-0.336V197.431z"/>
	<path d="M391.494,191.878h1.055v8.516h-1.055V191.878z"/>
	<path d="M395.5,192.958c0.012,0.359-0.252,0.647-0.672,0.647c-0.371,0-0.636-0.288-0.636-0.647c0-0.372,0.276-0.66,0.66-0.66
		C395.248,192.298,395.5,192.586,395.5,192.958z M394.325,200.393v-5.805h1.055v5.805H394.325z"/>
	<path d="M396.989,199.314c0.312,0.203,0.863,0.42,1.392,0.42c0.768,0,1.127-0.384,1.127-0.864c0-0.504-0.3-0.779-1.079-1.067
		c-1.044-0.371-1.535-0.947-1.535-1.643c0-0.936,0.756-1.703,2.003-1.703c0.588,0,1.104,0.168,1.427,0.359l-0.264,0.768
		c-0.228-0.144-0.647-0.336-1.188-0.336c-0.623,0-0.971,0.36-0.971,0.792c0,0.479,0.348,0.695,1.103,0.983
		c1.008,0.384,1.523,0.888,1.523,1.751c0,1.02-0.791,1.739-2.171,1.739c-0.636,0-1.223-0.156-1.631-0.396L396.989,199.314z"/>
	<path d="M405.1,200.393l-0.084-0.731h-0.036c-0.323,0.456-0.947,0.863-1.775,0.863c-1.175,0-1.774-0.827-1.774-1.667
		c0-1.403,1.247-2.171,3.49-2.159v-0.119c0-0.48-0.132-1.344-1.319-1.344c-0.54,0-1.104,0.168-1.512,0.432l-0.239-0.695
		c0.479-0.312,1.175-0.516,1.906-0.516c1.775,0,2.207,1.211,2.207,2.374v2.171c0,0.504,0.024,0.996,0.096,1.392H405.1z
		 M404.943,197.431c-1.151-0.024-2.458,0.18-2.458,1.307c0,0.684,0.455,1.008,0.995,1.008c0.756,0,1.235-0.479,1.403-0.972
		c0.036-0.107,0.06-0.228,0.06-0.336V197.431z"/>
</g>
<rect x="288.22" y="85.367" transform="matrix(-0.6846 -0.7289 0.7289 -0.6846 436.8189 367.7439)" fill="#FF0000" width="19.5" height="8"/>
<g>
	<path d="M313.85,92.594v3.382h3.91v-3.382h1.055v8.083h-1.055v-3.79h-3.91v3.79h-1.044v-8.083H313.85z"/>
	<path d="M325.848,97.728c0,2.146-1.487,3.082-2.891,3.082c-1.571,0-2.782-1.151-2.782-2.986c0-1.943,1.271-3.082,2.878-3.082
		C324.72,94.741,325.848,95.952,325.848,97.728z M321.242,97.787c0,1.271,0.731,2.231,1.763,2.231c1.008,0,1.763-0.947,1.763-2.255
		c0-0.983-0.491-2.23-1.738-2.23C321.781,95.533,321.242,96.684,321.242,97.787z"/>
	<path d="M325.767,102.357c0.48-0.036,0.899-0.168,1.151-0.444c0.288-0.336,0.396-0.792,0.396-2.183v-4.857h1.055v5.265
		c0,1.127-0.18,1.859-0.695,2.387c-0.468,0.468-1.235,0.66-1.799,0.66L325.767,102.357z M328.489,93.242
		c0.012,0.348-0.239,0.648-0.659,0.648c-0.396,0-0.647-0.3-0.647-0.648c0-0.372,0.275-0.66,0.671-0.66
		C328.237,92.582,328.489,92.87,328.489,93.242z"/>
	<path d="M333.313,100.678l-0.084-0.731h-0.036c-0.323,0.456-0.947,0.863-1.775,0.863c-1.175,0-1.774-0.828-1.774-1.667
		c0-1.403,1.247-2.171,3.49-2.159v-0.12c0-0.479-0.132-1.343-1.319-1.343c-0.54,0-1.104,0.168-1.512,0.432l-0.239-0.695
		c0.479-0.312,1.175-0.516,1.906-0.516c1.775,0,2.207,1.211,2.207,2.375v2.171c0,0.503,0.024,0.995,0.096,1.391H333.313z
		 M333.156,97.716c-1.151-0.024-2.458,0.18-2.458,1.307c0,0.684,0.455,1.008,0.995,1.008c0.756,0,1.235-0.48,1.403-0.972
		c0.036-0.108,0.06-0.228,0.06-0.336V97.716z"/>
	<path d="M335.737,99.598c0.312,0.204,0.863,0.42,1.392,0.42c0.768,0,1.127-0.384,1.127-0.863c0-0.504-0.3-0.78-1.079-1.068
		c-1.044-0.372-1.535-0.947-1.535-1.643c0-0.935,0.756-1.703,2.003-1.703c0.588,0,1.104,0.167,1.427,0.359l-0.264,0.768
		c-0.228-0.144-0.647-0.335-1.188-0.335c-0.623,0-0.971,0.36-0.971,0.792c0,0.479,0.348,0.695,1.103,0.983
		c1.008,0.384,1.523,0.888,1.523,1.751c0,1.02-0.791,1.739-2.171,1.739c-0.636,0-1.223-0.156-1.631-0.396L335.737,99.598z"/>
	<path d="M347.315,100.462c-0.276,0.144-0.888,0.336-1.668,0.336c-1.751,0-2.89-1.188-2.89-2.962c0-1.787,1.223-3.083,3.118-3.083
		c0.623,0,1.175,0.156,1.463,0.3l-0.239,0.815c-0.252-0.144-0.648-0.275-1.224-0.275c-1.331,0-2.051,0.983-2.051,2.194
		c0,1.343,0.863,2.171,2.015,2.171c0.6,0,0.995-0.156,1.295-0.288L347.315,100.462z"/>
	<path d="M353.735,97.728c0,2.146-1.487,3.082-2.891,3.082c-1.571,0-2.782-1.151-2.782-2.986c0-1.943,1.271-3.082,2.878-3.082
		C352.607,94.741,353.735,95.952,353.735,97.728z M349.13,97.787c0,1.271,0.731,2.231,1.763,2.231c1.008,0,1.763-0.947,1.763-2.255
		c0-0.983-0.491-2.23-1.738-2.23C349.669,95.533,349.13,96.684,349.13,97.787z"/>
	<path d="M355.07,96.444c0-0.6-0.013-1.091-0.049-1.571h0.936l0.061,0.959h0.023c0.288-0.552,0.96-1.091,1.919-1.091
		c0.804,0,2.051,0.479,2.051,2.47v3.466h-1.055v-3.346c0-0.936-0.349-1.715-1.344-1.715c-0.695,0-1.235,0.492-1.415,1.079
		c-0.048,0.132-0.072,0.312-0.072,0.492v3.49h-1.055V96.444z"/>
	<path d="M365.544,93.206v1.667h1.512v0.803h-1.512v3.13c0,0.72,0.204,1.127,0.792,1.127c0.275,0,0.479-0.036,0.611-0.072
		l0.048,0.792c-0.203,0.084-0.527,0.144-0.936,0.144c-0.491,0-0.887-0.156-1.139-0.444c-0.3-0.312-0.408-0.828-0.408-1.511v-3.167
		h-0.899v-0.803h0.899v-1.392L365.544,93.206z"/>
	<path d="M368.246,96.684c0-0.684-0.013-1.271-0.049-1.811h0.924l0.036,1.139h0.048c0.264-0.779,0.899-1.271,1.607-1.271
		c0.12,0,0.203,0.012,0.3,0.036v0.996c-0.108-0.024-0.216-0.036-0.36-0.036c-0.743,0-1.271,0.564-1.415,1.355
		c-0.023,0.144-0.048,0.312-0.048,0.492v3.094h-1.043V96.684z"/>
	<path d="M373.393,93.242c0.012,0.36-0.252,0.648-0.672,0.648c-0.371,0-0.636-0.288-0.636-0.648c0-0.372,0.276-0.66,0.66-0.66
		C373.141,92.582,373.393,92.87,373.393,93.242z M372.218,100.678v-5.805h1.055v5.805H372.218z"/>
	<path d="M379.163,100.462c-0.276,0.144-0.888,0.336-1.668,0.336c-1.751,0-2.89-1.188-2.89-2.962c0-1.787,1.223-3.083,3.118-3.083
		c0.623,0,1.175,0.156,1.463,0.3l-0.239,0.815c-0.252-0.144-0.648-0.275-1.224-0.275c-1.331,0-2.051,0.983-2.051,2.194
		c0,1.343,0.863,2.171,2.015,2.171c0.6,0,0.995-0.156,1.295-0.288L379.163,100.462z"/>
	<path d="M385.583,97.728c0,2.146-1.487,3.082-2.891,3.082c-1.571,0-2.782-1.151-2.782-2.986c0-1.943,1.271-3.082,2.878-3.082
		C384.455,94.741,385.583,95.952,385.583,97.728z M380.978,97.787c0,1.271,0.731,2.231,1.763,2.231c1.008,0,1.763-0.947,1.763-2.255
		c0-0.983-0.491-2.23-1.738-2.23C381.517,95.533,380.978,96.684,380.978,97.787z"/>
	<path d="M386.918,96.444c0-0.6-0.013-1.091-0.049-1.571h0.924l0.048,0.936h0.036c0.324-0.552,0.863-1.067,1.823-1.067
		c0.791,0,1.391,0.479,1.643,1.163h0.024c0.18-0.324,0.407-0.576,0.647-0.755c0.348-0.264,0.731-0.408,1.283-0.408
		c0.768,0,1.907,0.503,1.907,2.519v3.418h-1.031v-3.286c0-1.115-0.408-1.787-1.26-1.787c-0.6,0-1.067,0.444-1.247,0.959
		c-0.048,0.144-0.084,0.336-0.084,0.528v3.586h-1.031V97.2c0-0.923-0.408-1.595-1.212-1.595c-0.659,0-1.139,0.528-1.307,1.056
		c-0.061,0.156-0.084,0.335-0.084,0.516v3.502h-1.031V96.444z"/>
	<path d="M400.14,100.678l-0.084-0.731h-0.036c-0.324,0.456-0.947,0.863-1.775,0.863c-1.175,0-1.774-0.828-1.774-1.667
		c0-1.403,1.247-2.171,3.49-2.159v-0.12c0-0.479-0.132-1.343-1.319-1.343c-0.54,0-1.104,0.168-1.512,0.432l-0.239-0.695
		c0.479-0.312,1.175-0.516,1.906-0.516c1.775,0,2.207,1.211,2.207,2.375v2.171c0,0.503,0.024,0.995,0.096,1.391H400.14z
		 M399.983,97.716c-1.151-0.024-2.458,0.18-2.458,1.307c0,0.684,0.455,1.008,0.995,1.008c0.756,0,1.235-0.48,1.403-0.972
		c0.036-0.108,0.06-0.228,0.06-0.336V97.716z"/>
	<path d="M402.565,99.598c0.312,0.204,0.863,0.42,1.392,0.42c0.768,0,1.127-0.384,1.127-0.863c0-0.504-0.3-0.78-1.079-1.068
		c-1.044-0.372-1.535-0.947-1.535-1.643c0-0.935,0.756-1.703,2.003-1.703c0.588,0,1.104,0.167,1.427,0.359l-0.264,0.768
		c-0.228-0.144-0.647-0.335-1.188-0.335c-0.623,0-0.971,0.36-0.971,0.792c0,0.479,0.348,0.695,1.103,0.983
		c1.008,0.384,1.523,0.888,1.523,1.751c0,1.02-0.791,1.739-2.171,1.739c-0.636,0-1.223-0.156-1.631-0.396L402.565,99.598z"/>
</g>
</svg>
