<?xml version="1.0" encoding="utf-8"?>
<!-- Generator: Adobe Illustrator 16.0.0, SVG Export Plug-In . SVG Version: 6.00 Build 0)  -->
<!DOCTYPE svg PUBLIC "-//W3C//DTD SVG 1.1//EN" "http://www.w3.org/Graphics/SVG/1.1/DTD/svg11.dtd" [
	<!ENTITY ns_extend "http://ns.adobe.com/Extensibility/1.0/">
	<!ENTITY ns_ai "http://ns.adobe.com/AdobeIllustrator/10.0/">
	<!ENTITY ns_graphs "http://ns.adobe.com/Graphs/1.0/">
	<!ENTITY ns_vars "http://ns.adobe.com/Variables/1.0/">
	<!ENTITY ns_imrep "http://ns.adobe.com/ImageReplacement/1.0/">
	<!ENTITY ns_sfw "http://ns.adobe.com/SaveForWeb/1.0/">
	<!ENTITY ns_custom "http://ns.adobe.com/GenericCustomNamespace/1.0/">
	<!ENTITY ns_adobe_xpath "http://ns.adobe.com/XPath/1.0/">
]>
<svg version="1.1" id="Layer_1" xmlns:x="&ns_extend;" xmlns:i="&ns_ai;" xmlns:graph="&ns_graphs;"
	 xmlns="http://www.w3.org/2000/svg" xmlns:xlink="http://www.w3.org/1999/xlink" x="0px" y="0px" width="892px" height="294px"
	 viewBox="-54 -11.007 892 294" enable-background="new -54 -11.007 892 294" xml:space="preserve">
<metadata>
	<sfw  xmlns="&ns_sfw;">
		<slices></slices>
		<sliceSourceBounds  y="305.227" x="63.748" height="253.743" width="854.318" bottomLeftOrigin="true"></sliceSourceBounds>
	</sfw>
</metadata>
<g>
	<polygon fill="#FFCC66" stroke="#CC6600" stroke-miterlimit="10" points="-31.752,4.523 350.581,4.523 350.581,84.189 
		142.071,176.418 -31.752,84.189 	"/>
	<polygon fill="#FFFF99" stroke="#FFFF00" stroke-miterlimit="10" points="227.915,13.309 343.607,13.309 343.607,75.189 
		212.968,119.085 227.915,75.189 	"/>
	<polygon fill="#FFFF99" stroke="#FFFF00" stroke-miterlimit="10" points="-23.918,13.136 200.915,13.136 200.915,75.189 
		82,123.993 -23.918,75.189 	"/>
	<polygon fill="#FFFFCC" stroke="#CCCC33" stroke-miterlimit="10" points="239.915,20.154 332.429,20.154 332.429,65.224 
		257.543,80.891 239.915,65.224 	"/>
	<polygon fill="#FFFFCC" stroke="#CCCC33" stroke-miterlimit="10" points="92.915,20.511 190.915,20.511 190.915,65.582 
		101.923,76.673 92.915,65.582 	"/>
	<polygon fill="#FFFFCC" stroke="#CCCC33" stroke-miterlimit="10" points="-16.984,20.154 70.813,20.154 70.813,65.224 
		24.947,76.673 -16.984,65.224 	"/>
</g>
<line fill="none" stroke="#000000" stroke-width="4" stroke-miterlimit="10" x1="142.071" y1="256.418" x2="142.071" y2="171.418"/>
<line fill="none" stroke="#000000" stroke-width="4" stroke-miterlimit="10" x1="142.071" y1="171.418" x2="300.571" y2="51.918"/>
<polyline stroke="#000000" stroke-width="4" stroke-miterlimit="10" points="142.071,171.418 61.705,107.169 -0.929,55.418 "/>
<line fill="none" stroke="#000000" stroke-width="4" stroke-miterlimit="10" x1="61.705" y1="107.169" x2="134.571" y2="51.918"/>
<g enable-background="new    ">
	<path d="M115.339,87.489c0.468,0.288,1.15,0.527,1.871,0.527c1.066,0,1.69-0.563,1.69-1.38c0-0.756-0.432-1.188-1.522-1.605
		c-1.319-0.469-2.136-1.151-2.136-2.291c0-1.261,1.043-2.195,2.614-2.195c0.828,0,1.427,0.192,1.787,0.396l-0.288,0.853
		c-0.264-0.146-0.803-0.384-1.535-0.384c-1.103,0-1.522,0.658-1.522,1.211c0,0.756,0.492,1.127,1.606,1.56
		c1.367,0.527,2.063,1.188,2.063,2.374c0,1.248-0.923,2.327-2.831,2.327c-0.779,0-1.631-0.229-2.063-0.516L115.339,87.489z"/>
	<path d="M122.022,86.05c0.024,1.428,0.937,2.016,1.991,2.016c0.755,0,1.211-0.132,1.606-0.3l0.181,0.755
		c-0.372,0.168-1.007,0.36-1.932,0.36c-1.786,0-2.854-1.176-2.854-2.927s1.032-3.13,2.723-3.13c1.896,0,2.399,1.667,2.399,2.733
		c0,0.216-0.024,0.384-0.036,0.491L122.022,86.05L122.022,86.05z M125.115,85.295c0.013-0.672-0.275-1.716-1.463-1.716
		c-1.066,0-1.535,0.983-1.619,1.716H125.115z"/>
	<path d="M127.446,84.527c0-0.601-0.012-1.093-0.048-1.571h0.923l0.048,0.936h0.036c0.324-0.552,0.864-1.066,1.823-1.066
		c0.792,0,1.391,0.479,1.643,1.163h0.024c0.18-0.324,0.408-0.575,0.647-0.757c0.348-0.264,0.73-0.406,1.282-0.406
		c0.769,0,1.907,0.504,1.907,2.519v3.418h-1.032v-3.287c0-1.115-0.407-1.787-1.259-1.787c-0.6,0-1.066,0.443-1.247,0.96
		c-0.048,0.145-0.084,0.335-0.084,0.527v3.586h-1.031v-3.479c0-0.924-0.407-1.596-1.211-1.596c-0.659,0-1.14,0.527-1.308,1.057
		c-0.06,0.154-0.084,0.336-0.084,0.516v3.502h-1.031L127.446,84.527L127.446,84.527z"/>
	<path d="M138.63,81.325c0.012,0.358-0.252,0.646-0.671,0.646c-0.372,0-0.637-0.288-0.637-0.646c0-0.372,0.276-0.66,0.66-0.66
		C138.378,80.665,138.63,80.953,138.63,81.325z M137.453,88.76v-5.805h1.057v5.805H137.453z"/>
	<path d="M140.262,80.245h1.056v8.516h-1.056V80.245z"/>
	<path d="M143.094,80.245h1.056v8.516h-1.056V80.245z"/>
	<path d="M149.14,88.76l-0.084-0.73h-0.036c-0.324,0.456-0.947,0.862-1.775,0.862c-1.175,0-1.774-0.827-1.774-1.667
		c0-1.402,1.247-2.171,3.49-2.159v-0.118c0-0.48-0.133-1.345-1.319-1.345c-0.54,0-1.104,0.168-1.511,0.433l-0.24-0.695
		c0.479-0.312,1.175-0.516,1.907-0.516c1.774,0,2.207,1.211,2.207,2.374v2.171c0,0.504,0.023,0.996,0.096,1.392L149.14,88.76
		L149.14,88.76z M148.984,85.799c-1.15-0.024-2.458,0.18-2.458,1.307c0,0.685,0.456,1.009,0.996,1.009
		c0.755,0,1.235-0.479,1.403-0.973c0.036-0.106,0.06-0.228,0.06-0.336L148.984,85.799L148.984,85.799z"/>
</g>
<g enable-background="new    ">
	<path d="M115.446,103.323c0-0.685-0.012-1.271-0.048-1.812h0.923l0.036,1.141h0.048c0.265-0.78,0.899-1.271,1.607-1.271
		c0.12,0,0.204,0.012,0.3,0.036v0.995c-0.108-0.024-0.216-0.036-0.36-0.036c-0.743,0-1.271,0.563-1.416,1.354
		c-0.023,0.145-0.048,0.313-0.048,0.491v3.095h-1.043L115.446,103.323L115.446,103.323z"/>
	<path d="M124.228,105.733c0,0.601,0.012,1.128,0.048,1.583h-0.936l-0.061-0.946h-0.023c-0.276,0.468-0.888,1.079-1.919,1.079
		c-0.911,0-2.003-0.504-2.003-2.543v-3.395h1.056v3.214c0,1.104,0.336,1.849,1.295,1.849c0.708,0,1.199-0.492,1.391-0.96
		c0.061-0.156,0.097-0.349,0.097-0.54v-3.563h1.056V105.733L124.228,105.733z"/>
	<path d="M130.984,101.512c-0.023,0.42-0.048,0.888-0.048,1.595v3.37c0,1.332-0.264,2.147-0.827,2.65
		c-0.563,0.528-1.379,0.696-2.11,0.696c-0.696,0-1.464-0.168-1.932-0.479l0.265-0.804c0.384,0.239,0.983,0.455,1.702,0.455
		c1.08,0,1.871-0.563,1.871-2.026v-0.646h-0.023c-0.324,0.539-0.948,0.971-1.848,0.971c-1.438,0-2.471-1.223-2.471-2.83
		c0-1.967,1.284-3.082,2.615-3.082c1.007,0,1.559,0.527,1.811,1.007h0.024l0.048-0.875L130.984,101.512L130.984,101.512z
		 M129.892,103.803c0-0.181-0.012-0.336-0.06-0.479c-0.192-0.611-0.708-1.115-1.477-1.115c-1.007,0-1.727,0.852-1.727,2.195
		c0,1.139,0.576,2.087,1.715,2.087c0.646,0,1.234-0.408,1.463-1.08c0.06-0.181,0.084-0.385,0.084-0.563L129.892,103.803
		L129.892,103.803z"/>
	<path d="M137.943,104.367c0,2.146-1.486,3.082-2.89,3.082c-1.571,0-2.783-1.151-2.783-2.986c0-1.942,1.271-3.082,2.878-3.082
		C136.816,101.381,137.943,102.592,137.943,104.367z M133.338,104.427c0,1.271,0.731,2.231,1.763,2.231
		c1.007,0,1.763-0.948,1.763-2.255c0-0.983-0.491-2.231-1.738-2.231S133.338,103.323,133.338,104.427z"/>
	<path d="M139.134,106.238c0.312,0.202,0.864,0.42,1.392,0.42c0.769,0,1.127-0.385,1.127-0.864c0-0.504-0.3-0.779-1.079-1.067
		c-1.043-0.371-1.534-0.946-1.534-1.643c0-0.937,0.755-1.703,2.003-1.703c0.587,0,1.103,0.168,1.427,0.359l-0.264,0.768
		c-0.229-0.144-0.647-0.336-1.188-0.336c-0.624,0-0.972,0.36-0.972,0.792c0,0.479,0.348,0.695,1.104,0.983
		c1.007,0.384,1.523,0.888,1.523,1.751c0,1.02-0.792,1.738-2.171,1.738c-0.636,0-1.224-0.155-1.632-0.396L139.134,106.238z"/>
	<path d="M147.243,107.316l-0.084-0.73h-0.035c-0.324,0.456-0.947,0.863-1.775,0.863c-1.175,0-1.775-0.827-1.775-1.667
		c0-1.403,1.247-2.171,3.49-2.159v-0.119c0-0.48-0.132-1.344-1.319-1.344c-0.539,0-1.103,0.168-1.511,0.432l-0.24-0.695
		c0.48-0.312,1.177-0.516,1.907-0.516c1.775,0,2.207,1.211,2.207,2.374v2.171c0,0.504,0.024,0.996,0.096,1.392L147.243,107.316
		L147.243,107.316z M147.089,104.355c-1.151-0.023-2.459,0.181-2.459,1.308c0,0.684,0.456,1.008,0.996,1.008
		c0.755,0,1.234-0.479,1.402-0.972c0.036-0.107,0.061-0.229,0.061-0.336V104.355z"/>
</g>
<g enable-background="new    ">
	<path d="M-9.517,81.634h4.354v0.876h-3.311v2.688h3.059v0.862h-3.059v3.658h-1.044V81.634z"/>
	<path d="M-4.021,85.723c0-0.684-0.012-1.271-0.048-1.811h0.923l0.036,1.14h0.048c0.264-0.78,0.899-1.271,1.607-1.271
		c0.12,0,0.204,0.012,0.3,0.035v0.995c-0.108-0.023-0.216-0.035-0.36-0.035c-0.744,0-1.271,0.563-1.416,1.354
		c-0.023,0.144-0.048,0.313-0.048,0.491v3.095h-1.043L-4.021,85.723L-4.021,85.723z"/>
	<path d="M4.76,88.135c0,0.6,0.012,1.127,0.048,1.583H3.872L3.812,88.77H3.788c-0.276,0.469-0.888,1.079-1.92,1.079
		c-0.91,0-2.003-0.504-2.003-2.543v-3.394h1.057v3.214c0,1.104,0.336,1.848,1.295,1.848c0.708,0,1.199-0.492,1.391-0.96
		c0.061-0.156,0.096-0.348,0.096-0.54v-3.562H4.76V88.135z"/>
	<path d="M7.785,82.247v1.667h1.512v0.804H7.785v3.13c0,0.72,0.204,1.128,0.792,1.128c0.276,0,0.479-0.036,0.612-0.071l0.048,0.791
		C9.033,89.779,8.71,89.84,8.302,89.84c-0.492,0-0.888-0.156-1.141-0.444c-0.3-0.312-0.407-0.826-0.407-1.511v-3.166H5.855v-0.804
		h0.899v-1.393L7.785,82.247z"/>
	<path d="M15.667,86.767c0,2.146-1.487,3.082-2.891,3.082c-1.57,0-2.783-1.15-2.783-2.985c0-1.942,1.271-3.082,2.879-3.082
		C14.54,83.782,15.667,84.993,15.667,86.767z M11.062,86.828c0,1.271,0.732,2.23,1.763,2.23c1.008,0,1.764-0.947,1.764-2.255
		c0-0.982-0.492-2.23-1.739-2.23S11.062,85.723,11.062,86.828z"/>
</g>
<g enable-background="new    ">
	<path d="M-5.416,103.902c-0.276,0.144-0.888,0.336-1.667,0.336c-1.751,0-2.892-1.188-2.892-2.964c0-1.786,1.225-3.082,3.119-3.082
		c0.624,0,1.175,0.156,1.463,0.301l-0.24,0.814c-0.252-0.144-0.646-0.274-1.223-0.274c-1.332,0-2.051,0.982-2.051,2.193
		c0,1.345,0.864,2.171,2.015,2.171c0.601,0,0.996-0.155,1.295-0.288L-5.416,103.902z"/>
	<path d="M-0.964,104.118l-0.084-0.731h-0.035c-0.324,0.456-0.947,0.863-1.775,0.863c-1.175,0-1.775-0.827-1.775-1.667
		c0-1.403,1.247-2.171,3.49-2.159v-0.119c0-0.479-0.132-1.344-1.318-1.344c-0.54,0-1.104,0.168-1.512,0.432l-0.24-0.694
		c0.48-0.313,1.176-0.517,1.907-0.517c1.775,0,2.207,1.211,2.207,2.374v2.171c0,0.504,0.024,0.996,0.097,1.393L-0.964,104.118
		L-0.964,104.118z M-1.119,101.156c-1.151-0.024-2.458,0.18-2.458,1.307c0,0.684,0.456,1.008,0.996,1.008
		c0.755,0,1.234-0.479,1.402-0.972c0.036-0.107,0.061-0.229,0.061-0.336L-1.119,101.156L-1.119,101.156z"/>
	<path d="M1.607,100.124c0-0.685-0.012-1.271-0.048-1.812h0.923l0.036,1.141h0.048c0.265-0.78,0.899-1.271,1.607-1.271
		c0.12,0,0.204,0.013,0.3,0.036v0.995c-0.108-0.024-0.216-0.036-0.36-0.036c-0.744,0-1.271,0.563-1.416,1.355
		c-0.023,0.144-0.048,0.312-0.048,0.49v3.096H1.606L1.607,100.124L1.607,100.124z"/>
	<path d="M5.577,99.884c0-0.6-0.012-1.092-0.048-1.571h0.937l0.06,0.959H6.55c0.288-0.552,0.959-1.091,1.919-1.091
		c0.803,0,2.051,0.479,2.051,2.472v3.466H9.464v-3.347c0-0.936-0.349-1.716-1.344-1.716c-0.694,0-1.234,0.492-1.414,1.08
		c-0.049,0.132-0.072,0.313-0.072,0.491v3.49H5.577V99.884z"/>
	<path d="M17.49,101.168c0,2.146-1.486,3.082-2.89,3.082c-1.571,0-2.783-1.151-2.783-2.986c0-1.941,1.271-3.082,2.878-3.082
		C16.364,98.18,17.49,99.391,17.49,101.168z M12.886,101.226c0,1.271,0.731,2.231,1.763,2.231c1.007,0,1.763-0.948,1.763-2.255
		c0-0.983-0.491-2.231-1.738-2.231S12.886,100.124,12.886,101.226z"/>
	<path d="M18.682,103.039c0.312,0.203,0.864,0.42,1.392,0.42c0.769,0,1.127-0.384,1.127-0.864c0-0.504-0.3-0.779-1.078-1.066
		c-1.044-0.371-1.535-0.947-1.535-1.644c0-0.936,0.755-1.703,2.003-1.703c0.587,0,1.104,0.168,1.427,0.359l-0.264,0.768
		c-0.229-0.144-0.647-0.336-1.188-0.336c-0.624,0-0.972,0.36-0.972,0.792c0,0.479,0.348,0.695,1.104,0.983
		c1.008,0.384,1.523,0.888,1.523,1.751c0,1.02-0.792,1.739-2.171,1.739c-0.635,0-1.224-0.156-1.631-0.396L18.682,103.039z"/>
	<path d="M28.831,101.168c0,2.146-1.487,3.082-2.891,3.082c-1.571,0-2.783-1.151-2.783-2.986c0-1.941,1.271-3.082,2.878-3.082
		C27.703,98.18,28.831,99.391,28.831,101.168z M24.226,101.226c0,1.271,0.732,2.231,1.763,2.231c1.007,0,1.764-0.948,1.764-2.255
		c0-0.983-0.492-2.231-1.739-2.231S24.226,100.124,24.226,101.226z"/>
</g>
<g enable-background="new    ">
	<path d="M17.768,136.062h-2.459v-0.888h5.985v0.888h-2.472v7.196h-1.055V136.062z"/>
	<path d="M24.607,143.259l-0.084-0.73h-0.036c-0.323,0.455-0.946,0.862-1.774,0.862c-1.176,0-1.775-0.827-1.775-1.667
		c0-1.402,1.247-2.171,3.49-2.159v-0.118c0-0.48-0.132-1.345-1.319-1.345c-0.54,0-1.103,0.168-1.511,0.433l-0.24-0.695
		c0.48-0.312,1.176-0.516,1.907-0.516c1.775,0,2.207,1.211,2.207,2.374v2.171c0,0.504,0.023,0.996,0.096,1.392L24.607,143.259
		L24.607,143.259z M24.45,140.297c-1.15-0.024-2.459,0.18-2.459,1.307c0,0.685,0.456,1.009,0.996,1.009
		c0.755,0,1.235-0.479,1.403-0.973c0.036-0.106,0.06-0.228,0.06-0.336V140.297z"/>
	<path d="M27.176,134.743h1.056v8.516h-1.056V134.743z"/>
	<path d="M30.008,134.743h1.056v8.516h-1.056V134.743z"/>
	<path d="M38.093,140.308c0,2.146-1.487,3.082-2.891,3.082c-1.57,0-2.782-1.15-2.782-2.985c0-1.942,1.271-3.082,2.878-3.082
		C36.966,137.322,38.093,138.533,38.093,140.308z M33.487,140.368c0,1.271,0.732,2.23,1.764,2.23c1.007,0,1.763-0.948,1.763-2.255
		c0-0.982-0.492-2.23-1.739-2.23S33.487,139.264,33.487,140.368z"/>
	<path d="M41.972,134.743h1.056v8.516h-1.056V134.743z"/>
	<path d="M45.392,140.548c0.024,1.428,0.935,2.016,1.991,2.016c0.755,0,1.211-0.132,1.606-0.3l0.181,0.755
		c-0.372,0.168-1.007,0.36-1.932,0.36c-1.787,0-2.854-1.176-2.854-2.927s1.032-3.13,2.723-3.13c1.896,0,2.399,1.667,2.399,2.733
		c0,0.216-0.024,0.384-0.036,0.491L45.392,140.548L45.392,140.548z M48.486,139.793c0.013-0.672-0.275-1.716-1.463-1.716
		c-1.066,0-1.535,0.983-1.619,1.716H48.486z"/>
	<path d="M50.816,139.024c0-0.6-0.012-1.092-0.048-1.57h0.936l0.061,0.959h0.024c0.287-0.552,0.959-1.091,1.919-1.091
		c0.803,0,2.051,0.479,2.051,2.471v3.466h-1.057v-3.346c0-0.937-0.348-1.716-1.343-1.716c-0.694,0-1.234,0.491-1.415,1.079
		c-0.048,0.133-0.071,0.313-0.071,0.491v3.49h-1.057V139.024z M51.799,136.459c-0.024-0.78,0.3-1.248,0.814-1.248
		c0.265,0,0.469,0.108,0.744,0.264c0.192,0.108,0.36,0.204,0.504,0.204c0.192,0,0.313-0.106,0.336-0.516h0.563
		c0.012,0.804-0.264,1.212-0.828,1.212c-0.251,0-0.479-0.108-0.731-0.24c-0.239-0.144-0.371-0.216-0.516-0.216
		c-0.192,0-0.288,0.204-0.312,0.54H51.799z"/>
	<path d="M62.729,140.308c0,2.146-1.487,3.082-2.89,3.082c-1.571,0-2.783-1.15-2.783-2.985c0-1.942,1.271-3.082,2.878-3.082
		C61.602,137.322,62.729,138.533,62.729,140.308z M58.123,140.368c0,1.271,0.731,2.23,1.763,2.23c1.007,0,1.763-0.948,1.763-2.255
		c0-0.982-0.492-2.23-1.739-2.23C58.663,138.113,58.123,139.264,58.123,140.368z"/>
	<path d="M63.92,142.179c0.312,0.203,0.863,0.42,1.392,0.42c0.769,0,1.127-0.384,1.127-0.863c0-0.505-0.3-0.779-1.079-1.067
		c-1.043-0.371-1.535-0.947-1.535-1.644c0-0.936,0.756-1.702,2.003-1.702c0.588,0,1.104,0.168,1.428,0.358l-0.265,0.769
		c-0.228-0.145-0.646-0.336-1.187-0.336c-0.624,0-0.972,0.359-0.972,0.792c0,0.479,0.348,0.694,1.104,0.982
		c1.007,0.384,1.523,0.888,1.523,1.751c0,1.021-0.792,1.739-2.171,1.739c-0.636,0-1.224-0.156-1.632-0.396L63.92,142.179z"/>
	<path d="M74.069,140.308c0,2.146-1.486,3.082-2.89,3.082c-1.571,0-2.783-1.15-2.783-2.985c0-1.942,1.271-3.082,2.878-3.082
		C72.942,137.322,74.069,138.533,74.069,140.308z M69.463,140.368c0,1.271,0.731,2.23,1.763,2.23c1.007,0,1.763-0.948,1.763-2.255
		c0-0.982-0.491-2.23-1.738-2.23S69.463,139.264,69.463,140.368z"/>
</g>
<g enable-background="new    ">
	<path d="M224.816,127.44c0.504-0.084,1.163-0.155,2.003-0.155c1.031,0,1.786,0.239,2.268,0.672
		c0.442,0.384,0.707,0.972,0.707,1.689c0,0.732-0.216,1.309-0.623,1.729c-0.553,0.588-1.451,0.888-2.472,0.888
		c-0.313,0-0.6-0.013-0.84-0.072v3.238h-1.043V127.44z M225.859,131.338c0.229,0.061,0.517,0.084,0.863,0.084
		c1.26,0,2.027-0.611,2.027-1.727c0-1.067-0.757-1.584-1.906-1.584c-0.457,0-0.805,0.035-0.984,0.084V131.338z"/>
	<path d="M231.45,132.717c0.024,1.428,0.936,2.016,1.991,2.016c0.755,0,1.211-0.132,1.606-0.3l0.181,0.755
		c-0.373,0.168-1.008,0.36-1.932,0.36c-1.787,0-2.854-1.176-2.854-2.927s1.032-3.13,2.724-3.13c1.896,0,2.398,1.667,2.398,2.733
		c0,0.216-0.024,0.384-0.037,0.491L231.45,132.717L231.45,132.717z M234.546,131.963c0.012-0.672-0.276-1.716-1.464-1.716
		c-1.067,0-1.535,0.983-1.619,1.716H234.546z M234.798,127.117l-1.464,1.715h-0.756l1.056-1.715H234.798z"/>
	<path d="M238.147,127.957v1.667h1.511v0.804h-1.511v3.13c0,0.721,0.204,1.128,0.792,1.128c0.275,0,0.479-0.036,0.611-0.071
		l0.048,0.791c-0.204,0.084-0.528,0.145-0.937,0.145c-0.49,0-0.888-0.156-1.14-0.444c-0.3-0.312-0.408-0.826-0.408-1.511v-3.166
		h-0.897v-0.804h0.897v-1.393L238.147,127.957z"/>
	<path d="M244.062,135.427l-0.084-0.73h-0.036c-0.323,0.456-0.947,0.862-1.773,0.862c-1.177,0-1.775-0.827-1.775-1.667
		c0-1.402,1.247-2.171,3.49-2.159v-0.118c0-0.48-0.133-1.345-1.32-1.345c-0.539,0-1.103,0.168-1.51,0.433l-0.24-0.695
		c0.479-0.312,1.176-0.516,1.906-0.516c1.774,0,2.207,1.211,2.207,2.374v2.171c0,0.504,0.022,0.996,0.096,1.392L244.062,135.427
		L244.062,135.427z M243.905,132.466c-1.149-0.024-2.459,0.18-2.459,1.307c0,0.685,0.457,1.009,0.996,1.009
		c0.756,0,1.235-0.479,1.403-0.973c0.036-0.106,0.06-0.228,0.06-0.336V132.466z"/>
	<path d="M246.631,126.913h1.056v8.516h-1.056V126.913z"/>
	<path d="M254.716,132.477c0,2.146-1.486,3.082-2.892,3.082c-1.569,0-2.781-1.15-2.781-2.985c0-1.942,1.271-3.082,2.878-3.082
		C253.589,129.492,254.716,130.703,254.716,132.477z M250.111,132.538c0,1.271,0.732,2.23,1.765,2.23
		c1.007,0,1.763-0.947,1.763-2.255c0-0.982-0.491-2.23-1.739-2.23S250.111,131.433,250.111,132.538z"/>
	<path d="M255.906,134.348c0.313,0.203,0.863,0.42,1.392,0.42c0.768,0,1.127-0.384,1.127-0.863c0-0.505-0.3-0.779-1.078-1.067
		c-1.044-0.371-1.535-0.947-1.535-1.643c0-0.937,0.755-1.703,2.002-1.703c0.588,0,1.104,0.168,1.428,0.358l-0.264,0.769
		c-0.229-0.145-0.648-0.336-1.188-0.336c-0.624,0-0.972,0.359-0.972,0.792c0,0.479,0.348,0.694,1.104,0.982
		c1.007,0.384,1.521,0.889,1.521,1.751c0,1.021-0.791,1.739-2.17,1.739c-0.636,0-1.224-0.156-1.631-0.396L255.906,134.348z"/>
	<path d="M263.347,131.433c0-0.684-0.013-1.271-0.048-1.811h0.923l0.037,1.14h0.047c0.264-0.78,0.899-1.271,1.606-1.271
		c0.12,0,0.204,0.012,0.301,0.036v0.994c-0.108-0.023-0.217-0.035-0.359-0.035c-0.743,0-1.271,0.563-1.415,1.354
		c-0.024,0.145-0.049,0.313-0.049,0.491v3.095h-1.043V131.433L263.347,131.433z"/>
	<path d="M272.403,132.477c0,2.146-1.486,3.082-2.89,3.082c-1.571,0-2.782-1.15-2.782-2.985c0-1.942,1.271-3.082,2.878-3.082
		C271.277,129.492,272.403,130.703,272.403,132.477z M267.798,132.538c0,1.271,0.731,2.23,1.764,2.23
		c1.008,0,1.764-0.947,1.764-2.255c0-0.982-0.492-2.23-1.74-2.23C268.338,130.283,267.798,131.433,267.798,132.538z"/>
	<path d="M272.323,137.106c0.48-0.034,0.9-0.168,1.152-0.442c0.287-0.336,0.395-0.792,0.395-2.184v-4.856h1.058v5.265
		c0,1.128-0.182,1.859-0.696,2.387c-0.468,0.469-1.235,0.66-1.799,0.66L272.323,137.106z M275.045,127.993
		c0.013,0.348-0.239,0.646-0.659,0.646c-0.396,0-0.646-0.3-0.646-0.646c0-0.372,0.275-0.66,0.672-0.66
		C274.793,127.333,275.045,127.621,275.045,127.993z"/>
	<path d="M281.906,132.477c0,2.146-1.486,3.082-2.89,3.082c-1.571,0-2.782-1.15-2.782-2.985c0-1.942,1.271-3.082,2.878-3.082
		C280.78,129.492,281.906,130.703,281.906,132.477z M277.302,132.538c0,1.271,0.731,2.23,1.764,2.23
		c1.008,0,1.764-0.947,1.764-2.255c0-0.982-0.492-2.23-1.739-2.23S277.302,131.433,277.302,132.538z"/>
	<path d="M283.099,134.348c0.313,0.203,0.862,0.42,1.392,0.42c0.769,0,1.127-0.384,1.127-0.863c0-0.505-0.3-0.779-1.079-1.067
		c-1.043-0.371-1.535-0.947-1.535-1.643c0-0.937,0.757-1.703,2.004-1.703c0.587,0,1.103,0.168,1.427,0.358l-0.265,0.769
		c-0.228-0.145-0.646-0.336-1.188-0.336c-0.623,0-0.971,0.359-0.971,0.792c0,0.479,0.348,0.694,1.104,0.982
		c1.007,0.384,1.522,0.889,1.522,1.751c0,1.021-0.792,1.739-2.171,1.739c-0.636,0-1.224-0.156-1.632-0.396L283.099,134.348z"/>
</g>
<g enable-background="new    ">
	<path d="M312.194,47.271c-0.576,0.288-1.729,0.576-3.205,0.576c-3.422,0-5.996-2.16-5.996-6.14c0-3.799,2.574-6.374,6.338-6.374
		c1.513,0,2.468,0.324,2.881,0.54l-0.379,1.278c-0.594-0.287-1.438-0.505-2.447-0.505c-2.846,0-4.735,1.818-4.735,5.007
		c0,2.971,1.711,4.879,4.664,4.879c0.953,0,1.926-0.197,2.557-0.504L312.194,47.271z"/>
</g>
<g enable-background="new    ">
	<path d="M-7.098,43.85l-1.26,3.817h-1.621l4.123-12.136h1.891l4.142,12.136h-1.674l-1.296-3.817H-7.098z M-3.119,42.627
		l-1.188-3.493c-0.271-0.793-0.45-1.513-0.63-2.215h-0.036c-0.18,0.72-0.378,1.458-0.611,2.196l-1.188,3.512H-3.119z"/>
</g>
<g enable-background="new    ">
	<path d="M135.939,35.694c0.686-0.145,1.765-0.253,2.863-0.253c1.565,0,2.575,0.271,3.331,0.883c0.63,0.469,1.008,1.188,1.008,2.143
		c0,1.171-0.774,2.197-2.052,2.665v0.036c1.151,0.288,2.502,1.242,2.502,3.043c0,1.044-0.414,1.837-1.026,2.431
		c-0.846,0.774-2.214,1.136-4.195,1.136c-1.08,0-1.908-0.072-2.431-0.146V35.694L135.939,35.694z M137.506,40.664h1.422
		c1.656,0,2.629-0.864,2.629-2.035c0-1.422-1.081-1.98-2.665-1.98c-0.72,0-1.134,0.056-1.386,0.108V40.664z M137.506,46.479
		c0.306,0.055,0.756,0.072,1.313,0.072c1.621,0,3.115-0.595,3.115-2.357c0-1.657-1.422-2.342-3.133-2.342h-1.296V46.479z"/>
</g>
<rect x="201.978" y="115.085" transform="matrix(0.6846 0.7289 -0.7289 0.6846 153.5829 -116.7734)" fill="#FF0000" width="19.5" height="8"/>
<rect x="74.055" y="121.613" transform="matrix(0.6902 -0.7236 0.7236 0.6902 -64.9336 99.561)" fill="#FF0000" width="19.499" height="8"/>
<rect x="15.197" y="72.673" transform="matrix(0.6902 -0.7236 0.7236 0.6902 -47.7531 41.8047)" fill="#FF0000" width="19.5" height="7.999"/>
<rect x="91.071" y="74.918" transform="matrix(0.6846 0.7289 -0.7289 0.6846 89.3241 -48.5996)" fill="#FF0000" width="19.5" height="8"/>
<ellipse fill="#FF0000" cx="142.071" cy="168.629" rx="7.5" ry="7.789"/>
<g>
	<path d="M163.073,175.52c0.503-0.084,1.163-0.155,2.003-0.155c1.031,0,1.787,0.239,2.268,0.672
		c0.443,0.384,0.708,0.972,0.708,1.689c0,0.732-0.216,1.309-0.624,1.729c-0.552,0.588-1.451,0.888-2.471,0.888
		c-0.313,0-0.601-0.013-0.84-0.072v3.238h-1.044V175.52z M164.115,179.418c0.229,0.061,0.517,0.084,0.863,0.084
		c1.259,0,2.027-0.611,2.027-1.728c0-1.066-0.755-1.584-1.907-1.584c-0.456,0-0.804,0.036-0.983,0.084V179.418z"/>
	<path d="M169.709,180.797c0.023,1.428,0.935,2.016,1.99,2.016c0.756,0,1.211-0.132,1.607-0.3l0.18,0.755
		c-0.372,0.168-1.007,0.36-1.931,0.36c-1.787,0-2.854-1.176-2.854-2.927s1.032-3.13,2.724-3.13c1.895,0,2.398,1.667,2.398,2.733
		c0,0.216-0.023,0.384-0.036,0.491L169.709,180.797L169.709,180.797z M172.803,180.042c0.012-0.672-0.276-1.716-1.463-1.716
		c-1.067,0-1.535,0.983-1.619,1.716H172.803z M173.055,175.196l-1.463,1.715h-0.755l1.055-1.715H173.055z"/>
	<path d="M176.404,176.036v1.667h1.512v0.804h-1.512v3.13c0,0.72,0.204,1.128,0.792,1.128c0.276,0,0.479-0.036,0.611-0.072
		l0.048,0.791c-0.204,0.084-0.528,0.146-0.936,0.146c-0.492,0-0.889-0.156-1.141-0.444c-0.3-0.312-0.408-0.827-0.408-1.511v-3.166
		h-0.897v-0.804h0.899v-1.393L176.404,176.036z"/>
	<path d="M182.319,183.508l-0.084-0.731h-0.036c-0.323,0.456-0.946,0.863-1.774,0.863c-1.175,0-1.775-0.827-1.775-1.667
		c0-1.402,1.247-2.171,3.49-2.159v-0.118c0-0.48-0.132-1.345-1.319-1.345c-0.54,0-1.103,0.168-1.511,0.433l-0.24-0.695
		c0.48-0.313,1.176-0.516,1.907-0.516c1.775,0,2.207,1.211,2.207,2.374v2.171c0,0.504,0.023,0.996,0.096,1.392L182.319,183.508
		L182.319,183.508z M182.163,180.546c-1.151-0.024-2.46,0.18-2.46,1.307c0,0.685,0.456,1.009,0.996,1.009
		c0.756,0,1.235-0.479,1.403-0.973c0.036-0.106,0.061-0.228,0.061-0.336V180.546z"/>
	<path d="M184.889,174.992h1.055v8.516h-1.055V174.992z"/>
	<path d="M192.974,180.557c0,2.146-1.487,3.082-2.891,3.082c-1.571,0-2.782-1.15-2.782-2.985c0-1.942,1.271-3.082,2.878-3.082
		C191.846,177.571,192.974,178.782,192.974,180.557z M188.367,180.617c0,1.271,0.731,2.23,1.764,2.23
		c1.008,0,1.763-0.948,1.763-2.255c0-0.983-0.491-2.23-1.738-2.23C188.906,178.362,188.367,179.513,188.367,180.617z"/>
	<path d="M194.164,182.428c0.312,0.203,0.862,0.42,1.392,0.42c0.768,0,1.127-0.384,1.127-0.864c0-0.504-0.3-0.778-1.079-1.066
		c-1.044-0.371-1.535-0.947-1.535-1.644c0-0.936,0.756-1.702,2.003-1.702c0.588,0,1.104,0.168,1.428,0.358l-0.265,0.769
		c-0.228-0.145-0.646-0.336-1.188-0.336c-0.623,0-0.972,0.359-0.972,0.792c0,0.479,0.349,0.694,1.104,0.982
		c1.008,0.384,1.522,0.888,1.522,1.751c0,1.021-0.791,1.739-2.171,1.739c-0.636,0-1.223-0.156-1.631-0.396L194.164,182.428z"/>
	<path d="M201.556,183.508c0.024-0.396,0.049-0.983,0.049-1.499v-7.017h1.043v3.646h0.024c0.371-0.646,1.043-1.066,1.979-1.066
		c1.439,0,2.459,1.198,2.446,2.962c0,2.074-1.307,3.105-2.604,3.105c-0.839,0-1.511-0.323-1.941-1.091h-0.036l-0.048,0.959
		L201.556,183.508L201.556,183.508z M202.648,181.18c0,0.133,0.024,0.266,0.048,0.384c0.204,0.732,0.815,1.235,1.583,1.235
		c1.104,0,1.765-0.899,1.765-2.229c0-1.163-0.601-2.159-1.729-2.159c-0.72,0-1.392,0.492-1.606,1.296
		c-0.023,0.12-0.061,0.264-0.061,0.432V181.18L202.648,181.18z"/>
	<path d="M208.433,174.992h1.055v8.516h-1.055V174.992z"/>
	<path d="M214.479,183.508l-0.084-0.731h-0.036c-0.324,0.456-0.947,0.863-1.774,0.863c-1.176,0-1.774-0.827-1.774-1.667
		c0-1.402,1.247-2.171,3.49-2.159v-0.118c0-0.48-0.132-1.345-1.319-1.345c-0.54,0-1.104,0.168-1.512,0.433l-0.239-0.695
		c0.479-0.313,1.175-0.516,1.906-0.516c1.774,0,2.207,1.211,2.207,2.374v2.171c0,0.504,0.023,0.996,0.096,1.392L214.479,183.508
		L214.479,183.508z M214.322,180.546c-1.15-0.024-2.458,0.18-2.458,1.307c0,0.685,0.455,1.009,0.995,1.009
		c0.756,0,1.235-0.479,1.403-0.973c0.036-0.106,0.06-0.228,0.06-0.336V180.546z"/>
	<path d="M217.048,179.274c0-0.6-0.014-1.092-0.049-1.57h0.936l0.061,0.959h0.023c0.288-0.552,0.96-1.091,1.919-1.091
		c0.804,0,2.051,0.479,2.051,2.471v3.466h-1.055v-3.346c0-0.937-0.349-1.716-1.344-1.716c-0.695,0-1.235,0.491-1.415,1.079
		c-0.048,0.133-0.072,0.313-0.072,0.491v3.49h-1.055V179.274L217.048,179.274z"/>
	<path d="M227.846,183.292c-0.276,0.144-0.888,0.336-1.668,0.336c-1.751,0-2.891-1.188-2.891-2.963c0-1.787,1.224-3.082,3.118-3.082
		c0.623,0,1.176,0.156,1.463,0.3l-0.238,0.815c-0.252-0.145-0.648-0.275-1.225-0.275c-1.331,0-2.051,0.983-2.051,2.194
		c0,1.344,0.863,2.171,2.015,2.171c0.601,0,0.995-0.156,1.296-0.288L227.846,183.292z"/>
	<path d="M234.265,180.557c0,2.146-1.487,3.082-2.891,3.082c-1.571,0-2.782-1.15-2.782-2.985c0-1.942,1.271-3.082,2.878-3.082
		C233.137,177.571,234.265,178.782,234.265,180.557z M229.658,180.617c0,1.271,0.731,2.23,1.764,2.23
		c1.008,0,1.763-0.948,1.763-2.255c0-0.983-0.491-2.23-1.738-2.23C230.198,178.362,229.658,179.513,229.658,180.617z"/>
	<path d="M235.456,182.428c0.312,0.203,0.862,0.42,1.392,0.42c0.768,0,1.127-0.384,1.127-0.864c0-0.504-0.3-0.778-1.079-1.066
		c-1.044-0.371-1.535-0.947-1.535-1.644c0-0.936,0.756-1.702,2.003-1.702c0.588,0,1.104,0.168,1.428,0.358l-0.265,0.769
		c-0.228-0.145-0.646-0.336-1.188-0.336c-0.623,0-0.972,0.359-0.972,0.792c0,0.479,0.349,0.694,1.104,0.982
		c1.008,0.384,1.522,0.888,1.522,1.751c0,1.021-0.791,1.739-2.171,1.739c-0.636,0-1.223-0.156-1.631-0.396L235.456,182.428z"/>
	<path d="M239.535,184.983c0.266-0.708,0.589-1.99,0.721-2.866l1.176-0.119c-0.276,1.019-0.804,2.351-1.14,2.914L239.535,184.983z"
		/>
	<path d="M246.519,176.036v1.667h1.512v0.804h-1.512v3.13c0,0.72,0.204,1.128,0.792,1.128c0.275,0,0.479-0.036,0.611-0.072
		l0.048,0.791c-0.203,0.084-0.527,0.146-0.937,0.146c-0.49,0-0.887-0.156-1.139-0.444c-0.3-0.312-0.408-0.827-0.408-1.511v-3.166
		h-0.898v-0.804h0.898v-1.393L246.519,176.036z"/>
	<path d="M252.434,183.508l-0.084-0.731h-0.036c-0.324,0.456-0.947,0.863-1.775,0.863c-1.175,0-1.773-0.827-1.773-1.667
		c0-1.402,1.247-2.171,3.49-2.159v-0.118c0-0.48-0.132-1.345-1.319-1.345c-0.54,0-1.104,0.168-1.512,0.433l-0.239-0.695
		c0.479-0.313,1.175-0.516,1.906-0.516c1.774,0,2.207,1.211,2.207,2.374v2.171c0,0.504,0.023,0.996,0.096,1.392L252.434,183.508
		L252.434,183.508z M252.277,180.546c-1.15-0.024-2.458,0.18-2.458,1.307c0,0.685,0.455,1.009,0.995,1.009
		c0.756,0,1.235-0.479,1.403-0.973c0.036-0.106,0.06-0.228,0.06-0.336V180.546z"/>
	<path d="M255.004,174.992h1.055v8.516h-1.055V174.992z"/>
	<path d="M257.835,174.992h1.056v8.516h-1.056V174.992z"/>
	<path d="M265.92,180.557c0,2.146-1.486,3.082-2.891,3.082c-1.571,0-2.782-1.15-2.782-2.985c0-1.942,1.271-3.082,2.878-3.082
		C264.792,177.571,265.92,178.782,265.92,180.557z M261.316,180.617c0,1.271,0.73,2.23,1.763,2.23c1.008,0,1.764-0.948,1.764-2.255
		c0-0.983-0.491-2.23-1.738-2.23C261.855,178.362,261.316,179.513,261.316,180.617z"/>
	<path d="M269.8,174.992h1.055v3.622h0.023c0.168-0.301,0.433-0.563,0.757-0.743c0.312-0.181,0.684-0.3,1.079-0.3
		c0.778,0,2.025,0.479,2.025,2.481v3.454h-1.055v-3.334c0-0.936-0.35-1.728-1.344-1.728c-0.685,0-1.225,0.479-1.415,1.056
		c-0.061,0.144-0.072,0.3-0.072,0.504v3.502h-1.055L269.8,174.992L269.8,174.992z"/>
	<path d="M277.045,180.797c0.024,1.428,0.937,2.016,1.991,2.016c0.756,0,1.211-0.132,1.607-0.3l0.18,0.755
		c-0.372,0.168-1.008,0.36-1.931,0.36c-1.787,0-2.854-1.176-2.854-2.927s1.031-3.13,2.724-3.13c1.895,0,2.397,1.667,2.397,2.733
		c0,0.216-0.023,0.384-0.036,0.491L277.045,180.797L277.045,180.797z M280.141,180.042c0.012-0.672-0.276-1.716-1.463-1.716
		c-1.067,0-1.535,0.983-1.619,1.716H280.141z"/>
	<path d="M282.472,179.513c0-0.684-0.014-1.271-0.049-1.811h0.924l0.036,1.14h0.048c0.264-0.78,0.898-1.271,1.606-1.271
		c0.12,0,0.203,0.012,0.3,0.035v0.995c-0.107-0.023-0.216-0.036-0.359-0.036c-0.743,0-1.271,0.563-1.415,1.355
		c-0.023,0.144-0.048,0.312-0.048,0.491v3.095h-1.043V179.513z"/>
	<path d="M286.395,183.508c0.023-0.396,0.049-0.983,0.049-1.499v-7.017h1.043v3.646h0.024c0.371-0.646,1.043-1.066,1.979-1.066
		c1.439,0,2.459,1.198,2.446,2.962c0,2.074-1.308,3.105-2.604,3.105c-0.839,0-1.511-0.323-1.941-1.091h-0.036l-0.048,0.959
		L286.395,183.508L286.395,183.508z M287.486,181.18c0,0.133,0.024,0.266,0.048,0.384c0.204,0.732,0.815,1.235,1.583,1.235
		c1.104,0,1.764-0.899,1.764-2.229c0-1.163-0.6-2.159-1.728-2.159c-0.72,0-1.392,0.492-1.607,1.296
		c-0.022,0.12-0.06,0.264-0.06,0.432V181.18L287.486,181.18z"/>
	<path d="M296.486,183.508l-0.084-0.731h-0.036c-0.323,0.456-0.947,0.863-1.774,0.863c-1.176,0-1.774-0.827-1.774-1.667
		c0-1.402,1.247-2.171,3.49-2.159v-0.118c0-0.48-0.132-1.345-1.319-1.345c-0.54,0-1.104,0.168-1.512,0.433l-0.239-0.695
		c0.479-0.313,1.175-0.516,1.906-0.516c1.774,0,2.207,1.211,2.207,2.374v2.171c0,0.504,0.023,0.996,0.096,1.392L296.486,183.508
		L296.486,183.508z M296.328,180.546c-1.15-0.024-2.458,0.18-2.458,1.307c0,0.685,0.455,1.009,0.995,1.009
		c0.756,0,1.235-0.479,1.403-0.973c0.036-0.106,0.06-0.228,0.06-0.336V180.546z M296.858,175.196l-1.464,1.715h-0.755l1.055-1.715
		H296.858z"/>
	<path d="M303.193,183.292c-0.276,0.144-0.888,0.336-1.668,0.336c-1.751,0-2.89-1.188-2.89-2.963c0-1.787,1.223-3.082,3.117-3.082
		c0.623,0,1.176,0.156,1.464,0.3l-0.24,0.815c-0.251-0.145-0.647-0.275-1.224-0.275c-1.331,0-2.051,0.983-2.051,2.194
		c0,1.344,0.863,2.171,2.016,2.171c0.6,0,0.994-0.156,1.295-0.288L303.193,183.292z"/>
	<path d="M304.946,180.797c0.024,1.428,0.937,2.016,1.991,2.016c0.756,0,1.211-0.132,1.606-0.3l0.181,0.755
		c-0.372,0.168-1.008,0.36-1.932,0.36c-1.787,0-2.854-1.176-2.854-2.927s1.031-3.13,2.723-3.13c1.896,0,2.398,1.667,2.398,2.733
		c0,0.216-0.024,0.384-0.036,0.491L304.946,180.797L304.946,180.797z M308.04,180.042c0.013-0.672-0.275-1.716-1.463-1.716
		c-1.066,0-1.535,0.983-1.619,1.716H308.04z"/>
	<path d="M315.623,180.557c0,2.146-1.486,3.082-2.891,3.082c-1.571,0-2.782-1.15-2.782-2.985c0-1.942,1.271-3.082,2.878-3.082
		C314.495,177.571,315.623,178.782,315.623,180.557z M311.019,180.617c0,1.271,0.73,2.23,1.763,2.23
		c1.008,0,1.763-0.948,1.763-2.255c0-0.983-0.49-2.23-1.737-2.23C311.558,178.362,311.019,179.513,311.019,180.617z"/>
	<path d="M315.987,184.983c0.264-0.708,0.587-1.99,0.719-2.866l1.177-0.119c-0.276,1.019-0.805,2.351-1.141,2.914L315.987,184.983z"
		/>
	<path d="M163.036,189.392h1.057v3.622h0.023c0.168-0.3,0.433-0.563,0.756-0.743c0.312-0.18,0.684-0.3,1.079-0.3
		c0.779,0,2.027,0.479,2.027,2.482v3.454h-1.056v-3.334c0-0.937-0.349-1.729-1.343-1.729c-0.685,0-1.224,0.48-1.415,1.056
		c-0.061,0.145-0.072,0.301-0.072,0.505v3.502h-1.057V189.392z"/>
	<path d="M174.949,194.958c0,2.146-1.486,3.082-2.89,3.082c-1.571,0-2.783-1.151-2.783-2.986c0-1.941,1.271-3.082,2.878-3.082
		C173.823,191.971,174.949,193.182,174.949,194.958z M170.344,195.017c0,1.271,0.731,2.231,1.763,2.231
		c1.007,0,1.763-0.948,1.763-2.255c0-0.983-0.491-2.231-1.738-2.231S170.344,193.914,170.344,195.017z"/>
	<path d="M174.869,199.587c0.479-0.035,0.899-0.168,1.151-0.443c0.288-0.336,0.396-0.792,0.396-2.183v-4.857h1.056v5.266
		c0,1.128-0.18,1.858-0.696,2.387c-0.468,0.468-1.234,0.66-1.799,0.66L174.869,199.587z M177.592,190.472
		c0.012,0.349-0.24,0.647-0.66,0.647c-0.396,0-0.647-0.3-0.647-0.647c0-0.372,0.276-0.66,0.673-0.66
		C177.34,189.812,177.592,190.1,177.592,190.472z"/>
	<path d="M182.415,197.908l-0.084-0.731h-0.036c-0.324,0.456-0.947,0.863-1.775,0.863c-1.175,0-1.775-0.827-1.775-1.667
		c0-1.403,1.247-2.171,3.49-2.159v-0.119c0-0.479-0.132-1.344-1.318-1.344c-0.54,0-1.104,0.168-1.512,0.432l-0.239-0.694
		c0.479-0.313,1.175-0.517,1.906-0.517c1.775,0,2.207,1.211,2.207,2.374v2.171c0,0.504,0.024,0.996,0.097,1.393L182.415,197.908
		L182.415,197.908z M182.259,194.946c-1.151-0.024-2.458,0.18-2.458,1.307c0,0.684,0.456,1.008,0.996,1.008
		c0.755,0,1.234-0.479,1.402-0.972c0.036-0.107,0.061-0.229,0.061-0.336L182.259,194.946L182.259,194.946z"/>
	<path d="M184.84,196.829c0.312,0.203,0.862,0.42,1.392,0.42c0.769,0,1.127-0.384,1.127-0.864c0-0.504-0.3-0.779-1.079-1.067
		c-1.044-0.37-1.535-0.946-1.535-1.643c0-0.936,0.757-1.703,2.004-1.703c0.588,0,1.104,0.168,1.427,0.359l-0.265,0.768
		c-0.228-0.144-0.646-0.336-1.188-0.336c-0.623,0-0.971,0.36-0.971,0.792c0,0.479,0.348,0.695,1.103,0.983
		c1.008,0.384,1.523,0.888,1.523,1.751c0,1.02-0.791,1.739-2.171,1.739c-0.637,0-1.224-0.156-1.632-0.396L184.84,196.829z"/>
	<path d="M192.136,196.829c0.312,0.203,0.863,0.42,1.392,0.42c0.769,0,1.127-0.384,1.127-0.864c0-0.504-0.3-0.779-1.079-1.067
		c-1.044-0.37-1.534-0.946-1.534-1.643c0-0.936,0.756-1.703,2.003-1.703c0.588,0,1.104,0.168,1.427,0.359l-0.264,0.768
		c-0.229-0.144-0.647-0.336-1.188-0.336c-0.623,0-0.971,0.36-0.971,0.792c0,0.479,0.348,0.695,1.103,0.983
		c1.008,0.384,1.523,0.888,1.523,1.751c0,1.02-0.791,1.739-2.171,1.739c-0.637,0-1.224-0.156-1.631-0.396L192.136,196.829z"/>
	<path d="M198.207,190.472c0.012,0.359-0.252,0.647-0.673,0.647c-0.37,0-0.636-0.288-0.636-0.647c0-0.372,0.276-0.66,0.66-0.66
		C197.955,189.812,198.207,190.1,198.207,190.472z M197.031,197.908v-5.806h1.056v5.806H197.031z"/>
	<path d="M199.841,193.675c0-0.6-0.014-1.092-0.049-1.571h0.936l0.062,0.959h0.022c0.288-0.552,0.96-1.091,1.919-1.091
		c0.804,0,2.051,0.479,2.051,2.471v3.467h-1.055v-3.347c0-0.936-0.349-1.716-1.344-1.716c-0.695,0-1.235,0.492-1.415,1.08
		c-0.048,0.132-0.072,0.313-0.072,0.491v3.49h-1.055V193.675L199.841,193.675z"/>
	<path d="M210.315,190.436v1.667h1.512v0.805h-1.512v3.13c0,0.72,0.204,1.128,0.792,1.128c0.275,0,0.479-0.036,0.611-0.072
		l0.048,0.791c-0.203,0.084-0.527,0.146-0.936,0.146c-0.491,0-0.888-0.156-1.14-0.444c-0.3-0.313-0.408-0.827-0.408-1.511v-3.166
		h-0.898v-0.805h0.898v-1.392L210.315,190.436z"/>
	<path d="M213.017,193.914c0-0.685-0.013-1.271-0.049-1.812h0.924l0.036,1.141h0.048c0.264-0.78,0.899-1.271,1.607-1.271
		c0.119,0,0.202,0.012,0.3,0.036v0.995c-0.108-0.024-0.216-0.036-0.36-0.036c-0.743,0-1.271,0.563-1.415,1.355
		c-0.022,0.144-0.048,0.312-0.048,0.49v3.096h-1.043V193.914z"/>
	<path d="M218.162,190.472c0.013,0.359-0.252,0.647-0.672,0.647c-0.371,0-0.636-0.288-0.636-0.647c0-0.372,0.276-0.66,0.66-0.66
		C217.91,189.812,218.162,190.1,218.162,190.472z M216.988,197.908v-5.806h1.056v5.806H216.988z"/>
	<path d="M223.934,197.691c-0.276,0.145-0.888,0.337-1.668,0.337c-1.751,0-2.89-1.188-2.89-2.964c0-1.786,1.223-3.082,3.117-3.082
		c0.623,0,1.176,0.156,1.464,0.301l-0.239,0.814c-0.252-0.144-0.648-0.274-1.225-0.274c-1.331,0-2.051,0.982-2.051,2.193
		c0,1.345,0.863,2.171,2.016,2.171c0.6,0,0.994-0.155,1.295-0.288L223.934,197.691z"/>
	<path d="M230.354,194.958c0,2.146-1.487,3.082-2.891,3.082c-1.571,0-2.782-1.151-2.782-2.986c0-1.941,1.271-3.082,2.878-3.082
		C229.226,191.971,230.354,193.182,230.354,194.958z M225.748,195.017c0,1.271,0.73,2.231,1.763,2.231
		c1.008,0,1.763-0.948,1.763-2.255c0-0.983-0.491-2.231-1.738-2.231C226.286,192.762,225.748,193.914,225.748,195.017z"/>
	<path d="M231.689,193.675c0-0.6-0.013-1.092-0.049-1.571h0.924l0.048,0.937h0.036c0.324-0.552,0.863-1.067,1.823-1.067
		c0.791,0,1.391,0.479,1.643,1.163h0.024c0.18-0.324,0.407-0.575,0.646-0.756c0.349-0.264,0.731-0.407,1.283-0.407
		c0.769,0,1.907,0.504,1.907,2.52v3.418h-1.031v-3.286c0-1.115-0.408-1.787-1.26-1.787c-0.6,0-1.067,0.443-1.247,0.96
		c-0.048,0.144-0.084,0.335-0.084,0.527v3.586h-1.031v-3.479c0-0.923-0.408-1.595-1.212-1.595c-0.659,0-1.139,0.527-1.307,1.056
		c-0.062,0.155-0.084,0.336-0.084,0.517v3.502h-1.031L231.689,193.675L231.689,193.675z"/>
	<path d="M244.909,197.908l-0.084-0.731h-0.035c-0.324,0.456-0.947,0.863-1.775,0.863c-1.175,0-1.774-0.827-1.774-1.667
		c0-1.403,1.247-2.171,3.49-2.159v-0.119c0-0.479-0.132-1.344-1.319-1.344c-0.54,0-1.104,0.168-1.512,0.432l-0.239-0.694
		c0.479-0.313,1.176-0.517,1.906-0.517c1.775,0,2.207,1.211,2.207,2.374v2.171c0,0.504,0.024,0.996,0.096,1.393L244.909,197.908
		L244.909,197.908z M244.754,194.946c-1.151-0.024-2.458,0.18-2.458,1.307c0,0.684,0.455,1.008,0.995,1.008
		c0.756,0,1.234-0.479,1.402-0.972c0.036-0.107,0.061-0.229,0.061-0.336V194.946z"/>
	<path d="M247.336,196.829c0.312,0.203,0.862,0.42,1.392,0.42c0.768,0,1.127-0.384,1.127-0.864c0-0.504-0.3-0.779-1.079-1.067
		c-1.044-0.37-1.535-0.946-1.535-1.643c0-0.936,0.757-1.703,2.003-1.703c0.589,0,1.104,0.168,1.428,0.359l-0.265,0.768
		c-0.228-0.144-0.646-0.336-1.188-0.336c-0.623,0-0.971,0.36-0.971,0.792c0,0.479,0.348,0.695,1.103,0.983
		c1.008,0.384,1.523,0.888,1.523,1.751c0,1.02-0.791,1.739-2.172,1.739c-0.636,0-1.223-0.156-1.631-0.396L247.336,196.829z"/>
	<path d="M251.417,199.384c0.264-0.708,0.587-1.991,0.719-2.867l1.176-0.119c-0.276,1.02-0.804,2.352-1.14,2.914L251.417,199.384z"
		/>
	<path d="M257.236,197.908v-5.001h-0.815v-0.805h0.815v-0.275c0-0.815,0.18-1.56,0.672-2.026c0.396-0.384,0.923-0.54,1.415-0.54
		c0.372,0,0.695,0.084,0.899,0.168l-0.145,0.815c-0.156-0.071-0.372-0.132-0.672-0.132c-0.898,0-1.127,0.792-1.127,1.68v0.312h1.402
		v0.805h-1.402v5.001L257.236,197.908L257.236,197.908z"/>
	<path d="M260.632,193.914c0-0.685-0.014-1.271-0.05-1.812h0.925l0.035,1.141h0.049c0.264-0.78,0.898-1.271,1.606-1.271
		c0.12,0,0.203,0.012,0.3,0.036v0.995c-0.107-0.024-0.216-0.036-0.359-0.036c-0.743,0-1.271,0.563-1.415,1.355
		c-0.023,0.144-0.048,0.312-0.048,0.49v3.096h-1.043V193.914z"/>
	<path d="M269.411,196.325c0,0.6,0.014,1.127,0.049,1.583h-0.936l-0.061-0.947h-0.023c-0.276,0.468-0.888,1.079-1.919,1.079
		c-0.912,0-2.003-0.504-2.003-2.543v-3.395h1.055v3.214c0,1.104,0.336,1.849,1.296,1.849c0.707,0,1.199-0.492,1.392-0.96
		c0.061-0.156,0.097-0.349,0.097-0.54v-3.563h1.055L269.411,196.325L269.411,196.325z"/>
	<path d="M272.439,190.436v1.667h1.512v0.805h-1.512v3.13c0,0.72,0.204,1.128,0.792,1.128c0.274,0,0.479-0.036,0.611-0.072
		l0.048,0.791c-0.203,0.084-0.527,0.146-0.937,0.146c-0.491,0-0.887-0.156-1.139-0.444c-0.3-0.313-0.408-0.827-0.408-1.511v-3.166
		h-0.898v-0.805h0.898v-1.392L272.439,190.436z"/>
	<path d="M280.32,194.958c0,2.146-1.487,3.082-2.891,3.082c-1.571,0-2.782-1.151-2.782-2.986c0-1.941,1.271-3.082,2.878-3.082
		C279.193,191.971,280.32,193.182,280.32,194.958z M275.714,195.017c0,1.271,0.731,2.231,1.764,2.231
		c1.008,0,1.763-0.948,1.763-2.255c0-0.983-0.491-2.231-1.738-2.231C276.253,192.762,275.714,193.914,275.714,195.017z"/>
	<path d="M284.055,196.829c0.312,0.203,0.862,0.42,1.392,0.42c0.768,0,1.127-0.384,1.127-0.864c0-0.504-0.3-0.779-1.079-1.067
		c-1.044-0.37-1.535-0.946-1.535-1.643c0-0.936,0.757-1.703,2.003-1.703c0.589,0,1.104,0.168,1.428,0.359l-0.265,0.768
		c-0.228-0.144-0.646-0.336-1.188-0.336c-0.623,0-0.971,0.36-0.971,0.792c0,0.479,0.348,0.695,1.103,0.983
		c1.008,0.384,1.523,0.888,1.523,1.751c0,1.02-0.791,1.739-2.172,1.739c-0.636,0-1.223-0.156-1.631-0.396L284.055,196.829z"/>
	<path d="M289.537,195.197c0.024,1.428,0.937,2.016,1.991,2.016c0.756,0,1.211-0.132,1.607-0.3l0.18,0.755
		c-0.372,0.168-1.008,0.36-1.931,0.36c-1.787,0-2.854-1.177-2.854-2.928s1.031-3.13,2.723-3.13c1.896,0,2.398,1.667,2.398,2.734
		c0,0.216-0.024,0.384-0.036,0.491L289.537,195.197L289.537,195.197z M292.633,194.441c0.012-0.672-0.276-1.716-1.464-1.716
		c-1.066,0-1.534,0.984-1.618,1.716H292.633z"/>
	<path d="M299.101,197.691c-0.276,0.145-0.889,0.337-1.668,0.337c-1.751,0-2.891-1.188-2.891-2.964c0-1.786,1.224-3.082,3.118-3.082
		c0.623,0,1.175,0.156,1.463,0.301l-0.239,0.814c-0.251-0.144-0.647-0.274-1.224-0.274c-1.331,0-2.051,0.982-2.051,2.193
		c0,1.345,0.863,2.171,2.015,2.171c0.601,0,0.995-0.155,1.295-0.288L299.101,197.691z"/>
	<path d="M305.521,194.958c0,2.146-1.487,3.082-2.892,3.082c-1.57,0-2.781-1.151-2.781-2.986c0-1.941,1.271-3.082,2.878-3.082
		C304.393,191.971,305.521,193.182,305.521,194.958z M300.914,195.017c0,1.271,0.731,2.231,1.764,2.231
		c1.008,0,1.763-0.948,1.763-2.255c0-0.983-0.491-2.231-1.738-2.231C301.453,192.762,300.914,193.914,300.914,195.017z"/>
	<path d="M305.884,199.384c0.264-0.708,0.587-1.991,0.719-2.867l1.176-0.119c-0.276,1.02-0.804,2.352-1.14,2.914L305.884,199.384z"
		/>
	<path d="M311.449,196.829c0.313,0.203,0.863,0.42,1.393,0.42c0.768,0,1.127-0.384,1.127-0.864c0-0.504-0.301-0.779-1.079-1.067
		c-1.044-0.37-1.535-0.946-1.535-1.643c0-0.936,0.756-1.703,2.003-1.703c0.588,0,1.104,0.168,1.427,0.359l-0.264,0.768
		c-0.229-0.144-0.647-0.336-1.188-0.336c-0.623,0-0.971,0.36-0.971,0.792c0,0.479,0.348,0.695,1.103,0.983
		c1.009,0.384,1.523,0.888,1.523,1.751c0,1.02-0.791,1.739-2.171,1.739c-0.636,0-1.223-0.156-1.631-0.396L311.449,196.829z"/>
	<path d="M316.934,195.197c0.023,1.428,0.936,2.016,1.991,2.016c0.756,0,1.211-0.132,1.606-0.3l0.18,0.755
		c-0.372,0.168-1.008,0.36-1.931,0.36c-1.787,0-2.854-1.177-2.854-2.928s1.03-3.13,2.723-3.13c1.895,0,2.397,1.667,2.397,2.734
		c0,0.216-0.023,0.384-0.035,0.491L316.934,195.197L316.934,195.197z M320.028,194.441c0.012-0.672-0.276-1.716-1.463-1.716
		c-1.067,0-1.535,0.984-1.619,1.716H320.028z"/>
	<path d="M322.36,193.675c0-0.6-0.013-1.092-0.049-1.571h0.924l0.048,0.937h0.036c0.324-0.552,0.863-1.067,1.823-1.067
		c0.791,0,1.391,0.479,1.643,1.163h0.024c0.18-0.324,0.407-0.575,0.646-0.756c0.349-0.264,0.731-0.407,1.283-0.407
		c0.769,0,1.907,0.504,1.907,2.52v3.418h-1.031v-3.286c0-1.115-0.408-1.787-1.26-1.787c-0.601,0-1.067,0.443-1.247,0.96
		c-0.048,0.144-0.084,0.335-0.084,0.527v3.586h-1.031v-3.479c0-0.923-0.408-1.595-1.212-1.595c-0.659,0-1.139,0.527-1.307,1.056
		c-0.062,0.155-0.084,0.336-0.084,0.517v3.502h-1.031L322.36,193.675L322.36,193.675z"/>
	<path d="M333.541,190.472c0.013,0.359-0.252,0.647-0.672,0.647c-0.371,0-0.636-0.288-0.636-0.647c0-0.372,0.276-0.66,0.66-0.66
		C333.289,189.812,333.541,190.1,333.541,190.472z M332.366,197.908v-5.806h1.055v5.806H332.366z"/>
	<path d="M335.175,189.392h1.055v8.517h-1.055V189.392z"/>
	<path d="M338.007,189.392h1.055v8.517h-1.055V189.392z"/>
	<path d="M344.053,197.908l-0.084-0.731h-0.036c-0.324,0.456-0.947,0.863-1.775,0.863c-1.175,0-1.773-0.827-1.773-1.667
		c0-1.403,1.246-2.171,3.489-2.159v-0.119c0-0.479-0.132-1.344-1.318-1.344c-0.54,0-1.104,0.168-1.513,0.432l-0.238-0.694
		c0.479-0.313,1.175-0.517,1.905-0.517c1.775,0,2.207,1.211,2.207,2.374v2.171c0,0.504,0.024,0.996,0.097,1.393L344.053,197.908
		L344.053,197.908z M343.897,194.946c-1.151-0.024-2.458,0.18-2.458,1.307c0,0.684,0.455,1.008,0.995,1.008
		c0.756,0,1.234-0.479,1.402-0.972c0.036-0.107,0.061-0.229,0.061-0.336V194.946z"/>
	<path d="M349.166,189.392h1.056v8.517h-1.056V189.392z"/>
	<path d="M353.173,190.472c0.012,0.359-0.253,0.647-0.673,0.647c-0.371,0-0.636-0.288-0.636-0.647c0-0.372,0.276-0.66,0.66-0.66
		C352.92,189.812,353.173,190.1,353.173,190.472z M351.997,197.908v-5.806h1.056v5.806H351.997z"/>
	<path d="M354.661,196.829c0.313,0.203,0.863,0.42,1.393,0.42c0.768,0,1.127-0.384,1.127-0.864c0-0.504-0.3-0.779-1.079-1.067
		c-1.044-0.37-1.535-0.946-1.535-1.643c0-0.936,0.756-1.703,2.003-1.703c0.588,0,1.104,0.168,1.427,0.359l-0.264,0.768
		c-0.229-0.144-0.647-0.336-1.188-0.336c-0.623,0-0.971,0.36-0.971,0.792c0,0.479,0.348,0.695,1.104,0.983
		c1.008,0.384,1.522,0.888,1.522,1.751c0,1.02-0.791,1.739-2.171,1.739c-0.636,0-1.223-0.156-1.631-0.396L354.661,196.829z"/>
	<path d="M362.773,197.908l-0.084-0.731h-0.036c-0.323,0.456-0.947,0.863-1.775,0.863c-1.175,0-1.773-0.827-1.773-1.667
		c0-1.403,1.247-2.171,3.49-2.159v-0.119c0-0.479-0.133-1.344-1.319-1.344c-0.54,0-1.104,0.168-1.512,0.432l-0.239-0.694
		c0.479-0.313,1.175-0.517,1.906-0.517c1.774,0,2.207,1.211,2.207,2.374v2.171c0,0.504,0.023,0.996,0.096,1.393L362.773,197.908
		L362.773,197.908z M362.615,194.946c-1.151-0.024-2.458,0.18-2.458,1.307c0,0.684,0.455,1.008,0.995,1.008
		c0.756,0,1.235-0.479,1.403-0.972c0.036-0.107,0.06-0.229,0.06-0.336V194.946z"/>
</g>
<rect x="245.891" y="82.888" transform="matrix(0.6846 0.7289 -0.7289 0.6846 143.9727 -158.9413)" fill="#FF0000" width="19.499" height="8"/>
<g>
	<path d="M271.523,90.108v3.383h3.91v-3.383h1.055v8.083h-1.055v-3.79h-3.91v3.79h-1.044v-8.083H271.523z"/>
	<path d="M283.521,95.243c0,2.146-1.487,3.082-2.892,3.082c-1.57,0-2.781-1.151-2.781-2.986c0-1.943,1.271-3.082,2.878-3.082
		C282.393,92.256,283.521,93.467,283.521,95.243z M278.914,95.302c0,1.271,0.731,2.231,1.764,2.231c1.008,0,1.763-0.947,1.763-2.255
		c0-0.983-0.491-2.23-1.738-2.23C279.453,93.048,278.914,94.199,278.914,95.302z"/>
	<path d="M283.44,99.872c0.479-0.036,0.898-0.168,1.151-0.444c0.287-0.336,0.396-0.792,0.396-2.183v-4.857h1.055v5.266
		c0,1.127-0.18,1.858-0.694,2.387c-0.469,0.468-1.235,0.66-1.8,0.66L283.44,99.872z M286.161,90.757
		c0.013,0.348-0.238,0.648-0.659,0.648c-0.396,0-0.646-0.301-0.646-0.648c0-0.372,0.274-0.66,0.671-0.66
		C285.909,90.096,286.161,90.385,286.161,90.757z"/>
	<path d="M290.986,98.192l-0.084-0.73h-0.036c-0.323,0.456-0.947,0.863-1.774,0.863c-1.176,0-1.774-0.828-1.774-1.667
		c0-1.403,1.247-2.171,3.49-2.159v-0.12c0-0.479-0.132-1.343-1.319-1.343c-0.54,0-1.104,0.168-1.512,0.432l-0.239-0.695
		c0.479-0.312,1.175-0.516,1.906-0.516c1.774,0,2.207,1.211,2.207,2.375v2.171c0,0.503,0.023,0.995,0.096,1.392h-0.96V98.192z
		 M290.828,95.23c-1.15-0.023-2.458,0.181-2.458,1.308c0,0.684,0.455,1.008,0.995,1.008c0.756,0,1.235-0.48,1.403-0.972
		c0.036-0.108,0.06-0.229,0.06-0.336V95.23z"/>
	<path d="M293.409,97.113c0.313,0.203,0.863,0.42,1.393,0.42c0.768,0,1.127-0.385,1.127-0.863c0-0.504-0.301-0.78-1.079-1.068
		c-1.044-0.372-1.535-0.946-1.535-1.643c0-0.936,0.756-1.703,2.003-1.703c0.588,0,1.104,0.167,1.427,0.359l-0.264,0.768
		c-0.229-0.144-0.647-0.335-1.188-0.335c-0.623,0-0.971,0.36-0.971,0.792c0,0.479,0.348,0.695,1.104,0.983
		c1.008,0.384,1.522,0.888,1.522,1.751c0,1.02-0.791,1.738-2.171,1.738c-0.636,0-1.223-0.155-1.631-0.396L293.409,97.113z"/>
	<path d="M304.988,97.976c-0.276,0.145-0.888,0.336-1.668,0.336c-1.751,0-2.89-1.188-2.89-2.962c0-1.787,1.223-3.083,3.118-3.083
		c0.622,0,1.175,0.156,1.463,0.3l-0.239,0.815c-0.252-0.144-0.648-0.275-1.224-0.275c-1.331,0-2.052,0.983-2.052,2.194
		c0,1.343,0.863,2.171,2.016,2.171c0.6,0,0.995-0.156,1.295-0.288L304.988,97.976z"/>
	<path d="M311.407,95.243c0,2.146-1.487,3.082-2.891,3.082c-1.571,0-2.782-1.151-2.782-2.986c0-1.943,1.271-3.082,2.878-3.082
		C310.28,92.256,311.407,93.467,311.407,95.243z M306.803,95.302c0,1.271,0.73,2.231,1.763,2.231c1.008,0,1.763-0.947,1.763-2.255
		c0-0.983-0.491-2.23-1.737-2.23C307.342,93.048,306.803,94.199,306.803,95.302z"/>
	<path d="M312.742,93.959c0-0.601-0.013-1.091-0.049-1.571h0.936l0.062,0.959h0.023c0.287-0.552,0.96-1.091,1.919-1.091
		c0.804,0,2.051,0.479,2.051,2.47v3.466h-1.056v-3.346c0-0.936-0.349-1.715-1.344-1.715c-0.694,0-1.234,0.492-1.415,1.079
		c-0.048,0.132-0.071,0.312-0.071,0.492v3.489h-1.056V93.959L312.742,93.959z"/>
	<path d="M323.217,90.72v1.667h1.512v0.803h-1.512v3.131c0,0.72,0.203,1.127,0.792,1.127c0.274,0,0.479-0.036,0.61-0.072
		l0.048,0.792c-0.203,0.084-0.526,0.144-0.936,0.144c-0.491,0-0.887-0.155-1.139-0.443c-0.301-0.313-0.408-0.828-0.408-1.512v-3.167
		h-0.899v-0.803h0.899v-1.392L323.217,90.72z"/>
	<path d="M325.918,94.199c0-0.685-0.013-1.271-0.049-1.812h0.924l0.036,1.14h0.048c0.265-0.779,0.899-1.271,1.607-1.271
		c0.12,0,0.203,0.012,0.3,0.036v0.996c-0.107-0.024-0.216-0.036-0.359-0.036c-0.743,0-1.271,0.563-1.415,1.354
		c-0.023,0.145-0.049,0.313-0.049,0.492v3.094h-1.043V94.199z"/>
	<path d="M331.066,90.757c0.012,0.36-0.252,0.648-0.672,0.648c-0.371,0-0.636-0.288-0.636-0.648c0-0.372,0.275-0.66,0.659-0.66
		C330.814,90.096,331.066,90.385,331.066,90.757z M329.891,98.192v-5.805h1.055v5.805H329.891z"/>
	<path d="M336.835,97.976c-0.275,0.145-0.888,0.336-1.668,0.336c-1.751,0-2.89-1.188-2.89-2.962c0-1.787,1.223-3.083,3.118-3.083
		c0.623,0,1.175,0.156,1.463,0.3l-0.239,0.815c-0.252-0.144-0.647-0.275-1.224-0.275c-1.331,0-2.051,0.983-2.051,2.194
		c0,1.343,0.862,2.171,2.015,2.171c0.6,0,0.995-0.156,1.295-0.288L336.835,97.976z"/>
	<path d="M343.255,95.243c0,2.146-1.486,3.082-2.891,3.082c-1.571,0-2.782-1.151-2.782-2.986c0-1.943,1.271-3.082,2.878-3.082
		C342.127,92.256,343.255,93.467,343.255,95.243z M338.651,95.302c0,1.271,0.731,2.231,1.763,2.231c1.008,0,1.764-0.947,1.764-2.255
		c0-0.983-0.491-2.23-1.738-2.23C339.19,93.048,338.651,94.199,338.651,95.302z"/>
	<path d="M344.591,93.959c0-0.601-0.014-1.091-0.05-1.571h0.925l0.048,0.937h0.036c0.323-0.553,0.862-1.067,1.822-1.067
		c0.791,0,1.392,0.479,1.644,1.163h0.023c0.181-0.324,0.407-0.576,0.647-0.755c0.348-0.265,0.73-0.408,1.283-0.408
		c0.768,0,1.906,0.503,1.906,2.519v3.419h-1.03v-3.286c0-1.115-0.408-1.787-1.261-1.787c-0.6,0-1.066,0.443-1.247,0.959
		c-0.048,0.144-0.084,0.336-0.084,0.527v3.587h-1.03v-3.479c0-0.923-0.408-1.595-1.212-1.595c-0.659,0-1.14,0.527-1.308,1.056
		c-0.061,0.156-0.084,0.335-0.084,0.516v3.503h-1.031v-4.235H344.591z"/>
	<path d="M357.813,98.192l-0.084-0.73h-0.036c-0.324,0.456-0.947,0.863-1.775,0.863c-1.175,0-1.773-0.828-1.773-1.667
		c0-1.403,1.247-2.171,3.49-2.159v-0.12c0-0.479-0.133-1.343-1.319-1.343c-0.54,0-1.104,0.168-1.512,0.432l-0.239-0.695
		c0.479-0.312,1.175-0.516,1.906-0.516c1.774,0,2.207,1.211,2.207,2.375v2.171c0,0.503,0.023,0.995,0.096,1.392h-0.96V98.192z
		 M357.656,95.23c-1.151-0.023-2.458,0.181-2.458,1.308c0,0.684,0.455,1.008,0.995,1.008c0.756,0,1.235-0.48,1.403-0.972
		c0.036-0.108,0.06-0.229,0.06-0.336V95.23z"/>
	<path d="M360.238,97.113c0.313,0.203,0.863,0.42,1.392,0.42c0.769,0,1.128-0.385,1.128-0.863c0-0.504-0.301-0.78-1.079-1.068
		c-1.044-0.372-1.535-0.946-1.535-1.643c0-0.936,0.756-1.703,2.003-1.703c0.588,0,1.104,0.167,1.427,0.359l-0.264,0.768
		c-0.229-0.144-0.647-0.335-1.188-0.335c-0.623,0-0.971,0.36-0.971,0.792c0,0.479,0.348,0.695,1.103,0.983
		c1.009,0.384,1.523,0.888,1.523,1.751c0,1.02-0.791,1.738-2.171,1.738c-0.636,0-1.223-0.155-1.631-0.396L360.238,97.113z"/>
</g>
<rect x="439.234" y="6.19" fill="#FFCC66" stroke="#CC6600" stroke-miterlimit="10" width="382.333" height="79.666"/>
<rect x="698.901" y="14.976" fill="#FFFF99" stroke="#FFFF00" stroke-miterlimit="10" width="115.691" height="61.88"/>
<rect x="447.068" y="14.803" fill="#FFFF99" stroke="#FFFF00" stroke-miterlimit="10" width="224.833" height="62.053"/>
<rect x="710.901" y="21.821" fill="#FFFFCC" stroke="#CCCC33" stroke-miterlimit="10" width="92.514" height="45.071"/>
<rect x="563.901" y="22.178" fill="#FFFFCC" stroke="#CCCC33" stroke-miterlimit="10" width="98" height="45.07"/>
<rect x="454.001" y="21.821" fill="#FFFFCC" stroke="#CCCC33" stroke-miterlimit="10" width="87.797" height="45.071"/>
<line fill="none" stroke="#000000" stroke-width="4" stroke-miterlimit="10" x1="613.298" y1="257.765" x2="613.298" y2="172.765"/>
<line fill="none" stroke="#000000" stroke-width="4" stroke-miterlimit="10" x1="613.298" y1="172.765" x2="771.798" y2="53.266"/>
<polyline stroke="#000000" stroke-width="4" stroke-miterlimit="10" points="613.298,172.765 532.933,108.517 470.298,56.766 "/>
<line fill="none" stroke="#000000" stroke-width="4" stroke-miterlimit="10" x1="532.933" y1="108.517" x2="605.798" y2="53.266"/>
<g enable-background="new    ">
	<path d="M783.421,48.619c-0.576,0.288-1.729,0.576-3.205,0.576c-3.423,0-5.996-2.16-5.996-6.14c0-3.799,2.573-6.374,6.338-6.374
		c1.513,0,2.468,0.324,2.881,0.54L783.06,38.5c-0.594-0.287-1.438-0.506-2.447-0.506c-2.846,0-4.735,1.818-4.735,5.008
		c0,2.971,1.712,4.879,4.664,4.879c0.953,0,1.927-0.197,2.558-0.504L783.421,48.619z"/>
</g>
<g enable-background="new    ">
	<path d="M464.129,45.198l-1.26,3.817h-1.621l4.123-12.136h1.891l4.142,12.136h-1.674l-1.296-3.817H464.129z M468.109,43.975
		l-1.188-3.493c-0.271-0.793-0.45-1.513-0.63-2.215h-0.036c-0.18,0.72-0.378,1.458-0.611,2.196l-1.188,3.512H468.109z"/>
</g>
<g enable-background="new    ">
	<path d="M607.166,37.042c0.686-0.146,1.765-0.254,2.863-0.254c1.565,0,2.575,0.271,3.331,0.884c0.63,0.469,1.008,1.188,1.008,2.143
		c0,1.171-0.774,2.197-2.052,2.665v0.036c1.151,0.288,2.502,1.242,2.502,3.043c0,1.044-0.414,1.837-1.026,2.431
		c-0.846,0.774-2.214,1.137-4.195,1.137c-1.08,0-1.908-0.072-2.431-0.146V37.042L607.166,37.042z M608.734,42.012h1.422
		c1.656,0,2.629-0.864,2.629-2.035c0-1.422-1.081-1.98-2.665-1.98c-0.72,0-1.134,0.057-1.386,0.108V42.012z M608.734,47.827
		c0.306,0.056,0.756,0.072,1.313,0.072c1.621,0,3.115-0.595,3.115-2.356c0-1.657-1.422-2.343-3.133-2.343h-1.296V47.827z"/>
</g>
<g opacity="0.5" enable-background="new    ">
	<path d="M312.436,46.953c-0.576,0.287-1.729,0.576-3.205,0.576c-3.423,0-5.996-2.16-5.996-6.14c0-3.799,2.573-6.374,6.338-6.374
		c1.513,0,2.468,0.324,2.881,0.54l-0.379,1.278c-0.594-0.287-1.438-0.506-2.447-0.506c-2.846,0-4.735,1.818-4.735,5.008
		c0,2.971,1.712,4.879,4.664,4.879c0.953,0,1.927-0.197,2.558-0.504L312.436,46.953z"/>
</g>
<g opacity="0.5" enable-background="new    ">
	<path d="M-6.856,43.531l-1.26,3.818h-1.621l4.123-12.136h1.891l4.142,12.136h-1.674l-1.296-3.818H-6.856z M-2.877,42.308
		l-1.188-3.493c-0.271-0.793-0.45-1.513-0.63-2.215h-0.036c-0.18,0.72-0.378,1.458-0.611,2.196l-1.188,3.512H-2.877z"/>
</g>
<g opacity="0.5" enable-background="new    ">
	<path d="M136.181,35.375c0.686-0.146,1.765-0.254,2.863-0.254c1.565,0,2.575,0.271,3.331,0.884c0.63,0.469,1.008,1.188,1.008,2.143
		c0,1.171-0.774,2.197-2.052,2.665v0.036c1.151,0.288,2.502,1.242,2.502,3.043c0,1.044-0.414,1.836-1.026,2.43
		c-0.846,0.775-2.214,1.137-4.195,1.137c-1.08,0-1.908-0.072-2.431-0.146V35.375L136.181,35.375z M137.748,40.345h1.422
		c1.656,0,2.629-0.864,2.629-2.035c0-1.422-1.081-1.98-2.665-1.98c-0.72,0-1.134,0.057-1.386,0.108V40.345z M137.748,46.16
		c0.306,0.057,0.756,0.072,1.313,0.072c1.621,0,3.115-0.594,3.115-2.356c0-1.657-1.422-2.343-3.133-2.343h-1.296V46.16z"/>
</g>
</svg>
