<?xml version="1.0" encoding="UTF-8" standalone="no"?>
<!-- Created with Inkscape (http://www.inkscape.org/) -->

<svg
   xmlns:dc="http://purl.org/dc/elements/1.1/"
   xmlns:cc="http://creativecommons.org/ns#"
   xmlns:rdf="http://www.w3.org/1999/02/22-rdf-syntax-ns#"
   xmlns:svg="http://www.w3.org/2000/svg"
   xmlns="http://www.w3.org/2000/svg"
   xmlns:sodipodi="http://sodipodi.sourceforge.net/DTD/sodipodi-0.dtd"
   xmlns:inkscape="http://www.inkscape.org/namespaces/inkscape"
   version="1.0"
   width="799.79706"
   height="555.03003"
   id="svg7054"
   inkscape:version="0.91 r13725"
   sodipodi:docname="Ovule-Gymno-Angio-es.svg">
  <metadata
     id="metadata3393">
    <rdf:RDF>
      <cc:Work
         rdf:about="">
        <dc:format>image/svg+xml</dc:format>
        <dc:type
           rdf:resource="http://purl.org/dc/dcmitype/StillImage" />
        <dc:title></dc:title>
      </cc:Work>
    </rdf:RDF>
  </metadata>
  <sodipodi:namedview
     pagecolor="#ffffff"
     bordercolor="#666666"
     borderopacity="1"
     objecttolerance="10"
     gridtolerance="10"
     guidetolerance="10"
     inkscape:pageopacity="0"
     inkscape:pageshadow="2"
     inkscape:window-width="1366"
     inkscape:window-height="705"
     id="namedview3391"
     showgrid="false"
     inkscape:zoom="0.96571351"
     inkscape:cx="399.89853"
     inkscape:cy="277.51501"
     inkscape:window-x="-8"
     inkscape:window-y="-8"
     inkscape:window-maximized="1"
     inkscape:current-layer="g3420" />
  <defs
     id="defs7057" />
  <path
     d="M 147.34973,221.48172 L 202.09439,220.91522 L 235.06871,254.83017 L 252.58113,314.51441 L 245.53981,374.18829 L 219.02494,416.0109 C 219.02494,416.0109 192.08206,432.24279 189.87761,432.24279 C 187.67317,432.24279 146.33985,426.12512 146.33985,426.12512 L 105.00654,381.07678 C 105.00654,381.07678 98.470151,309.47797 98.470151,307.25336 C 98.470151,305.02877 119.84036,251.07164 119.84036,251.07164 L 147.34973,221.48172 z "
     style="fill:#d2fe9d;fill-opacity:1;fill-rule:evenodd;stroke:none;stroke-width:0.97727275px;stroke-linecap:butt;stroke-linejoin:miter;stroke-opacity:1"
     id="path13890" />
  <path
     d="M 154.66212,191.07782 C 152.40153,188.0637 151.52241,202.63197 141.09856,216.19553 C 130.67471,229.7591 127.27772,225.94813 112.96672,245.33208 C 98.655721,264.71603 92.337179,283.92536 89.356077,298.58162 C 86.397092,313.12915 86.872818,342.73909 89.356077,353.33823 C 91.814198,363.83007 94.952543,381.08078 108.64169,401.92848 C 122.33084,422.77618 129.98777,427.06196 138.90464,432.2003 C 147.87007,437.36663 167.23229,442.24068 177.26806,442.25493 C 186.96418,442.26918 204.01066,437.00412 211.42815,432.7102 C 218.94573,428.35833 235.10065,416.80994 248.03627,391.56664 C 260.97189,366.32334 262.96034,341.3524 263.17063,331.737 C 263.38099,322.11846 261.71976,297.6503 256.68951,282.11715 C 251.69243,266.68643 247.83948,259.06021 238.18122,245.48889 C 228.57653,231.99284 219.96817,227.37292 211.9305,216.69789 C 203.89284,206.02286 200.25077,189.94753 196.85988,191.58018 C 193.46899,193.21283 191.20839,207.02757 198.36694,223.22849 C 205.52549,239.42941 210.62624,236.09382 224.36189,257.28962 C 238.13092,278.53694 241.08319,297.99539 242.57411,313.65225 C 244.06503,329.42233 242.1051,349.16131 240.06234,358.86413 C 238.01465,368.59038 233.78291,379.71183 223.987,395.03363 C 214.19109,410.35543 208.6326,413.33709 200.87871,419.01916 C 193.3262,424.55365 185.05749,426.47648 174.75629,426.68195 C 164.34188,426.88742 151.22813,422.30195 137.50766,409.63912 C 123.78718,396.97628 113.16049,368.58652 111.23019,360.45181 C 109.31788,352.39291 106.88035,341.12234 107.13283,330.17263 C 107.38531,319.22292 107.68602,311.55237 109.37582,300.70888 C 111.06563,289.86539 116.10644,274.84538 126.53029,256.88622 C 136.95414,238.92706 143.12535,242.32144 151.53636,226.8566 C 159.94736,211.39176 156.92271,194.09194 154.66212,191.07782 z "
     style="fill:#c1e4e7;fill-opacity:1;fill-rule:evenodd;stroke:#000000;stroke-width:2;stroke-linecap:butt;stroke-linejoin:miter;stroke-miterlimit:4;stroke-dasharray:none;stroke-opacity:1"
     id="path7063" />
  <path
     d="M 208.20847 376.70126 A 16.75631 16.529873 0 1 1  174.69585,376.70126 A 16.75631 16.529873 0 1 1  208.20847 376.70126 z"
     transform="translate(-16.337896,-14.983063)"
     style="opacity:1;fill:#fefe00;fill-opacity:1;fill-rule:evenodd;stroke:#000000;stroke-width:2;stroke-linecap:round;stroke-linejoin:miter;stroke-miterlimit:4;stroke-dasharray:none;stroke-dashoffset:0;stroke-opacity:1"
     id="path8034" />
  <path
     d="M 486.25142,212.71231 L 535.537,212.71231 L 572.92606,247.83537 L 595.5861,298.82045 L 583.68958,350.37204 L 558.76354,417.78565 C 558.76354,417.78565 528.73899,428.54916 526.47298,428.54916 C 524.20698,428.54916 481.71941,422.31765 481.71941,422.31765 L 439.23184,376.43108 C 439.23184,376.43108 429.60132,295.42144 429.60132,293.15544 C 429.60132,290.88944 456.22687,236.50535 456.22687,236.50535 L 486.25142,212.71231 z "
     style="fill:#d2fe9d;fill-opacity:1;fill-rule:evenodd;stroke:none;stroke-width:1px;stroke-linecap:butt;stroke-linejoin:miter;stroke-opacity:1"
     id="path13886" />
  <path
     d="M 208.20847 376.70126 A 16.75631 16.529873 0 1 1  174.69585,376.70126 A 16.75631 16.529873 0 1 1  208.20847 376.70126 z"
     transform="translate(319.47956,-25.573388)"
     style="opacity:1;fill:#fefe00;fill-opacity:1;fill-rule:evenodd;stroke:#000000;stroke-width:2;stroke-linecap:round;stroke-linejoin:miter;stroke-miterlimit:4;stroke-dasharray:none;stroke-dashoffset:0;stroke-opacity:1"
     id="path8036" />
  <path
     d="M 479.50743,52.319997 C 472.1682,82.932587 469.24876,115.68776 452.48893,128.69321 C 435.54721,141.83981 420.98594,143.36238 393.74886,171.84552 C 366.32526,200.5237 350.9715,237.44899 345.22025,262.36271 C 339.51166,287.09157 338.19593,338.16908 342.98674,356.18622 C 347.72905,374.02097 361.03981,416.96016 383.54358,443.25026 C 406.2307,469.75455 426.58654,482.25135 443.78931,490.98585 C 461.08578,499.76792 491.36735,506.9364 510.72875,506.96062 C 529.43489,506.98485 567.90543,497.66269 582.21554,490.36359 C 596.71875,482.96598 631.23573,464.07976 656.19164,421.16947 C 681.14754,378.25918 686.1005,335.06739 686.5062,318.72247 C 686.91204,302.37223 685.56838,268.96914 671.02456,234.74752 C 656.34662,200.21035 646.21471,189.31397 631.22286,171.73982 C 616.41563,154.38209 594.59651,146.90109 576.1119,132.47747 C 557.85778,118.2337 551.99411,77.903539 548.05803,51.643179 C 539.40267,51.704993 532.70129,51.597772 523.43222,51.615099 C 524.39775,98.794663 538.04712,138.11102 559.16738,150.5187 C 582.16125,164.0271 608.80822,177.13474 622.0579,195.14977 C 648.62165,231.2674 659.90108,262.11068 662.77742,288.7253 C 665.65376,315.53234 663.73384,339.77971 659.79287,356.27322 C 655.84238,372.80656 651.77312,387.98903 638.45824,410.31155 C 625.30677,432.36011 609.10544,448.05944 594.99356,457.03981 C 580.18335,466.46458 565.07058,474.85844 555.47571,476.39601 C 543.75144,478.27481 526.89219,462.18819 522.37314,436.40444 C 518.22635,437.42284 519.68717,437.69903 503.64077,437.25599 C 497.63385,460.09365 485.53817,480.40129 471.2635,476.76608 C 457.07355,473.15245 452.6742,474.5322 426.20413,453.00706 C 399.73404,431.4819 378.11585,398.11314 370.29705,372.37315 C 362.5817,346.97375 360.04392,325.37001 360.531,306.75696 C 361.01811,288.14389 367.18202,263.56516 376.39809,241.03786 C 385.92848,217.74228 395.4993,206.56843 415.82145,183.29648 C 436.30381,159.84107 466.07765,161.14405 482.30452,134.85585 C 490.41793,121.71176 500.18982,99.522313 499.32602,52.133577 C 491.71923,52.02281 485.71053,52.168331 479.50743,52.319997 z "
     style="fill:#fe9d9d;fill-opacity:1;fill-rule:evenodd;stroke:#000000;stroke-width:3.62185192;stroke-linecap:butt;stroke-linejoin:miter;stroke-miterlimit:4;stroke-dasharray:none;stroke-opacity:1"
     id="path8038" />
  <path
     d="M 488.71949,220.49838 C 492.09894,218.75075 493.18546,214.69547 491.8367,212.39932 C 490.60082,210.29539 485.33132,209.37853 482.93684,210.6679 C 457.27482,224.48623 429.79084,262.98556 429.79084,316.26285 C 429.79084,377.49995 466.18883,429.22388 510.52158,429.22388 C 554.85435,429.22388 592.25082,385.04757 592.53407,316.02108 C 592.75642,261.83734 570.20742,225.57722 536.77267,209.71112 C 533.46907,208.7753 528.86145,211.78336 528.34063,213.24559 C 527.81981,214.70782 528.83445,218.98683 532.65377,220.81463 C 536.47308,222.64244 550.13327,228.8436 567.84103,257.35723 C 585.54876,285.87087 579.12536,334.30749 575.82685,355.50994 C 572.52836,376.71238 546.48755,417.10668 510.55125,417.47225 C 474.61493,417.83781 455.34472,382.19578 447.18529,357.15494 C 439.02582,332.11413 440.06744,300.49324 447.87969,273.62463 C 455.69193,246.756 485.30358,222.26486 488.71949,220.49838 z "
     style="fill:#c1e4e7;fill-opacity:1;fill-rule:evenodd;stroke:#000000;stroke-width:2.25193238;stroke-linecap:round;stroke-linejoin:miter;stroke-miterlimit:4;stroke-dashoffset:0;stroke-opacity:1"
     id="path11946" />
  <path
     d="M 484.96918,208.85757 C 488.93567,206.90932 490.21094,202.3885 488.62787,199.82878 C 487.17731,197.4833 481.58016,197.57759 478.76973,199.01497 C 448.64998,214.41962 416.62689,256.1105 416.62689,315.50383 C 416.62689,383.77075 458.85719,439.17579 510.89095,439.17579 C 562.92471,439.17579 605.15499,383.77075 605.15499,315.50383 C 605.15499,255.09948 577.95269,215.30886 538.70999,197.62138 C 534.83255,196.57815 532.08415,199.14209 531.47287,200.77218 C 530.86157,202.40228 532.05247,207.17251 536.53524,209.21013 C 541.01801,211.24775 557.05107,218.16079 577.83483,249.9477 C 598.61857,281.7346 591.07936,335.73158 587.20788,359.368 C 583.3364,383.00442 552.77208,428.03586 510.5933,428.44339 C 468.41453,428.85091 445.79692,389.11728 436.2201,361.20186 C 426.64326,333.28644 427.86584,298.03558 437.03515,268.08253 C 446.20444,238.12949 480.95989,210.82684 484.96918,208.85757 z "
     style="fill:#c1e4e7;fill-opacity:1;fill-rule:evenodd;stroke:#000000;stroke-width:2.57592583;stroke-linecap:round;stroke-linejoin:miter;stroke-miterlimit:4;stroke-dashoffset:0;stroke-opacity:1"
     id="path8044" />
  <path
     d="M 99.793251,469.01481 L 171.98928,364.67671 L 171.98928,364.67671"
     style="fill:none;fill-rule:evenodd;stroke:#000000;stroke-width:2;stroke-linecap:butt;stroke-linejoin:miter;stroke-miterlimit:4;stroke-dasharray:none;stroke-opacity:1"
     id="path10002" />
  <path
     d="M 118.08951,252.67395 L 81.991487,215.58695"
     style="fill:none;fill-rule:evenodd;stroke:#000000;stroke-width:2;stroke-linecap:butt;stroke-linejoin:miter;stroke-miterlimit:4;stroke-dasharray:none;stroke-opacity:1"
     id="path10973" />
  <path
     d="M 176.29635,186.62459 L 176.81551,150.93281"
     style="fill:none;fill-rule:evenodd;stroke:#000000;stroke-width:2;stroke-linecap:butt;stroke-linejoin:miter;stroke-miterlimit:4;stroke-dasharray:none;stroke-opacity:1"
     id="path13892" />
  <path
     d="M 586.56058,251.89348 L 663.60264,167.30144"
     style="fill:none;fill-rule:evenodd;stroke:#000000;stroke-width:2;stroke-linecap:butt;stroke-linejoin:miter;stroke-miterlimit:4;stroke-dasharray:none;stroke-opacity:1"
     id="path13898" />
  <path
     d="M 672.08074,266.08219 L 703.72389,228.05913"
     style="fill:none;fill-rule:evenodd;stroke:#000000;stroke-width:2;stroke-linecap:butt;stroke-linejoin:miter;stroke-miterlimit:4;stroke-dasharray:none;stroke-opacity:1"
     id="path13900" />
  <path
     d="M 676.18832,463.78173 L 516.64123,356.72425"
     style="fill:none;fill-rule:evenodd;stroke:#000000;stroke-width:2;stroke-linecap:butt;stroke-linejoin:miter;stroke-miterlimit:4;stroke-dasharray:none;stroke-opacity:1"
     id="path13902" />
  <path
     d="M 124.61447,152.32036 L 106.12432,152.32036 L 115.36939,136.30742 L 124.61447,152.32036 z "
     transform="matrix(0.7087704,0,0,-0.7209325,94.71561,291.55354)"
     style="opacity:1;fill:#000000;fill-opacity:1;fill-rule:evenodd;stroke:#000000;stroke-width:2;stroke-linecap:round;stroke-linejoin:miter;stroke-miterlimit:4;stroke-dasharray:none;stroke-dashoffset:0;stroke-opacity:1"
     id="path13904" />
  <rect
     width="16.62771"
     height="5.6086802"
     x="480.94614"
     y="50.190414"
     style="opacity:1;fill:#fe9d9d;fill-opacity:1;fill-rule:evenodd;stroke:none;stroke-width:2;stroke-linecap:round;stroke-linejoin:miter;stroke-miterlimit:4;stroke-dasharray:none;stroke-dashoffset:0;stroke-opacity:1"
     id="rect14875" />
  <rect
     width="21.247297"
     height="4.3810444"
     x="525.30585"
     y="49.719521"
     style="opacity:1;fill:#fe9d9d;fill-opacity:1;fill-rule:evenodd;stroke:none;stroke-width:2;stroke-linecap:round;stroke-linejoin:miter;stroke-miterlimit:4;stroke-dasharray:none;stroke-dashoffset:0;stroke-opacity:1"
     id="rect15846" />
  <path
     d="M 510.96868,199.28755 L 510.75511,178.68993"
     style="fill:none;fill-rule:evenodd;stroke:#000000;stroke-width:2;stroke-linecap:butt;stroke-linejoin:miter;stroke-miterlimit:4;stroke-dasharray:none;stroke-opacity:1"
     id="path15848" />
  <path
     d="M 124.61447,152.32036 L 106.12432,152.32036 L 115.36939,136.30742 L 124.61447,152.32036 z "
     transform="matrix(0.7087704,0,0,-0.7209325,429.38794,304.2165)"
     style="opacity:1;fill:#000000;fill-opacity:1;fill-rule:evenodd;stroke:#000000;stroke-width:2;stroke-linecap:round;stroke-linejoin:miter;stroke-miterlimit:4;stroke-dasharray:none;stroke-dashoffset:0;stroke-opacity:1"
     id="path15850" />
  <path
     d="M 514.01034,472.46108 L 513.15522,522.81188"
     style="fill:none;fill-rule:evenodd;stroke:#000000;stroke-width:2;stroke-linecap:butt;stroke-linejoin:miter;stroke-miterlimit:4;stroke-dasharray:none;stroke-opacity:1"
     id="path15852" />
  <path
     d="M 124.61447,152.32036 L 106.12432,152.32036 L 115.36939,136.30742 L 124.61447,152.32036 z "
     transform="matrix(0.7087704,0,0,0.7209325,432.4296,367.53213)"
     style="opacity:1;fill:#000000;fill-opacity:1;fill-rule:evenodd;stroke:#000000;stroke-width:2;stroke-linecap:round;stroke-linejoin:miter;stroke-miterlimit:4;stroke-dasharray:none;stroke-dashoffset:0;stroke-opacity:1"
     id="path15854" />
  <text
     x="177.59616"
     y="304.22952"
     style="font-style:normal;font-weight:normal;font-size:12px;font-family:'Bitstream Vera Sans';text-align:center;text-anchor:middle;fill:#000000;fill-opacity:1;stroke:none;stroke-width:1px;stroke-linecap:butt;stroke-linejoin:miter;stroke-opacity:1"
     id="text15856"
     xml:space="preserve"><tspan
       x="177.59616"
       y="304.22952"
       style="font-weight:bold;font-size:18px"
       id="tspan15858">nucela</tspan></text>
  <text
     x="512.03802"
     y="290.97681"
     style="font-style:normal;font-weight:normal;font-size:12px;font-family:'Bitstream Vera Sans';text-align:center;text-anchor:middle;fill:#000000;fill-opacity:1;stroke:none;stroke-width:1px;stroke-linecap:butt;stroke-linejoin:miter;stroke-opacity:1"
     id="text15860"
     xml:space="preserve"><tspan
       x="512.03802"
       y="290.97681"
       style="font-weight:bold;font-size:18px"
       id="tspan15862">nucela</tspan></text>
  <text
     x="71.38311"
     y="206.05238"
     style="font-style:normal;font-weight:normal;font-size:12px;font-family:'Bitstream Vera Sans';text-align:center;text-anchor:middle;fill:#000000;fill-opacity:1;stroke:none;stroke-width:1px;stroke-linecap:butt;stroke-linejoin:miter;stroke-opacity:1"
     id="text15864"
     xml:space="preserve"><tspan
       x="71.38311"
       y="206.05238"
       style="font-weight:bold;font-size:18px"
       id="tspan15866">integumento</tspan></text>
  <text
     x="157.49767"
     y="80.920647"
     style="font-style:normal;font-weight:normal;font-size:22px;font-family:'Bitstream Vera Sans';text-align:center;text-anchor:middle;fill:#000000;fill-opacity:1;stroke:none;stroke-width:1px;stroke-linecap:butt;stroke-linejoin:miter;stroke-opacity:1"
     id="text15868"
     xml:space="preserve"><tspan
       x="157.49767"
       y="80.920647"
       style="font-weight:bold;font-size:22px"
       id="tspan15870">Gimnospermas</tspan></text>
  <text
     x="512.41626"
     y="173.93814"
     style="font-style:normal;font-weight:normal;font-size:12px;font-family:'Bitstream Vera Sans';text-align:center;text-anchor:middle;fill:#000000;fill-opacity:1;stroke:none;stroke-width:1px;stroke-linecap:butt;stroke-linejoin:miter;stroke-opacity:1"
     id="text15872"
     xml:space="preserve"><tspan
       x="512.41626"
       y="173.93814"
       style="font-weight:bold;font-size:18px"
       id="tspan15874">micrópilo</tspan></text>
  <text
     x="702.04779"
     y="158.00729"
     style="font-style:normal;font-weight:normal;font-size:12px;font-family:'Bitstream Vera Sans';text-align:center;text-anchor:middle;fill:#000000;fill-opacity:1;stroke:none;stroke-width:1px;stroke-linecap:butt;stroke-linejoin:miter;stroke-opacity:1"
     id="text15876"
     xml:space="preserve"><tspan
       x="702.04779"
       y="158.00729"
       style="font-weight:bold;font-size:18px"
       id="tspan15878">integumentos</tspan></text>
  <text
     x="97.405807"
     y="486.00333"
     style="font-style:normal;font-weight:normal;font-size:12px;font-family:'Bitstream Vera Sans';text-align:center;text-anchor:middle;fill:#000000;fill-opacity:1;stroke:none;stroke-width:1px;stroke-linecap:butt;stroke-linejoin:miter;stroke-opacity:1"
     id="text15886"
     xml:space="preserve"><tspan
       x="97.405807"
       y="486.00333"
       style="font-weight:bold;font-size:18px"
       id="tspan15888">megasporocito</tspan></text>
  <text
     x="711.40234"
     y="482.38535"
     style="font-style:normal;font-weight:normal;font-size:18px;font-family:'Bitstream Vera Sans';text-align:center;text-anchor:middle;fill:#000000;fill-opacity:1;stroke:none;stroke-width:1px;stroke-linecap:butt;stroke-linejoin:miter;stroke-opacity:1"
     id="text15894"
     xml:space="preserve"><tspan
       x="711.40234"
       y="482.38535"
       style="font-weight:bold;font-size:18px"
       id="tspan15896">megasporocito</tspan></text>
  <text
     x="514.89777"
     y="541.82733"
     style="font-style:normal;font-weight:normal;font-size:18px;font-family:'Bitstream Vera Sans';text-align:center;text-anchor:middle;fill:#000000;fill-opacity:1;stroke:none;stroke-width:1px;stroke-linecap:butt;stroke-linejoin:miter;stroke-opacity:1"
     id="text15898"
     xml:space="preserve"><tspan
       x="514.89777"
       y="541.82733"
       style="font-weight:bold;font-size:18px"
       id="tspan15900">funículo</tspan></text>
  <text
     x="194.90961"
     y="142.93465"
     style="font-style:normal;font-weight:normal;font-size:12px;font-family:'Bitstream Vera Sans';text-align:center;text-anchor:middle;fill:#000000;fill-opacity:1;stroke:none;stroke-width:1px;stroke-linecap:butt;stroke-linejoin:miter;stroke-opacity:1"
     id="text15906"
     xml:space="preserve"><tspan
       x="177.59616"
       y="142.93465"
       style="font-weight:bold;font-size:18px"
       id="tspan15908">micrópilo</tspan></text>
  <text
     x="520.16656"
     y="30.877798"
     style="font-style:normal;font-weight:normal;font-size:22px;font-family:'Bitstream Vera Sans';text-align:center;text-anchor:middle;fill:#000000;fill-opacity:1;stroke:none;stroke-width:1px;stroke-linecap:butt;stroke-linejoin:miter;stroke-opacity:1"
     id="text15910"
     xml:space="preserve"><tspan
       x="520.16656"
       y="30.877798"
       style="font-weight:bold;font-size:22px"
       id="tspan15912">Angiospermas</tspan></text>
  <path
     d="M 432.6938,105.3724 L 432.48023,84.774781"
     style="fill:none;fill-rule:evenodd;stroke:#000000;stroke-width:2;stroke-linecap:butt;stroke-linejoin:miter;stroke-miterlimit:4;stroke-dasharray:none;stroke-opacity:1"
     id="path15914" />
  <path
     d="M 124.61447,152.32036 L 106.12432,152.32036 L 115.36939,136.30742 L 124.61447,152.32036 z "
     transform="matrix(0.7087704,0,0,-0.7209325,351.11306,210.30135)"
     style="opacity:1;fill:#000000;fill-opacity:1;fill-rule:evenodd;stroke:#000000;stroke-width:2;stroke-linecap:round;stroke-linejoin:miter;stroke-miterlimit:4;stroke-dasharray:none;stroke-dashoffset:0;stroke-opacity:1"
     id="path15916" />
  <path
     d="M 433.11042,58.236784 L 432.89685,78.834404"
     style="fill:none;fill-rule:evenodd;stroke:#000000;stroke-width:2;stroke-linecap:butt;stroke-linejoin:miter;stroke-miterlimit:4;stroke-dasharray:none;stroke-opacity:1"
     id="path15918" />
  <path
     d="M 124.61447,152.32036 L 106.12432,152.32036 L 115.36939,136.30742 L 124.61447,152.32036 z "
     transform="matrix(0.7087704,0,0,0.7209325,351.52968,-46.692165)"
     style="opacity:1;fill:#000000;fill-opacity:1;fill-rule:evenodd;stroke:#000000;stroke-width:2;stroke-linecap:round;stroke-linejoin:miter;stroke-miterlimit:4;stroke-dasharray:none;stroke-dashoffset:0;stroke-opacity:1"
     id="path15920" />
  <text
     x="388.8215"
     y="71.909935"
     style="font-style:normal;font-weight:normal;font-size:12px;font-family:'Bitstream Vera Sans';text-align:center;text-anchor:middle;fill:#000000;fill-opacity:1;stroke:none;stroke-width:1px;stroke-linecap:butt;stroke-linejoin:miter;stroke-opacity:1"
     id="text15922"
     xml:space="preserve"><tspan
       x="388.8215"
       y="71.909935"
       style="font-weight:normal;font-size:18px"
       id="tspan15924">estilo</tspan></text>
  <text
     x="388.82153"
     y="101.07363"
     style="font-style:normal;font-weight:normal;font-size:12px;font-family:'Bitstream Vera Sans';text-align:center;text-anchor:middle;fill:#000000;fill-opacity:1;stroke:none;stroke-width:1px;stroke-linecap:butt;stroke-linejoin:miter;stroke-opacity:1"
     id="text15926"
     xml:space="preserve"><tspan
       x="388.82153"
       y="101.07363"
       style="font-weight:normal;font-size:18px"
       id="tspan15928">ovario</tspan></text>
  <g
     id="g3420">
    <text
       xml:space="preserve"
       id="text15880"
       style="font-style:normal;font-weight:normal;font-size:12px;font-family:'Bitstream Vera Sans';text-align:center;text-anchor:middle;fill:#000000;fill-opacity:1;stroke:none;stroke-width:1px;stroke-linecap:butt;stroke-linejoin:miter;stroke-opacity:1"
       y="195.108"
       x="744.31439"><tspan
         id="tspan15884"
         style="font-weight:bold;font-size:18px"
         y="217.608"
         x="744.31439">pared del</tspan></text>
    <text
       xml:space="preserve"
       id="text15880-3"
       style="font-style:normal;font-weight:normal;font-size:12px;font-family:'Bitstream Vera Sans';text-align:center;text-anchor:middle;fill:#000000;fill-opacity:1;stroke:none;stroke-width:1px;stroke-linecap:butt;stroke-linejoin:miter;stroke-opacity:1"
       y="217.5867"
       x="744.52722"><tspan
         id="tspan15884-1"
         style="font-weight:bold;font-size:18px"
         y="240.0867"
         x="744.52722">ovario</tspan></text>
  </g>
</svg>
