<svg xmlns="http://www.w3.org/2000/svg" width="941" height="847">
  <defs>
    <linearGradient id="b" x1="581.2" y1="284.8" x2="651.3" y2="284.8" gradientUnits="userSpaceOnUse"><stop offset="0" stop-color="#c38145"/><stop offset="1" stop-color="#ffd47d"/></linearGradient>
    <linearGradient id="a" x1="255" y1="331.5" x2="320.8" y2="331.5" gradientUnits="userSpaceOnUse"><stop offset="0" stop-color="#fffbf2"/><stop offset="1" stop-color="#ffe495"/></linearGradient>
    <linearGradient id="d" x1="272.5" y1="384.9" x2="449.8" y2="386.4" gradientUnits="userSpaceOnUse"><stop offset="0" stop-color="#fffbf2"/><stop offset=".5" stop-color="#ffd77f"/><stop offset="1" stop-color="#be7940"/></linearGradient>
    <linearGradient id="e" x1="449.7" y1="369.9" x2="623.7" y2="392.4" gradientUnits="userSpaceOnUse"><stop offset="0" stop-color="#fed986"/><stop offset=".3" stop-color="#fff"/><stop offset=".5" stop-color="#ffe49a"/><stop offset=".7" stop-color="#f5c573"/><stop offset="1" stop-color="#bb753d"/></linearGradient>
    <linearGradient id="c" x1="366.4" y1="693.2" x2="477.3" y2="693.2" gradientUnits="userSpaceOnUse"><stop offset="0" stop-color="#82522c"/><stop offset=".75" stop-color="#d98443"/><stop offset="1" stop-color="#82522c"/></linearGradient>
  </defs>
  <g font-size="64" font-family="sans-serif">
    <text x="259" y="722" text-anchor="end"><tspan x="259" y="722">1</tspan></text>
    <text x="191" y="529" text-anchor="end"><tspan x="191" y="529">2</tspan></text>
    <text x="375" y="161" text-anchor="middle"><tspan x="375" y="161">3</tspan></text>
    <text x="763" y="214" text-anchor="middle"><tspan x="763" y="214">4</tspan></text>
  </g>
  <g stroke="#000" stroke-width="2">
    <path d="m254 287 43 253c1 3 8 6 8 6h15V287Z" fill="url(#a)"/>
    <path d="M597 547s8-5 9-11l45-251h-70v262Z" fill="url(#b)"/>
    <path d="M434 811c0 8 6 14 18 14s25-6 25-14c-4-86-6-171-7-250l-45 2c5 74 6 165 9 248z" fill="url(#c)"/>
    <path d="m450 600-4 2c-37 75-124 38-132-6l-42-228c6 27 49 39 82 39 30 0 77-11 90-35l6-2z" fill="url(#d)" stroke="none"/>
    <path d="m450 370 6 2c13 25 59 35 89 35 36 0 80-15 84-43l-40 231c-6 30-34 51-71 51-26 0-47-17-63-44-1-2-3-2-5-2z" fill="url(#e)" stroke="none"/>
    <path d="M441 374c7-6 13-5 18 0l75-111c-12-10-129-14-160 0Z" fill="#ffe185"/>
    <path d="M315 320v-2c-17 0-61-12-61-35 0-27 48-44 86-44 24 0 72 8 72 33 0 12-9 16-9 27 0 29 44 27 44 60 0 34-58 48-93 48-36 0-82-14-82-44 0-21 21-35 43-43zm273 0v-2c17-1 64-11 64-36 0-27-46-43-84-43-24 0-73 5-73 35 0 12 6 13 6 24 0 30-47 29-47 62s56 47 91 47c37 0 84-16 84-46 0-19-19-33-41-41z" fill="#f2bc76"/>
    <path d="M435 280c0 6 10 13 17 13 8 0 19-6 19-13s-12-6-18-6c-7 0-18 0-18 6z" fill="#d15530"/>
    <path d="M320 306c8 0 21 3 22 11 1 6-8 10-14 12-14 5-33 16-33 31 0 21 33 32 59 32 37 0 70-15 70-37 0-21-33-31-54-32-8-1-22-1-22-9 0-7 9-10 15-12 14-4 30-14 30-27 0-18-34-26-54-26-23 0-64 10-64 32 0 17 29 24 45 25zm263 0c-8 0-21 3-22 11-1 6 8 10 14 12 14 5 29 15 29 30 0 21-33 33-59 33-36 0-69-14-69-36 0-21 33-33 57-33 7-1 22-1 22-9 0-7-9-10-15-12-14-4-28-14-28-25 0-19 32-28 55-28s62 9 62 31c0 17-28 25-46 26z" fill="#fff3d6"/>
    <path d="m272 368 42 228c8 44 95 81 132 6 1-3 7-3 9 0 16 27 37 44 63 44 37 0 65-21 71-51l40-231M450 600V370" fill="none"/>
    <path visibility="visible" d="m393 172 39 90m313-38-172 47M326 523l-125 7m67 192 162-35" fill="none"/>
  </g>
</svg>
