<?xml version="1.0" encoding="UTF-8"?>
<svg width="600" height="560" version="1.1" xmlns="http://www.w3.org/2000/svg" xmlns:xlink="http://www.w3.org/1999/xlink">
 <use transform="matrix(-1 0 0 1 600 0)" xlink:href="#a"/>
 <g id="a" stroke="#000">
  <g>
   <path d="m204.56 305.49c-107.12-44.734-171.81-176.93-187.08-225.99-11.525-37.014-9.2536-60.838 6.2373-67.155 18.435-7.5174 51.874 9.5372 90.067 64.331 29.629 42.507 31.299 100.2 96.01 221.09z" fill="#f7ee5d"/>
   <path d="m203.94 310.35c10.355-49.246-8.5549-120.63-9.0431-161.02-0.68447-56.764 19.579-75.063 28.306-77.964l-0.32741 15.817c-10.87 9.4306-14.689 18.225-17.711 51.233-4.482 48.953 23.253 86.98 18.785 139.53 0.0136 0.91095-3.8837 4.3211-4.6402 4.8455 9.5374-6.0455 15.53-30.89 12.071-66.929-2.8175-29.268-4.7762-53.901 14.294-64.428l2.1789 8.6254c-8.9979 9.8869-10.543 46.311-2.2692 76.802 8.0403 29.631 1.4805 65.656-25.41 74.518z" fill="#ecac09"/>
   <path d="m201.87 314.62c-4.4231-8.4305-37.253-8.5691-65.902-8.8966-44.589-0.50798-46.404-19.317-52.998-35.026 12.145 15.113 22.947 18.6 44.218 18.318 23.33-0.30688 30.026-0.83106 46.795-1.543 16.994-0.72152 32.547 16.283 32.154 16.479l4.2675 8.5351z" fill="#79c010"/>
  </g>
  <path d="m270.36 146.71a15.038 19.424 0 1 1-30.076 0 15.038 19.424 0 1 1 30.076 0z" fill="#c43a00" stroke-linecap="round" stroke-linejoin="round"/>
  <path d="m248.34 73.49a15.769 23.392 0 1 1-31.538 0 15.769 23.392 0 1 1 31.538 0z" fill="#c43a00" stroke-linecap="round" stroke-linejoin="round"/>
 </g>
 <path d="m282.95 442.64s-13.114-11.773-14.243-35.314c-1.1355-23.671 20.996-48.795 20.644-62.84-1.2174-48.635 3.0465-76.156 0.85351-118-2.4526-47.033-4.0702-81.246 0.88018-124.83 0 0-9.3886-5.4452-9.3886-14.243 0-9.3886 10.429-16.057 18.964-16.057s18.216 6.6395 18.564 16.003c0.37023 9.9739-9.8967 14.581-9.8153 14.723-3.0331 33.624-5.473 72.319-0.85351 127.17 4.1349 49.046-2.4919 68.079-0.53344 111.06 1.0524 23.099 19.382 40.072 20.164 61.773 0.92586 25.677-11.096 40.542-11.096 40.542z" fill="#f7cf00" stroke="#000"/>
 <path d="m212.39 303.87c-8.8559 0.018-18.117 5.3835-18.204 15.016-0.78849 87.581 62.335 139.59 82.363 147.23 5.1736 1.974 5.4874 57.612 4.2675 83.217h38.368c-1.2199-25.605-0.90606-81.243 4.2675-83.217 20.028-7.6419 83.152-59.649 82.363-147.23-0.16822-18.682-34.851-21.33-34.14 0 1.8891 56.673-31.511 105.65-54.624 106.69-11.453-0.20322-22.648 0.384-34.1 0-23.114-1.04-56.514-50.016-54.624-106.69 0.34439-10.332-7.6174-15.033-15.937-15.016z" fill="#79aa00" stroke="#000"/>
 <g font-family="'Liberation Sans'" font-size="60">
  <text x="381" y="487">1</text>
  <text x="497" y="365">2</text>
  <text x="539" y="232">3</text>
  <text x="390" y="77">4</text>
  <text x="284" y="57">5</text>
 </g>
</svg>