<?xml version="1.0" encoding="UTF-8" standalone="no"?>
<!-- Created with Inkscape (http://www.inkscape.org/) -->

<svg
   xmlns:dc="http://purl.org/dc/elements/1.1/"
   xmlns:cc="http://creativecommons.org/ns#"
   xmlns:rdf="http://www.w3.org/1999/02/22-rdf-syntax-ns#"
   xmlns:svg="http://www.w3.org/2000/svg"
   xmlns="http://www.w3.org/2000/svg"
   xmlns:sodipodi="http://sodipodi.sourceforge.net/DTD/sodipodi-0.dtd"
   xmlns:inkscape="http://www.inkscape.org/namespaces/inkscape"
   version="1.0"
   width="400.40903"
   height="428.80743"
   viewBox="0 0 400.40903 428.80743"
   id="svg5467"
   xml:space="preserve"
   inkscape:version="0.48.0 r9654"
   sodipodi:docname="Doppelschraubel_(inflorescence).svg"><metadata
   id="metadata28"><rdf:RDF><cc:Work
       rdf:about=""><dc:format>image/svg+xml</dc:format><dc:type
         rdf:resource="http://purl.org/dc/dcmitype/StillImage" /></cc:Work></rdf:RDF></metadata><sodipodi:namedview
   pagecolor="#ffffff"
   bordercolor="#666666"
   borderopacity="1"
   objecttolerance="10"
   gridtolerance="10"
   guidetolerance="10"
   inkscape:pageopacity="0"
   inkscape:pageshadow="2"
   inkscape:window-width="1600"
   inkscape:window-height="845"
   id="namedview26"
   showgrid="false"
   fit-margin-top="0"
   fit-margin-left="0"
   fit-margin-right="0"
   fit-margin-bottom="0"
   inkscape:zoom="0.6758916"
   inkscape:cx="44.75368"
   inkscape:cy="332.85166"
   inkscape:window-x="-4"
   inkscape:window-y="-4"
   inkscape:window-maximized="1"
   inkscape:current-layer="Ebene_1" /><defs
   id="defs5515">
				
				
				
				
				
				
				
				
				
				
				
				
				
				
				
				
				
				
				
				
			</defs>
	
		<g
   transform="matrix(0.989173,0,0,0.989173,-114.08426,-5.0260026e-4)"
   id="Ebene_1">
			<path
   inkscape:connector-curvature="0"
   id="path5474"
   style="fill:#ff0000"
   d="m 115.91797,15.203613 c 1.9126,-13.5605466 20.34131,-19.8193356 30.25146,-10.7792966 7.82373,5.3896484 9.21436,17.7333986 3.47705,25.0361326 -1.04296,1.216309 -2.26074,2.259766 -3.30371,3.477051 -12.16992,12.169922 -34.94482,-1.217285 -30.4248,-17.733887 l 0,0 z" /><path
   inkscape:connector-curvature="0"
   id="path5476"
   style="fill:#ff0000"
   d="m 494.92578,1.1210938 c 13.56055,-5.2158203 29.03516,8.6928711 24.34082,22.7753902 -2.7832,12.690918 -20.86328,18.254883 -30.0791,9.041016 -1.04199,-1.043457 -2.25977,-2.260742 -3.30176,-3.477051 -7.47558,-9.215332 -2.25976,-24.8623045 9.04004,-28.3393552 l 0,0 z" /><path
   inkscape:connector-curvature="0"
   id="path5478"
   style="fill:#00c400"
   d="m 146.34277,32.9375 c 1.04297,-1.217285 2.26075,-2.260742 3.30371,-3.477051 55.45997,52.677735 109.70313,106.573241 165.33692,159.251951 0.17383,-27.29492 0.17383,-54.76465 0.17383,-82.06006 1.3916,0 3.82519,0 5.21582,0 0,27.29541 0,54.59131 0.1748,82.06006 55.45996,-52.67871 109.87695,-106.3999 165.33789,-159.251951 1.04199,1.216309 2.25977,2.433594 3.30176,3.477051 -19.81836,19.297363 -59.80566,57.719727 -59.80566,57.719727 -3.97607,4.049636 -6.60511,6.416363 -10.25782,10.431153 0,0 -45.72461,43.46484 -67.97754,65.8916 -9.38867,9.73633 -21.03613,17.38574 -29.20898,28.16504 -0.69434,2.25977 -1.21582,4.69434 -1.73828,7.12891 0.17383,77.01757 0.17383,154.21093 0.17383,231.22754 -1.21582,0 -3.99805,0 -5.21582,0 -0.17383,-77.01661 0.1748,-154.03614 0,-231.05372 -0.34668,-2.43457 -0.69532,-4.86914 -1.38965,-7.30273 -32.16406,-31.6416 -97.36035,-94.05664 -97.36035,-94.05664 l -5.84545,-5.615049 -4.41139,-4.816105 c 0,0 -40.16113,-38.248535 -59.80762,-57.719726 z"
   sodipodi:nodetypes="ccccccccccccccccccccc" /><path
   inkscape:connector-curvature="0"
   id="path5480"
   style="fill:#ff0000"
   d="m 301.0752,80.57373 c 3.30371,-11.648437 18.42871,-13.21289 27.46972,-8.171386 13.03906,9.214844 8.17188,33.032716 -8.17187,34.249996 -1.39063,0 -3.82422,0 -5.21582,0 C 302.81348,105.7832 295.68652,91.179199 301.0752,80.57373 l 0,0 z" /><path
   inkscape:connector-curvature="0"
   id="path5502"
   d="m 271.17188,197.92725 c 14.083,-0.69532 28.51269,-1.21778 42.5957,-2.78223 0.69433,2.43359 1.04297,4.86816 1.38965,7.30273 -3.12891,2.25977 -5.5625,7.30176 -10.25684,6.43164 -11.47461,-3.1289 -22.60156,-6.9541 -33.72851,-10.95214 l 0,0 z" /><path
   inkscape:connector-curvature="0"
   id="path5504"
   d="m 320.19922,202.27393 c 0.52246,-2.43457 1.04394,-4.86914 1.73828,-7.12891 14.08301,1.04394 28.33984,1.73926 42.4209,2.6084 -10.77735,3.82519 -21.38379,7.99707 -32.50977,10.60547 -5.04199,1.91211 -8.3457,-3.30371 -11.64941,-6.08496 l 0,0 z" />
		</g>
	</svg>