<?xml version="1.0"?>
<svg xmlns="http://www.w3.org/2000/svg" width="330" height="662">
<path stroke="#0C0" stroke-width="4" d="m165,18v642m3,0V18m38
32-40,29m-40,14 40,29m70,3-70,54m-70-9 70,54m90-9-90,67m-90-22
90,67m112-25-112,84m-112-40 112,84m140-44-140,106m-140-63 140,106"/>
<path fill="#0C0" d="m121,124h47l-18,9zm0,99h47l-18,9zm0,105h47l-18
9zm0,104h47l-18,9zm0,104h47l-18,9zm92-456-29,9-18-9zm0,99-29
9-18-9zm0,104-29,9-18-9zm0,102-29,9-18-9zm0,105-29,9-18-9z"/>
<path stroke="#F00" stroke-width="29" stroke-linecap="round"
d="m212,44h0m27,77h0m22,92h0m24,82h0m26,90h0m-294
40h0m28-86h0m24-85h0m22-86h0m27-80h0"/>
</svg>