<?xml version="1.0" encoding="UTF-8" standalone="no"?>
<!-- Generator: Adobe Illustrator 12.0.0, SVG Export Plug-In . SVG Version: 6.00 Build 51448)  -->
<svg
   xmlns:dc="http://purl.org/dc/elements/1.1/"
   xmlns:cc="http://web.resource.org/cc/"
   xmlns:rdf="http://www.w3.org/1999/02/22-rdf-syntax-ns#"
   xmlns:svg="http://www.w3.org/2000/svg"
   xmlns="http://www.w3.org/2000/svg"
   xmlns:xlink="http://www.w3.org/1999/xlink"
   xmlns:sodipodi="http://sodipodi.sourceforge.net/DTD/sodipodi-0.dtd"
   xmlns:inkscape="http://www.inkscape.org/namespaces/inkscape"
   version="1.0"
   id="Layer_1"
   width="473"
   height="252"
   viewBox="0 0 470 252"
   overflow="visible"
   enable-background="new 0 0 470 252"
   xml:space="preserve"
   sodipodi:version="0.32"
   inkscape:version="0.45.1"
   sodipodi:docname="Mature_flower_diagram-es.svg"
   sodipodi:docbase="C:\Documents and Settings\HP_Administrator\Desktop"
   inkscape:output_extension="org.inkscape.output.svg.inkscape"><metadata
   id="metadata2770"><rdf:RDF><cc:Work
       rdf:about=""><dc:format>image/svg+xml</dc:format><dc:type
         rdf:resource="http://purl.org/dc/dcmitype/StillImage" /></cc:Work></rdf:RDF></metadata><defs
   id="defs2768">
	
	
		

	
	
<radialGradient
   inkscape:collect="always"
   xlink:href="#XMLID_21_"
   id="radialGradient21742"
   cx="409.73538"
   cy="136.81927"
   fx="409.73538"
   fy="136.81927"
   r="3.5517764"
   gradientTransform="matrix(1,0,0,0.959659,0,5.51942)"
   gradientUnits="userSpaceOnUse" /><radialGradient
   inkscape:collect="always"
   xlink:href="#XMLID_21_"
   id="radialGradient21744"
   cx="391.27673"
   cy="153.35336"
   fx="391.27673"
   fy="153.35336"
   r="3.5509582"
   gradientTransform="matrix(1,0,0,0.959644,0,6.188797)"
   gradientUnits="userSpaceOnUse" /><radialGradient
   inkscape:collect="always"
   xlink:href="#XMLID_21_"
   id="radialGradient21746"
   cx="396.10944"
   cy="146.50676"
   fx="396.10944"
   fy="146.50676"
   r="3.5510955"
   gradientTransform="matrix(1,0,0,0.959853,0,5.881766)"
   gradientUnits="userSpaceOnUse" /><radialGradient
   inkscape:collect="always"
   xlink:href="#XMLID_21_"
   id="radialGradient21748"
   cx="403.76544"
   cy="150.67404"
   fx="403.76544"
   fy="150.67404"
   r="3.5508182"
   gradientTransform="matrix(1,0,0,0.96011,0,6.010434)"
   gradientUnits="userSpaceOnUse" /><radialGradient
   inkscape:collect="always"
   xlink:href="#XMLID_21_"
   id="radialGradient21750"
   cx="410.40152"
   cy="147.0681"
   fx="410.40152"
   fy="147.0681"
   r="3.551748"
   gradientTransform="matrix(1,0,0,0.959638,0,5.935965)"
   gradientUnits="userSpaceOnUse" /><radialGradient
   inkscape:collect="always"
   xlink:href="#XMLID_21_"
   id="radialGradient21752"
   cx="422.14764"
   cy="141.45657"
   fx="422.14764"
   fy="141.45657"
   r="3.5512972"
   gradientTransform="matrix(1,0,0,0.959872,0,5.676407)"
   gradientUnits="userSpaceOnUse" /><radialGradient
   inkscape:collect="always"
   xlink:href="#XMLID_21_"
   id="radialGradient21754"
   cx="430.73624"
   cy="150.28423"
   fx="430.73624"
   fy="150.28423"
   r="3.5521369"
   gradientTransform="matrix(1,0,0,0.959442,0,6.095197)"
   gradientUnits="userSpaceOnUse" /><radialGradient
   inkscape:collect="always"
   xlink:href="#XMLID_21_"
   id="radialGradient21756"
   cx="439.98346"
   cy="140.95198"
   fx="439.98346"
   fy="140.95198"
   r="3.5510936"
   gradientTransform="matrix(1,0,0,0.959815,0,5.664172)"
   gradientUnits="userSpaceOnUse" /><radialGradient
   inkscape:collect="always"
   xlink:href="#XMLID_21_"
   id="radialGradient21758"
   cx="414.46945"
   cy="136.55527"
   fx="414.46945"
   fy="136.55527"
   r="3.5510955"
   gradientTransform="matrix(1,0,0,0.959973,0,5.465924)"
   gradientUnits="userSpaceOnUse" /><radialGradient
   inkscape:collect="always"
   xlink:href="#XMLID_21_"
   id="radialGradient21760"
   cx="414.31204"
   cy="143.98151"
   fx="414.31204"
   fy="143.98151"
   r="3.5510938"
   gradientTransform="matrix(1,0,0,0.959826,0,5.784344)"
   gradientUnits="userSpaceOnUse" /><radialGradient
   inkscape:collect="always"
   xlink:href="#XMLID_21_"
   id="radialGradient21762"
   cx="405.24283"
   cy="146.61064"
   fx="405.24283"
   fy="146.61064"
   r="3.5514638"
   gradientTransform="matrix(1,0,0,0.959562,0,5.928619)"
   gradientUnits="userSpaceOnUse" /><radialGradient
   inkscape:collect="always"
   xlink:href="#XMLID_21_"
   id="radialGradient21764"
   cx="405.92029"
   cy="141.62518"
   fx="405.92029"
   fy="141.62518"
   r="3.5512643"
   gradientTransform="matrix(1,0,0,0.959768,0,5.697878)"
   gradientUnits="userSpaceOnUse" /><radialGradient
   inkscape:collect="always"
   xlink:href="#XMLID_21_"
   id="radialGradient21766"
   cx="395.36856"
   cy="152.87704"
   fx="395.36856"
   fy="152.87704"
   r="3.5514722"
   gradientTransform="matrix(1,0,0,0.959673,0,6.165136)"
   gradientUnits="userSpaceOnUse" /><radialGradient
   inkscape:collect="always"
   xlink:href="#XMLID_21_"
   id="radialGradient21768"
   cx="393.46487"
   cy="150.08954"
   fx="393.46487"
   fy="150.08954"
   r="3.5510981"
   gradientTransform="matrix(1,0,0,0.959892,0,6.019726)"
   gradientUnits="userSpaceOnUse" /><radialGradient
   inkscape:collect="always"
   xlink:href="#XMLID_21_"
   id="radialGradient21770"
   cx="400.05289"
   cy="150.0675"
   fx="400.05289"
   fy="150.0675"
   r="3.5512314"
   gradientTransform="matrix(1,0,0,0.959766,0,6.037742)"
   gradientUnits="userSpaceOnUse" /><radialGradient
   inkscape:collect="always"
   xlink:href="#XMLID_21_"
   id="radialGradient21772"
   cx="399.11563"
   cy="146.71059"
   fx="399.11563"
   fy="146.71059"
   r="3.5512643"
   gradientTransform="matrix(1,0,0,0.959758,0,5.903979)"
   gradientUnits="userSpaceOnUse" /></defs><sodipodi:namedview
   inkscape:window-height="718"
   inkscape:window-width="1024"
   inkscape:pageshadow="2"
   inkscape:pageopacity="0.0"
   guidetolerance="10.0"
   gridtolerance="10.0"
   objecttolerance="10.0"
   borderopacity="1.0"
   bordercolor="#666666"
   pagecolor="#ffffff"
   id="base"
   inkscape:zoom="4.2426406"
   inkscape:cx="417.02125"
   inkscape:cy="69.002865"
   inkscape:window-x="0"
   inkscape:window-y="16"
   inkscape:current-layer="Layer_1"
   width="473px"
   height="252px" />
<rect
   width="470"
   height="252"
   id="rect2341"
   x="0"
   y="0"
   style="fill:none" />
<path
   d="M 398.00295,168.89104 C 389.45195,167.50404 391.87195,160.85804 388.74795,154.37104 C 386.85495,150.43504 383.65895,151.90504 380.74095,149.51404 C 367.98495,139.05104 389.05195,127.20804 397.08595,123.64304 C 406.19795,119.60104 415.82095,116.26004 425.82095,115.46504 C 429.17195,115.19904 438.25895,113.86904 437.69095,119.76204 C 437.22295,124.61604 426.18795,128.78504 422.75995,131.48704 C 420.52295,133.24704 418.66395,135.34704 416.11395,136.68604 C 421.83595,133.68304 434.69395,122.58204 441.50495,125.20304 C 448.53395,127.90704 440.97595,137.46204 438.60295,141.00604 C 431.92495,150.97804 424.73595,160.33004 413.82395,165.91604 C 408.68095,168.54904 403.84195,169.79304 398.12995,168.91204 C 398.08695,168.90504 398.04395,168.89704 398.00295,168.89104 z "
   id="path2343"
   style="fill:#ffff00;stroke:#7c4e00;stroke-width:1.05340004;stroke-opacity:1" />
<g
   id="g2345"
   style="stroke:#935a00;stroke-opacity:1">
	<path
   d="M 113.983,96.063 C 117.953,95.952 121.331,92.369 125.943,92.201 C 129.907,92.057 134.894,91.526 138.545,89.695 C 141.426,88.248 142.378,86.489 145.824,85.963 C 149.024,85.474 152.473,85.975 155.667,85.636 C 153.775,85.836 147.923,81.481 145.706,80.676 C 141.498,79.148 136.831,78.037 132.373,79.078 C 124.49,80.917 115.988,88.047 113.983,96.063 z "
   id="path2347"
   style="fill:#ef9c22;stroke:#935a00;stroke-width:0.52670002;stroke-opacity:1" />
	<path
   d="M 342.332,137.401 C 338.776,133.838 332.009,135.046 329.12,131.373 C 325.808,127.165 326.682,119.502 323.474,114.514 C 321.849,111.989 320.312,109.922 318.054,107.891 C 315.113,105.242 315.22,106.461 315.275,102.079 C 315.416,91.502 309.437,82.866 298.478,80.566 C 293.822,79.589 291.491,79.291 287.861,76.469 C 282.681,72.442 277.664,72.563 271.563,70.536 C 257.039,65.709 242.128,58.286 227.003,57.918 C 220.286,57.754 209.129,61.898 202.864,59.327 C 197.889,57.286 198.953,54.048 192.588,55.385 C 183.884,57.213 173.727,57.725 166.981,50.881 C 160.26,44.061 162.595,36.603 170.302,32.188 C 190.692,20.509 205.729,30.125 224.216,40.12 C 229.579,43.018 235.015,43.648 240.939,44.843 C 246.857,46.038 252.66,46.731 258.406,48.55 C 263.484,50.158 268.358,50.562 273.175,52.745 C 277.768,54.825 282.614,56.521 287.536,57.617 C 303.998,61.282 316.322,72.784 327.553,85.04 C 336.418,94.712 349.28,110.498 348.449,124.166 C 348.076,130.279 348.866,133.402 351.04,138.795 C 351.973,141.11 353.109,144.977 350.12,145.803 C 346.37,146.841 344.359,139.433 342.332,137.401 z "
   id="path2349"
   style="fill:#ef9c22;stroke:#935a00;stroke-width:0.52670002;stroke-opacity:1" />
	<path
   d="M 291.83,73.998 C 303.415,67.547 315.977,59.7 327.096,70.942 C 331.686,75.583 336.307,80.291 340.028,85.68 C 343.276,90.384 344.496,95.278 346.716,100.327 C 349.013,105.551 350.576,109.22 350.766,115.142 C 350.928,120.211 350.384,125.36 351.34,130.375 C 352.195,134.846 355.576,140.459 355.156,144.935 C 350.201,146.395 348.707,141.505 347.568,137.936 C 345.888,132.663 344.279,127.325 340.38,123.222 C 336.036,118.65 330.413,117.783 324.019,118.318 C 304.845,119.924 284.04,125.166 269.348,138.356 C 260.298,146.48 253.716,157.009 243.962,164.403 C 239.595,167.713 235.638,170.899 230.485,172.569 C 220.797,175.707 207.307,175.701 200.331,167.46 C 196.21,162.591 194.036,155.745 192.03,149.721 C 187.817,137.073 187.311,123.594 181.017,111.614 C 175.397,100.913 167.309,90.981 156.209,85.699 C 144.852,80.298 135.562,76.528 125.158,85.871 C 122.398,88.35 119.133,93.555 115.881,95.043 C 110.855,97.341 111.432,92.14 111.604,87.556 C 112.312,68.57 131.459,65.699 141.409,52.344 C 143.627,49.365 144.192,45.684 145.78,42.645 C 150.404,33.787 162.509,30.046 171.695,28.767 C 182.864,27.213 193.325,35.879 199.821,44.278 C 207.096,53.686 209.721,66.242 211.883,77.632 C 213.545,86.395 214.084,95.181 215.789,103.768 C 217.167,110.715 218.377,119.797 217.859,126.857 C 217.673,118.538 216.987,110.392 216.369,102.15 C 215.543,91.117 216.117,79.549 213.647,68.735 C 211.188,57.974 205.697,47.74 199.151,38.923 C 196.064,34.766 188.001,28.095 182.657,28.162 C 184.271,21.066 198.044,22.106 202.979,23.44 C 223.41,28.963 238.338,44.63 260.417,45.489 C 271.357,45.915 284.676,40.702 294.678,46.276 C 297.662,47.938 300.088,50.589 302.934,52.468 C 305.288,54.019 310.72,56.697 310.304,60.217 C 309.859,63.989 300.94,67.185 298.11,68.711 C 292.421,71.774 287.47,75.836 282.241,79.589 C 269.276,88.888 256.622,102.377 247.143,115.177 C 248.705,110.661 254.055,105.789 257.309,102.387 C 263.365,96.049 270.343,89.657 277.098,84.036 C 281.672,80.234 286.628,76.896 291.83,73.998 z "
   id="path2351"
   style="fill:#f2ca20;stroke:#935a00;stroke-width:0.52670002;stroke-opacity:1" />
	<path
   d="M 193.509,127.446 C 197.101,135.902 200.239,144.334 203.154,153.019 C 204.335,156.537 205.589,165.511 211.235,163.989 C 211.588,159.994 209.432,154.941 208.403,150.971 C 206.152,142.284 205.433,133.306 205.149,124.299 C 205.094,131.347 208.78,139.75 211.355,146.177 C 212.544,149.145 213.46,153.513 215.773,155.402 C 215.747,151.118 214.961,146.745 215.128,142.39 C 218.931,144.226 222.354,149.189 226.727,146.398 C 230.519,143.979 232.94,136.504 234.752,132.593 C 231.186,139.683 225.62,146.495 223.926,154.653 C 226.106,155.106 226.608,152.971 228.071,151.595 C 232.787,147.164 237.104,142.682 241.257,137.711 C 249.804,127.482 260.257,120.736 269.571,111.607 C 266.168,115.929 261.63,119.219 257.639,122.967 C 252.717,127.594 248.5,132.921 244.057,138.004 C 239.144,143.625 235.268,150.181 230.244,155.67 C 240.721,150.092 249.266,138.438 258.526,130.824 C 264.931,125.559 273.409,118.967 281.251,116.145 C 269.45,125.851 258.567,136.188 247.255,146.405 C 241.39,151.705 234.817,155.308 228.538,159.977 C 226.136,161.763 222.376,164.182 221.028,166.941 C 229.119,162.513 236.694,158.859 243.815,152.698 C 253.393,144.411 262.163,134.91 272.778,127.881 C 284.749,119.952 297.905,115.005 311.841,111.732 C 316.659,110.599 322.348,108.199 327.399,108.787 C 322.162,106.664 311.242,108.303 305.586,109.105 C 299.778,109.931 293.629,112.127 287.767,111.779 C 299.972,104.1 313.976,96.62 328.132,93.43 C 312.921,99.403 296.895,103.303 281.774,109.611 C 272.723,113.388 264.98,119.895 256.934,125.066 C 270.218,112.327 284.817,99.563 301.232,91.012 C 309.927,86.484 317.064,82.646 326.821,82.432 C 309.952,82.204 292.663,91.449 279.001,100.389 C 266.345,108.669 249.63,118.724 241.332,131.879 C 247.554,123.454 253.278,114.987 260.618,107.3 C 265.843,101.828 271.964,97.617 277.566,92.641 C 266.516,100.912 257.375,110.793 247.173,119.971 C 243.873,122.939 236.866,126.751 237.678,119.364 C 238.244,114.197 243.639,106.907 246.16,102.509 C 250.952,94.163 257.515,86.145 264.13,79.167 C 271.102,71.81 278.764,63.953 287.297,58.497 C 274.455,63.233 262.349,77.351 254.25,87.864 C 248.215,95.696 242.945,104.365 237.648,112.346 C 237.486,108.859 239.14,105.581 240.496,102.402 C 243.316,95.793 245.201,88.973 247.285,82.107 C 250.032,73.062 252.197,62.814 255.662,54.241 C 255.232,58.779 251.293,63.601 249.719,67.949 C 246.938,75.634 244.255,83.137 241.951,90.975 C 238.313,103.354 233.482,115.372 229.947,127.747 C 232.213,101.209 237.013,70.527 228.226,45.126 C 232.871,60.982 235.196,78.987 233.382,95.581 C 232.745,101.417 231.429,107.413 230.051,113.108 C 229.534,115.249 229.372,117.389 227.795,118.872 C 225.92,92.894 225.082,67.629 215.148,43.168 C 217.632,50.915 220.996,58.226 222.75,66.404 C 225.334,78.448 225.121,90.992 224.063,103.196 C 223.073,114.618 221.136,125.961 218.523,136.929 C 218.044,136.949 217.605,136.967 217.123,136.949 C 214.349,131.629 213.916,125.753 212.435,119.915 C 209.642,108.9 207.107,97.032 201.643,86.95 C 204.935,97.962 209.392,110.872 208.701,122.489 C 206.643,119.33 205.78,115.213 204.873,111.513 C 202.988,103.814 200.084,97.43 196.39,90.426 C 189.602,77.561 179.757,58.631 165.19,53.013 C 174.842,61.624 183.59,75.053 189.218,86.515 C 196.205,100.745 201.136,114.778 203.634,130.301 C 194.76,114.174 186.56,96.176 175.211,81.45 C 170.413,75.226 164.84,68.154 157.978,64.04 C 155.736,62.696 149.339,58.896 147.014,60.121 C 151.359,61.942 154.365,64.829 157.372,68.239 C 153.246,68.52 148.942,67.39 144.744,68.165 C 141.277,68.804 137.886,70.824 134.571,71.894 C 140.43,69.657 148.007,69.59 154.056,71.16 C 158.948,72.429 164.147,77.199 167.717,80.711 C 180.492,93.283 186.648,111.297 193.509,127.446 z "
   id="path2353"
   style="fill:#e5ab05;stroke:#e8b900;stroke-opacity:1" />
</g>
<g
   id="g2355"
   style="stroke:#0c5d00;stroke-opacity:1">
	<g
   id="g2357"
   style="stroke:#0c5d00;stroke-opacity:1">
		<path
   d="M 203.494,157.378 C 202.891,156.76 202.33,156.163 201.931,155.573 C 199.63,152.173 197.893,148.161 196.754,144.23 C 193.228,132.064 192.554,116.844 193.805,104.257 C 195.076,91.486 198.158,77.857 206.329,67.61 C 207.652,69.602 204.609,73.858 203.565,76.126 C 201.536,80.53 199.701,84.988 198.561,89.792 C 195.66,102.028 195.193,116.043 197.01,128.389 C 198.552,138.875 199.962,148.543 209.547,154.786 C 204.062,151.213 203.403,141.224 203.875,135.432 C 204.718,125.087 211.446,114.758 217.956,106.966 C 225.086,98.431 230.636,87.88 234.853,77.477 C 236.512,73.386 239.349,68.372 238.71,63.8 C 238.159,59.848 234.584,55.967 236.869,51.743 C 240.077,45.812 241.122,51.494 243.456,52.439 C 245.849,53.408 248.366,50.006 251.054,52.597 C 255.508,56.888 247.103,65.838 245.37,69.684 C 243.905,72.936 242.079,75.977 241.24,79.58 C 239.28,87.995 239.27,97.533 240.618,106.064 C 242.12,115.59 244.503,124.617 243.807,134.423 C 243.44,139.596 242.108,144.274 239.335,148.694 C 237.079,152.291 233.6,154.786 231.149,158.154 C 235.998,160.842 242.575,152.329 245.42,149.424 C 251.912,142.793 255.205,135.067 257.81,126.147 C 260.608,116.579 259.782,107.299 260.694,97.681 C 261.171,92.658 262.416,81.157 267.464,78.417 C 267.228,82.349 264.898,86.186 263.857,90.041 C 262.113,96.491 261.924,104.044 261.631,110.74 C 261.074,123.446 260.187,132.969 253.728,144.038 C 250.018,150.398 242.242,160.503 235.564,163.583 C 232.967,164.779 224.307,164.351 226.17,168.021 C 226.745,169.155 227.921,169.239 227.704,170.594 C 227.38,172.61 223.632,172.834 223.2,174.715 C 222.344,178.471 228.864,177.035 230.821,176.388 C 239.782,173.429 247.868,167.842 254.307,161.021 C 259.756,155.25 266.407,148.444 275.01,148.77 C 267.618,151.18 263.569,156.286 258.996,162.204 C 256.637,165.261 254.201,168.329 251.576,171.013 C 245.869,176.846 237.467,178.126 230.392,181.562 C 226.878,183.267 225.04,185.952 222.096,187.832 C 219.987,189.179 216.42,189.32 215.749,192.188 C 215.005,195.367 217.406,198.696 216.228,202.469 C 214.493,208.027 213.342,213.78 211.27,219.229 C 209.552,223.744 206.228,228.239 205.116,232.915 C 204.6,235.084 205.924,239.441 203.394,239.863 C 198.611,240.655 191.591,230.061 189.311,226.867 C 183.229,218.349 190.292,212.139 192.83,203.491 C 193.832,200.075 193.997,196.607 195.845,193.452 C 197.451,190.712 201.605,190.381 202.563,188.306 C 204.119,184.935 195.006,175.923 193.34,173.107 C 191.609,170.178 190.033,166.577 188.504,163.454 C 185.451,157.214 185.679,149.127 183.934,142.433 C 182.343,136.329 183.027,129.364 178.067,124.59 C 187.579,133.745 187.965,144.27 191.269,156.236 C 192.411,160.369 194.17,164.254 196.859,167.525 C 198.18,169.133 201.948,173.336 204.35,171.332 C 206.617,169.441 203.329,167.909 203.415,165.811 C 203.518,163.287 204.945,164.545 206.794,163.653 C 207.393,161.184 205.266,159.194 203.494,157.378 z "
   id="path2359"
   style="fill:#00a33d;stroke:#094900;stroke-width:0.5;stroke-miterlimit:4;stroke-dasharray:none;stroke-opacity:1" />
		<path
   d="M 216.415,62.595 C 217.562,59.39 220.209,50.946 214.824,51.575 C 210.031,52.134 205.314,57.806 203.432,61.902 C 202.624,63.662 201.423,66.79 202.371,68.562 C 203.233,70.173 205.233,70.768 206.435,69.302 C 206.183,73.02 208.801,73.533 211.421,71.38 C 214.077,69.199 215.308,65.692 216.415,62.595 z "
   id="path2361"
   style="fill:#ffff00;stroke:#575d00;stroke-width:0.52670002;stroke-opacity:1" />
		<path
   d="M 271.463,79.118 C 272.262,75.154 272.826,62.516 265.429,67.516 C 261.916,69.889 257.592,78.386 258.465,82.704 C 259.238,86.538 263.207,85.473 265.434,83.69 C 265.196,85.793 266.723,87.03 268.393,86.208 C 270.453,85.191 271.071,81.059 271.463,79.118 z "
   id="path2363"
   style="fill:#ffff00;stroke:#575d00;stroke-width:0.52670002;stroke-opacity:1" />
		<path
   d="M 239.863,56.626 C 241.646,54.969 243.473,52.903 245.822,53.477 C 247.851,53.973 248.646,56.398 250.394,56.978"
   id="path2365"
   style="fill:none;stroke:#0c5d00;stroke-width:0.52670002;stroke-opacity:1" />
		<path
   d="M 207.677,170.799 C 204.813,174.745 203.336,174.043 200.036,171.866 C 198.12,170.604 194.639,166.1 194.336,170.792 C 193.983,176.277 202.996,179.999 205.067,184.566 C 206.572,187.886 205.837,189.517 203.07,191.881 C 197.268,196.843 189.103,209.037 191.531,217.093 C 192.957,221.83 199.029,224.724 203.385,222.04 C 208.904,218.637 212.661,206.934 213.702,200.936 C 214.462,196.561 209.679,191.269 213.545,187.562 C 215.366,185.816 219.63,185.184 221.933,183.764 C 225.022,181.859 227.829,179.659 231.415,178.731 C 234.978,177.808 238.925,177.363 241.235,174.314 C 239.327,173.977 216.714,183.936 221.339,174.691 C 222.022,173.326 223.927,172.473 223.645,170.733 C 223.308,168.654 220.685,169.151 221.934,166.784 C 223.144,164.492 226.768,163.28 229.097,162.715 C 229.762,162.553 235.829,160.342 235.27,160.174 C 231.193,158.954 224.002,161.913 230.732,155.721 C 241.265,146.023 242.395,133.306 241.402,119.807 C 240.972,114.005 239.477,108.215 238.404,102.539 C 237.734,99.012 235.657,93.469 231.169,96.366 C 227.088,99 223.49,102.871 220.223,106.442 C 210.212,117.384 200.799,136.034 208.098,150.679 C 209.045,152.58 212.069,155.228 211.709,157.324 C 210.071,157.092 203.162,154.574 203.526,152.303 C 202.881,156.158 207.094,158.778 208.824,161.669 C 210.731,164.855 209.728,167.975 207.677,170.799 z "
   id="path2367"
   style="fill:#16c14f;stroke:none;stroke-opacity:1" />
		<path
   d="M 218.602,150.63 C 218.943,149.706 221.129,141.385 220.637,141.279 C 220.539,141.258 220.442,141.238 220.346,141.218 C 220.389,140.684 220.387,140.121 219.998,139.859 C 219.773,140.855 218.335,143.088 217.01,142.463 C 215.572,141.781 216.379,138.297 216.831,137.256 C 217.64,135.393 221.196,131.787 221.894,135.577 C 222.265,134.053 222.845,132.631 223.167,131.07 C 223.36,130.134 223.812,129.019 223.308,128.24 C 223.019,127.796 222.044,128.711 222.255,127.436 C 221.605,128.33 221.013,130.973 219.433,130.423 C 217.482,129.742 218.204,126.343 218.916,125.126 C 220.132,123.047 223.981,122.106 224.172,125.395 C 224.601,124.291 224.716,123.138 225.056,121.98 C 225.372,120.895 226.083,119.588 225.898,118.444 C 225.728,118.612 225.396,118.715 225.216,118.885 C 225.704,116.208 224.073,118.228 223.165,118.948 C 221.694,120.113 220.047,119.389 220.349,117.231 C 220.589,115.522 222.203,113.291 224.005,113.019 C 225.35,112.816 226.212,113.794 227.196,114.492 C 229.05,113.813 229.052,109.999 229.608,108.453 C 230.253,106.659 230.418,105.221 230.305,103.369 C 230.201,101.631 229.919,101.957 228.549,102.992 C 224.768,105.849 222.002,109.196 219.074,112.915 C 216.208,116.559 213.604,120.414 211.886,124.742 C 209.47,130.83 207.596,137.677 208.683,144.229 C 209.178,147.216 210.063,152.322 212.893,153.848 C 216.148,155.603 217.407,153.859 218.602,150.63 z "
   id="path2369"
   style="fill:#07772d;stroke:none;stroke-opacity:1" />
		<path
   d="M 232.191,150.576 C 230.531,152.515 223.716,157.675 222.773,152.284 C 222.605,151.321 222.552,148.126 223.777,147.738 C 224.623,147.471 225.218,148.796 226.017,148.953 C 227.247,149.197 227.847,148.249 228.224,147.18 C 228.773,145.618 228.388,139.658 225.432,141.055 C 225.288,139.065 225.238,135.267 226.597,133.753 C 227.171,134.74 226.437,136.244 227.201,137.225 C 228.29,138.622 229.434,137.565 230.013,136.328 C 230.562,135.15 230.357,129.704 227.89,130.877 C 228.025,129.238 227.411,124.931 229.759,124.585 C 230.222,125.662 230.228,128.245 232.076,127.032 C 233.261,126.253 233.418,123.03 233.095,121.788 C 232.966,121.282 232.542,120.441 232.115,120.124 C 231.169,119.428 230.312,119.836 229.92,118.401 C 229.633,117.353 230.178,116.817 230.471,115.922 C 231.293,113.415 231.451,110.748 232.406,108.251 C 232.864,107.054 234.192,100.796 235.397,104.397 C 237.328,110.165 238.851,115.323 239.315,121.379 C 239.718,126.591 239.695,131.075 238.618,136.21 C 238.208,138.171 237.813,140.234 237.042,142.095 C 236.372,143.714 235.635,145.529 234.716,147.041 C 234.022,148.185 233.173,149.428 232.191,150.576 z "
   id="path2371"
   style="fill:#07772d;stroke:none;stroke-opacity:1" />
		<path
   d="M 268.74,81.629 C 269.847,78.812 270.228,74.508 270.058,71.373 C 269.829,67.186 267.884,66.739 265.654,70.32 C 263.992,72.991 261.894,77.547 262.713,80.775 C 263.542,84.039 267.328,85.232 268.74,81.629 z "
   id="path2373"
   style="fill:#ffbf00;stroke:#0c5d00;stroke-width:0.52670002;stroke-opacity:1" />
		<path
   d="M 208.7,68.686 C 210.245,68.268 211.501,66.58 212.315,65.323 C 213.815,63.007 217.168,57.591 215.546,54.771 C 213.832,51.789 210.009,55.813 208.792,57.251 C 207.236,59.088 205.689,61.253 205.264,63.676 C 204.843,66.072 205.446,69.568 208.7,68.686 z "
   id="path2375"
   style="fill:#ffff00;stroke:#575d00;stroke-width:0.52670002;stroke-opacity:1" />
	</g>
	<circle
   cx="265.97699"
   cy="74.928001"
   r="0.65799999"
   id="circle2377"
   style="fill:#ffff00;stroke:#0c5d00;stroke-width:0.52670002;stroke-opacity:1"
   sodipodi:cx="265.97699"
   sodipodi:cy="74.928001"
   sodipodi:rx="0.65799999"
   sodipodi:ry="0.65799999" />
	<ellipse
   cx="268.67499"
   cy="74.205002"
   rx="0.59200001"
   ry="0.72399998"
   id="ellipse2379"
   style="fill:#ffff00;stroke:#0c5d00;stroke-width:0.52670002;stroke-opacity:1"
   sodipodi:cx="268.67499"
   sodipodi:cy="74.205002"
   sodipodi:rx="0.59200001"
   sodipodi:ry="0.72399998" />
	<circle
   cx="267.19501"
   cy="72.129997"
   r="0.72399998"
   id="circle2381"
   style="fill:#ffff00;stroke:#0c5d00;stroke-width:0.52670002;stroke-opacity:1"
   sodipodi:cx="267.19501"
   sodipodi:cy="72.129997"
   sodipodi:rx="0.72399998"
   sodipodi:ry="0.72399998" />
	<ellipse
   cx="267.42401"
   cy="77.693001"
   rx="0.65899998"
   ry="0.79000002"
   id="ellipse2383"
   style="fill:#ffff00;stroke:#0c5d00;stroke-width:0.52670002;stroke-opacity:1"
   sodipodi:cx="267.42401"
   sodipodi:cy="77.693001"
   sodipodi:rx="0.65899998"
   sodipodi:ry="0.79000002" />
	<ellipse
   cx="265.47601"
   cy="79.109001"
   rx="0.69999999"
   ry="0.625"
   id="ellipse2385"
   style="fill:#ffff00;stroke:#0c5d00;stroke-width:0.52670002;stroke-opacity:1"
   sodipodi:cx="265.47601"
   sodipodi:cy="79.109001"
   sodipodi:rx="0.69999999"
   sodipodi:ry="0.625" />
	<ellipse
   cx="267.42801"
   cy="81.567001"
   rx="0.92400002"
   ry="0.84600002"
   id="ellipse2387"
   style="fill:#ffff00;stroke:#0c5d00;stroke-width:0.52670002;stroke-opacity:1"
   sodipodi:cx="267.42801"
   sodipodi:cy="81.567001"
   sodipodi:rx="0.92400002"
   sodipodi:ry="0.84600002" />
	<circle
   cx="264.16299"
   cy="77.378998"
   r="0.66799998"
   id="circle2389"
   style="fill:#ffff00;stroke:#0c5d00;stroke-width:0.52670002;stroke-opacity:1"
   sodipodi:cx="264.16299"
   sodipodi:cy="77.378998"
   sodipodi:rx="0.66799998"
   sodipodi:ry="0.66799998" />
	<ellipse
   cx="268.52802"
   cy="70.063004"
   rx="0.60900003"
   ry="0.78399998"
   id="ellipse2391"
   style="fill:#ffff00;stroke:#0c5d00;stroke-width:0.52670002;stroke-opacity:1"
   sodipodi:cx="268.52802"
   sodipodi:cy="70.063004"
   sodipodi:rx="0.60900003"
   sodipodi:ry="0.78399998" />
	<ellipse
   cx="264.73801"
   cy="82.103996"
   rx="0.736"
   ry="0.72500002"
   id="ellipse2393"
   style="fill:#ffff00;stroke:#0c5d00;stroke-width:0.52670002;stroke-opacity:1"
   sodipodi:cx="264.73801"
   sodipodi:cy="82.103996"
   sodipodi:rx="0.736"
   sodipodi:ry="0.72500002" />
</g>
<line
   style="fill:none;stroke:#000000;stroke-width:1;stroke-miterlimit:4;stroke-dasharray:none;stroke-opacity:1"
   id="line2397"
   y2="153.21143"
   x2="189.26802"
   y1="144.94907"
   x1="165.8423" />
<line
   x1="165.884"
   y1="130.13631"
   x2="185.58215"
   y2="109.44118"
   id="line2401"
   style="fill:none;stroke:#000000;stroke-width:1;stroke-miterlimit:4;stroke-dasharray:none;stroke-opacity:1" />

<line
   style="fill:none;stroke:#000000;stroke-width:1.00000012;stroke-miterlimit:4;stroke-dasharray:none;stroke-opacity:1"
   id="line2407"
   y2="203.83484"
   x2="205.5836"
   y1="227.79907"
   x1="224.76401" />


<line
   x1="245.131"
   y1="190.047"
   x2="217.041"
   y2="161.95799"
   id="line2419"
   style="fill:none;stroke:#000000;stroke-width:1;stroke-miterlimit:4;stroke-dasharray:none;stroke-opacity:1" />
<line
   x1="211.271"
   y1="181.957"
   x2="220.739"
   y2="150.166"
   id="line2421"
   style="fill:none;stroke:#ccff00;stroke-width:0.52670002;stroke-dasharray:1.0534" />

<line
   x1="236.75546"
   y1="209.2262"
   x2="205.94728"
   y2="166.90723"
   id="line2425"
   style="fill:none;stroke:#000000;stroke-width:1;stroke-miterlimit:4;stroke-dasharray:none;stroke-opacity:1" />
<g
   id="g2427"
   transform="translate(-4.242641,14.14214)">
	<path
   d="M 27.157,74.97 C 28.531,79.689 32.256,83.577 35.029,87.567 C 40.927,96.054 47.405,104.215 55.561,110.523 C 63.691,116.813 71.811,123.236 78.181,131.387 C 83.976,138.801 88.652,147.258 90.63,156.525 C 91.484,160.529 88.301,172.187 91.855,174.922 C 97.171,179.016 100.229,146.789 102.277,144.868 C 102.03,145.1 104.933,153.417 105.065,154.597 C 105.518,158.639 105.142,161.743 103.94,165.687 C 101.678,173.114 96.133,181.034 97.435,189.121 C 92.025,187.426 91.163,191.503 88.501,194.824 C 87.73,195.785 77.377,206.048 78.744,206.532 C 76.309,205.673 74.975,203.259 74.841,200.561 C 66.206,199.707 42.275,203.558 37.638,193.053 C 33.967,184.733 42.658,190.907 45.213,192.339 C 51.347,195.777 62.257,198.224 68.639,193.798 C 64.656,193.762 60.994,193.223 57.63,192.254 C 28.774,183.933 21.801,143.916 21.17,117.907 C 20.834,104.025 18.305,92.086 13.568,79.066"
   id="path2429"
   style="fill:#00a33d;stroke:#094900;stroke-width:0.5;stroke-miterlimit:4;stroke-dasharray:none;stroke-opacity:1" />
	<path
   d="M 86.334,151.945 C 84.254,142.926 79.556,134.922 72.684,128.819 C 68.439,125.047 64.862,120.54 60.315,117.001 C 55.098,112.938 50.333,108.329 45.095,104.292 C 41.454,101.486 34.597,96.096 29.905,99.465 C 23.612,103.984 24.687,115.808 24.801,122.583 C 24.958,132.062 26.29,141.551 28.537,150.756 C 33.224,169.943 47.623,192.843 70.941,186.53 C 76.955,184.902 82.205,181.116 84.898,175.03 C 88.236,167.489 88.184,159.963 86.334,151.945 z "
   id="path2431"
   style="fill:#16c14f" />
	<path
   d="M 47.155,177.086 C 50.717,180.094 55.393,184.27 60.37,184.302 C 64.268,184.326 68.939,181.006 67.849,176.704 C 66.807,172.596 63.279,167.615 60.962,164.095 C 60.951,164.06 60.979,164.84 61.013,165.097 C 60.133,164.662 59.583,163.734 59.526,162.771 C 61.46,167.873 54.778,168.561 52.363,164.619 C 51.29,162.869 50.778,157.697 52.889,156.39 C 54.217,155.568 56.095,156.811 57.268,157.383 C 56.64,155.337 55.371,154.336 54.258,152.662 C 53.568,151.622 51.367,148 51.58,146.777 C 51.468,147.421 51.19,148.074 50.782,148.556 C 50.215,147.889 49.969,146.937 49.717,146.012 C 50.101,148.425 50.083,150.384 47.279,150.902 C 44.856,151.349 42.297,149.744 41.487,147.433 C 40.556,144.778 41.909,141.058 44.725,140.166 C 46.402,139.633 47.709,140.588 49.292,141.1 C 49.38,141.207 49.372,141.214 49.271,141.12 C 48.961,138.529 46.375,133.724 44.514,131.959 C 44.53,132.445 44.288,133.031 44.269,133.438 C 43.77,132.703 43.489,131.831 43.396,130.943 C 45.201,136.947 36.406,134.478 35.297,129.881 C 34.864,128.086 35.327,125.327 37.087,124.353 C 38.257,123.705 39.965,124.079 41.266,123.996 C 40.888,120.971 38.553,117.495 37.139,114.807 C 36.011,112.659 32.554,103.583 29.354,107.467 C 26.75,110.626 28.32,117.601 28.616,121.273 C 28.886,124.609 28.536,128.012 28.667,131.406 C 28.932,138.325 29.7,145.229 31.936,151.816 C 35.083,161.082 39.577,170.684 47.155,177.086 z "
   id="path2433"
   style="fill:#07772d" />
	<path
   d="M 56.29,118.279 C 53.249,115.926 50.454,112.964 47.288,110.609 C 45.152,109.019 43.255,107.134 41.135,105.525 C 40.338,104.918 37.268,102.362 36.143,102.699 C 34.167,103.29 35.668,106.914 36.301,108.229 C 37.329,110.364 38.162,112.641 39.509,114.609 C 40.573,116.167 42.433,117.007 43.323,118.608 C 42.229,113.943 48.328,116.266 50.158,117.698 C 51.608,118.833 53.421,120.708 52.843,122.748 C 52.018,125.665 48.139,125.288 46.654,123.172 C 46.758,123.518 46.669,123.894 46.729,124.21 C 46.199,124.265 44.955,123.978 44.826,123.269 C 45.234,125.498 46.878,126.931 47.785,128.898 C 48.456,130.352 48.304,131.701 49.889,132.623 C 49.97,130.558 52.125,129.704 53.939,129.813 C 57.272,130.016 59.466,132.361 60.475,135.376 C 61.069,137.151 61.3,139.962 59.429,141.095 C 57.301,142.384 54.825,139.904 54.722,137.811 C 55.634,139.481 54.107,140.955 54.977,142.941 C 55.529,144.202 57.186,147.836 58.63,148.218 C 60.047,148.593 61.856,146.815 63.384,146.677 C 66.984,146.355 69.828,149.258 70.019,152.75 C 70.282,157.552 63.104,159.281 63.424,154.139 C 63.292,154.927 63.445,155.727 63.853,156.397 C 63.713,156.292 63.166,156.107 62.95,155.93 C 62.686,157.467 63.72,159.118 64.479,160.393 C 67.14,164.867 70.23,176.781 77.062,175.92 C 84.574,174.974 84.271,162.005 83.387,156.692 C 80.789,141.08 68.368,127.611 56.322,118.303 C 56.311,118.296 56.3,118.287 56.29,118.279 z "
   id="path2435"
   style="fill:#07772d" />
</g>


<line
   x1="244.29279"
   y1="59.007381"
   x2="116.83012"
   y2="31.119553"
   id="line2441"
   style="fill:none;stroke:#000000;stroke-width:1;stroke-miterlimit:4;stroke-dasharray:none;stroke-opacity:1" />
<line
   x1="237.55615"
   y1="82.586029"
   x2="116.91835"
   y2="44.638683"
   id="line2443"
   style="fill:none;stroke:#000000;stroke-width:1.00000012;stroke-miterlimit:4;stroke-dasharray:none;stroke-opacity:1" />
<path
   d="M 354.00295,221.91804 C 351.66395,212.79904 355.97395,195.36804 357.36195,191.33504 C 359.99695,183.68904 363.80695,175.72704 368.16995,168.91704 C 373.07995,161.25104 380.34295,153.33704 387.20595,147.34904 C 393.02495,142.27104 400.15295,139.35604 406.70795,135.56904 C 412.84495,132.02404 419.40395,128.89704 426.14395,126.67904 C 432.18395,124.69204 436.96195,128.53304 430.30995,133.12204 C 425.66695,136.32904 420.42095,138.29204 415.31195,140.49604 C 402.80195,145.89204 391.37995,153.11004 382.34495,163.48504 C 372.59395,174.68304 366.02295,188.64704 363.83695,203.34704 C 362.99095,209.02904 363.41495,213.76404 363.84095,219.34004"
   id="path2445"
   style="fill:#00a33d;stroke:#094900;stroke-width:0.5;stroke-miterlimit:4;stroke-dasharray:none;stroke-opacity:1" />
<path
   d="M 421.68995,146.01104 C 421.64795,146.20304 421.59395,146.39304 421.53095,146.58104 C 419.74695,151.85304 407.56795,157.45304 402.52795,159.14604 C 394.71695,161.77404 380.47495,163.64204 380.94295,151.47204 C 381.14795,146.08104 386.13695,140.22604 390.32295,137.24904 C 394.07695,134.57704 398.73795,131.52304 402.91895,129.75604 C 407.63295,127.76504 409.91295,129.62804 413.76495,132.77504 C 417.07895,135.48704 422.78795,141.10204 421.68995,146.01104 z "
   id="path2447"
   style="fill:#ffff00;stroke:#7c4e00;stroke-width:1.05340004;stroke-opacity:1" />
<linearGradient
   id="XMLID_19_"
   gradientUnits="userSpaceOnUse"
   x1="486.1279"
   y1="148.52"
   x2="507.8967"
   y2="120.2555"
   gradientTransform="matrix(0.9628,0.2703,-0.2703,0.9628,-34.4883,-138.0197)">
	<stop
   offset="0"
   style="stop-color:#F2CA20"
   id="stop2450" />
	<stop
   offset="0.4479"
   style="stop-color:#F2C820"
   id="stop2452" />
	<stop
   offset="0.6092"
   style="stop-color:#F0C11F"
   id="stop2454" />
	<stop
   offset="0.7242"
   style="stop-color:#EEB61E"
   id="stop2456" />
	<stop
   offset="0.8171"
   style="stop-color:#EBA51C"
   id="stop2458" />
	<stop
   offset="0.8958"
   style="stop-color:#E78F19"
   id="stop2460" />
	<stop
   offset="0.927"
   style="stop-color:#E58418"
   id="stop2462" />
</linearGradient>
<path
   d="M 411.96795,154.11704 C 412.15095,154.03504 412.33295,153.95204 412.51095,153.86704 C 415.99495,152.20004 421.96395,149.23104 421.42895,144.50904 C 421.05095,141.17304 418.30595,137.15304 415.83495,134.95104 C 415.17495,134.36404 414.45195,133.79904 413.78995,133.24204 C 411.68195,131.46904 407.40395,127.55004 404.37495,129.78204 C 403.22895,130.62704 403.84095,131.59704 403.47395,132.66804 C 403.02795,133.97904 401.31095,134.61804 400.32795,135.48104 C 399.08795,136.56904 397.84595,137.58804 396.48595,138.53004 C 393.74395,140.42804 390.77095,142.15504 388.71295,144.84804 C 386.88895,147.23404 385.62895,150.64504 386.33195,153.66204 C 386.89595,156.07704 389.36395,157.42504 391.52895,158.22104 C 393.38095,158.90004 395.21695,159.06004 397.14395,159.05304 C 402.75195,159.03304 407.01495,156.28704 411.96795,154.11704 z "
   id="path2464"
   style="fill:url(#XMLID_19_);stroke:#4f3100;stroke-width:0.2633;stroke-opacity:1" />
<linearGradient
   id="XMLID_20_"
   gradientUnits="userSpaceOnUse"
   x1="490.53909"
   y1="130.9648"
   x2="504.05771"
   y2="140.621"
   gradientTransform="matrix(0.9628,0.2703,-0.2703,0.9628,-34.4883,-138.0197)">
	<stop
   offset="0.0056"
   style="stop-color:#A6430E"
   id="stop2467" />
	<stop
   offset="0.3146"
   style="stop-color:#DD5913"
   id="stop2469" />
	<stop
   offset="1"
   style="stop-color:#F29620"
   id="stop2471" />
</linearGradient>
<path
   d="M 392.89695,158.14904 C 391.31995,157.99204 389.84895,157.43304 388.61295,156.26104 C 382.95795,150.90304 393.64295,142.94704 397.68895,140.83404 C 399.29995,139.99304 401.00395,139.34404 402.50195,138.31204 C 403.50395,137.62404 404.14695,136.52904 405.21495,135.84704 C 404.65995,134.79504 405.63395,133.43304 406.60395,133.05504 C 409.25995,132.01704 411.65895,133.03204 413.52595,135.01304 C 414.89795,136.47104 416.48095,138.02704 417.30895,139.88504 C 417.84795,141.09504 417.56395,142.39704 417.69595,143.65604 C 418.16095,148.11804 415.75495,148.55504 412.62395,150.86804 C 410.36895,152.53204 407.78795,153.72604 405.21595,154.80604 C 401.87795,156.20204 397.02095,158.55604 392.89695,158.14904 z "
   id="path2473"
   style="fill:url(#XMLID_20_);stroke:#4f3100;stroke-width:0.2633;stroke-opacity:1" />
<radialGradient
   id="XMLID_21_"
   cx="492.59381"
   cy="134.6064"
   r="4.6083002"
   gradientTransform="matrix(0.9628,0.2703,-0.2703,0.9628,-34.4883,-138.0197)"
   gradientUnits="userSpaceOnUse">
	<stop
   offset="0"
   style="stop-color:#F2CA20"
   id="stop2476" />
	<stop
   offset="0.0144"
   style="stop-color:#F2C71F"
   id="stop2478" />
	<stop
   offset="0.3516"
   style="stop-color:#F88E12"
   id="stop2480" />
	<stop
   offset="0.64"
   style="stop-color:#FC6308"
   id="stop2482" />
	<stop
   offset="0.8654"
   style="stop-color:#FE4A02"
   id="stop2484" />
	<stop
   offset="1"
   style="stop-color:#FF4000"
   id="stop2486" />
</radialGradient>
<path
   d="M 402.43795,147.64404 C 401.94795,149.39004 400.06295,150.38704 398.22795,149.87204 C 396.39295,149.35804 395.30295,147.52504 395.79295,145.77804 C 396.28195,144.03204 398.16595,143.03404 400.00295,143.54904 C 401.83795,144.06404 402.92895,145.89804 402.43795,147.64404 z "
   id="path2488"
   style="fill:url(#radialGradient21772);fill-opacity:1;stroke:#690101;stroke-width:0.2226;stroke-opacity:1" />
<radialGradient
   id="XMLID_22_"
   cx="494.40231"
   cy="137.5854"
   r="4.6085"
   gradientTransform="matrix(0.9628,0.2703,-0.2703,0.9628,-34.4883,-138.0197)"
   gradientUnits="userSpaceOnUse">
	<stop
   offset="0"
   style="stop-color:#F2CA20"
   id="stop2491" />
	<stop
   offset="0.0144"
   style="stop-color:#F2C71F"
   id="stop2493" />
	<stop
   offset="0.3516"
   style="stop-color:#F88E12"
   id="stop2495" />
	<stop
   offset="0.64"
   style="stop-color:#FC6308"
   id="stop2497" />
	<stop
   offset="0.8654"
   style="stop-color:#FE4A02"
   id="stop2499" />
	<stop
   offset="1"
   style="stop-color:#FF4000"
   id="stop2501" />
</radialGradient>
<path
   d="M 403.37595,151.00004 C 402.88595,152.74604 400.99995,153.74404 399.16495,153.22904 C 397.33095,152.71404 396.23895,150.88104 396.73095,149.13404 C 397.21995,147.38804 399.10595,146.39104 400.93995,146.90604 C 402.77495,147.41904 403.86495,149.25304 403.37595,151.00004 z "
   id="path2503"
   style="fill:url(#radialGradient21770);fill-opacity:1;stroke:#690101;stroke-width:0.2226;stroke-opacity:1" />
<radialGradient
   id="XMLID_23_"
   cx="488.0654"
   cy="139.3877"
   r="4.6087999"
   gradientTransform="matrix(0.9628,0.2703,-0.2703,0.9628,-34.4883,-138.0197)"
   gradientUnits="userSpaceOnUse">
	<stop
   offset="0"
   style="stop-color:#F2CA20"
   id="stop2506" />
	<stop
   offset="0.0144"
   style="stop-color:#F2C71F"
   id="stop2508" />
	<stop
   offset="0.3516"
   style="stop-color:#F88E12"
   id="stop2510" />
	<stop
   offset="0.64"
   style="stop-color:#FC6308"
   id="stop2512" />
	<stop
   offset="0.8654"
   style="stop-color:#FE4A02"
   id="stop2514" />
	<stop
   offset="1"
   style="stop-color:#FF4000"
   id="stop2516" />
</radialGradient>
<path
   d="M 396.78695,151.02204 C 396.29795,152.76804 394.41295,153.76704 392.57695,153.25104 C 390.74295,152.73504 389.65295,150.90204 390.14195,149.15704 C 390.63295,147.41104 392.51595,146.41204 394.35395,146.92804 C 396.18795,147.44404 397.27795,149.27604 396.78695,151.02204 z "
   id="path2518"
   style="fill:url(#radialGradient21768);fill-opacity:1;stroke:#690101;stroke-width:0.2226;stroke-opacity:1" />
<radialGradient
   id="XMLID_24_"
   cx="490.65231"
   cy="141.55659"
   r="4.6083002"
   gradientTransform="matrix(0.9628,0.2703,-0.2703,0.9628,-34.4883,-138.0197)"
   gradientUnits="userSpaceOnUse">
	<stop
   offset="0"
   style="stop-color:#F2CA20"
   id="stop2521" />
	<stop
   offset="0.0144"
   style="stop-color:#F2C71F"
   id="stop2523" />
	<stop
   offset="0.3516"
   style="stop-color:#F88E12"
   id="stop2525" />
	<stop
   offset="0.64"
   style="stop-color:#FC6308"
   id="stop2527" />
	<stop
   offset="0.8654"
   style="stop-color:#FE4A02"
   id="stop2529" />
	<stop
   offset="1"
   style="stop-color:#FF4000"
   id="stop2531" />
</radialGradient>
<path
   d="M 398.69095,153.80904 C 398.20195,155.55604 396.31695,156.55404 394.48095,156.03804 C 392.64695,155.52304 391.55495,153.69104 392.04595,151.94504 C 392.53695,150.19804 394.41995,149.20004 396.25795,149.71604 C 398.09295,150.23104 399.18195,152.06304 398.69095,153.80904 z "
   id="path2533"
   style="fill:url(#radialGradient21766);fill-opacity:1;stroke:#690101;stroke-width:0.2226;stroke-opacity:1" />
<radialGradient
   id="XMLID_25_"
   cx="497.7695"
   cy="127.873"
   r="4.6083002"
   gradientTransform="matrix(0.9628,0.2703,-0.2703,0.9628,-34.4883,-138.0197)"
   gradientUnits="userSpaceOnUse">
	<stop
   offset="0"
   style="stop-color:#F2CA20"
   id="stop2536" />
	<stop
   offset="0.0144"
   style="stop-color:#F2C71F"
   id="stop2538" />
	<stop
   offset="0.3516"
   style="stop-color:#F88E12"
   id="stop2540" />
	<stop
   offset="0.64"
   style="stop-color:#FC6308"
   id="stop2542" />
	<stop
   offset="0.8654"
   style="stop-color:#FE4A02"
   id="stop2544" />
	<stop
   offset="1"
   style="stop-color:#FF4000"
   id="stop2546" />
</radialGradient>
<path
   d="M 409.24295,142.55804 C 408.75295,144.30504 406.86595,145.30104 405.03195,144.78704 C 403.19795,144.27204 402.10695,142.43804 402.59795,140.69304 C 403.08795,138.94604 404.97195,137.94804 406.80695,138.46404 C 408.64295,138.97904 409.73295,140.81204 409.24295,142.55804 z "
   id="path2548"
   style="fill:url(#radialGradient21764);fill-opacity:1;stroke:#690101;stroke-width:0.2226;stroke-opacity:1" />
<radialGradient
   id="XMLID_26_"
   cx="498.46481"
   cy="132.855"
   r="4.6076999"
   gradientTransform="matrix(0.9628,0.2703,-0.2703,0.9628,-34.4883,-138.0197)"
   gradientUnits="userSpaceOnUse">
	<stop
   offset="0"
   style="stop-color:#F2CA20"
   id="stop2551" />
	<stop
   offset="0.0144"
   style="stop-color:#F2C71F"
   id="stop2553" />
	<stop
   offset="0.3516"
   style="stop-color:#F88E12"
   id="stop2555" />
	<stop
   offset="0.64"
   style="stop-color:#FC6308"
   id="stop2557" />
	<stop
   offset="0.8654"
   style="stop-color:#FE4A02"
   id="stop2559" />
	<stop
   offset="1"
   style="stop-color:#FF4000"
   id="stop2561" />
</radialGradient>
<path
   d="M 408.56495,147.54304 C 408.07495,149.28904 406.19095,150.28604 404.35595,149.77204 C 402.51995,149.25704 401.42995,147.42304 401.91995,145.67904 C 402.40995,143.93204 404.29695,142.93404 406.12895,143.45004 C 407.96595,143.96304 409.05695,145.79604 408.56495,147.54304 z "
   id="path2563"
   style="fill:url(#radialGradient21762);fill-opacity:1;stroke:#690101;stroke-width:0.2226;stroke-opacity:1" />
<radialGradient
   id="XMLID_27_"
   cx="506.4863"
   cy="127.8735"
   r="4.6083002"
   gradientTransform="matrix(0.9628,0.2703,-0.2703,0.9628,-34.4883,-138.0197)"
   gradientUnits="userSpaceOnUse">
	<stop
   offset="0"
   style="stop-color:#F2CA20"
   id="stop2566" />
	<stop
   offset="0.0144"
   style="stop-color:#F2C71F"
   id="stop2568" />
	<stop
   offset="0.3516"
   style="stop-color:#F88E12"
   id="stop2570" />
	<stop
   offset="0.64"
   style="stop-color:#FC6308"
   id="stop2572" />
	<stop
   offset="0.8654"
   style="stop-color:#FE4A02"
   id="stop2574" />
	<stop
   offset="1"
   style="stop-color:#FF4000"
   id="stop2576" />
</radialGradient>
<path
   d="M 417.63495,144.91404 C 417.14395,146.66104 415.26095,147.65804 413.42295,147.14304 C 411.58895,146.62804 410.49895,144.79404 410.98995,143.04804 C 411.47895,141.30104 413.36295,140.30504 415.19795,140.82004 C 417.03395,141.33404 418.12395,143.16804 417.63495,144.91404 z "
   id="path2578"
   style="fill:url(#radialGradient21760);fill-opacity:1;stroke:#690101;stroke-width:0.2226;stroke-opacity:1" />
<radialGradient
   id="XMLID_28_"
   cx="504.62891"
   cy="120.6807"
   r="4.6090002"
   gradientTransform="matrix(0.9628,0.2703,-0.2703,0.9628,-34.4883,-138.0197)"
   gradientUnits="userSpaceOnUse">
	<stop
   offset="0"
   style="stop-color:#F2CA20"
   id="stop2581" />
	<stop
   offset="0.0144"
   style="stop-color:#F2C71F"
   id="stop2583" />
	<stop
   offset="0.3516"
   style="stop-color:#F88E12"
   id="stop2585" />
	<stop
   offset="0.64"
   style="stop-color:#FC6308"
   id="stop2587" />
	<stop
   offset="0.8654"
   style="stop-color:#FE4A02"
   id="stop2589" />
	<stop
   offset="1"
   style="stop-color:#FF4000"
   id="stop2591" />
</radialGradient>
<path
   d="M 417.79195,137.48804 C 417.30195,139.23404 415.41695,140.23304 413.57995,139.71704 C 411.74695,139.20104 410.65695,137.36804 411.14695,135.62104 C 411.63695,133.87704 413.52095,132.87804 415.35595,133.39304 C 417.19195,133.91004 418.28195,135.74204 417.79195,137.48804 z "
   id="path2593"
   style="fill:url(#radialGradient21758);fill-opacity:1;stroke:#690101;stroke-width:0.2226;stroke-opacity:1" />
<radialGradient
   id="XMLID_29_"
   cx="530.38092"
   cy="118.0166"
   r="4.6087999"
   gradientTransform="matrix(0.9628,0.2703,-0.2703,0.9628,-34.4883,-138.0197)"
   gradientUnits="userSpaceOnUse">
	<stop
   offset="0"
   style="stop-color:#F2CA20"
   id="stop2596" />
	<stop
   offset="0.0144"
   style="stop-color:#F2C71F"
   id="stop2598" />
	<stop
   offset="0.3516"
   style="stop-color:#F88E12"
   id="stop2600" />
	<stop
   offset="0.64"
   style="stop-color:#FC6308"
   id="stop2602" />
	<stop
   offset="0.8654"
   style="stop-color:#FE4A02"
   id="stop2604" />
	<stop
   offset="1"
   style="stop-color:#FF4000"
   id="stop2606" />
</radialGradient>
<path
   d="M 443.30595,141.88504 C 442.81595,143.63204 440.93195,144.62904 439.09495,144.11304 C 437.26095,143.59904 436.17095,141.76504 436.66095,140.01904 C 437.15095,138.27304 439.03595,137.27604 440.86995,137.79004 C 442.70595,138.30504 443.79595,140.13904 443.30595,141.88504 z "
   id="path2608"
   style="fill:url(#radialGradient21756);fill-opacity:1;stroke:#690101;stroke-width:0.2226;stroke-opacity:1" />
<radialGradient
   id="XMLID_30_"
   cx="524.00201"
   cy="129.5015"
   r="4.6076999"
   gradientTransform="matrix(0.9628,0.2703,-0.2703,0.9628,-34.4883,-138.0197)"
   gradientUnits="userSpaceOnUse">
	<stop
   offset="0"
   style="stop-color:#F2CA20"
   id="stop2611" />
	<stop
   offset="0.0144"
   style="stop-color:#F2C71F"
   id="stop2613" />
	<stop
   offset="0.3516"
   style="stop-color:#F88E12"
   id="stop2615" />
	<stop
   offset="0.64"
   style="stop-color:#FC6308"
   id="stop2617" />
	<stop
   offset="0.8654"
   style="stop-color:#FE4A02"
   id="stop2619" />
	<stop
   offset="1"
   style="stop-color:#FF4000"
   id="stop2621" />
</radialGradient>
<path
   d="M 434.05895,151.21604 C 433.56895,152.96304 431.68395,153.96104 429.84995,153.44504 C 428.01395,152.93004 426.92195,151.09804 427.41295,149.35204 C 427.90395,147.60504 429.78895,146.60804 431.62495,147.12304 C 433.46095,147.63804 434.55095,149.47204 434.05895,151.21604 z "
   id="path2623"
   style="fill:url(#radialGradient21754);fill-opacity:1;stroke:#690101;stroke-width:0.2226;stroke-opacity:1" />
<radialGradient
   id="XMLID_31_"
   cx="513.3457"
   cy="123.3242"
   r="4.6090002"
   gradientTransform="matrix(0.9628,0.2703,-0.2703,0.9628,-34.4883,-138.0197)"
   gradientUnits="userSpaceOnUse">
	<stop
   offset="0"
   style="stop-color:#F2CA20"
   id="stop2626" />
	<stop
   offset="0.0144"
   style="stop-color:#F2C71F"
   id="stop2628" />
	<stop
   offset="0.3516"
   style="stop-color:#F88E12"
   id="stop2630" />
	<stop
   offset="0.64"
   style="stop-color:#FC6308"
   id="stop2632" />
	<stop
   offset="0.8654"
   style="stop-color:#FE4A02"
   id="stop2634" />
	<stop
   offset="1"
   style="stop-color:#FF4000"
   id="stop2636" />
</radialGradient>
<path
   d="M 425.46995,142.38904 C 424.97995,144.13704 423.09495,145.13404 421.25895,144.61804 C 419.42495,144.10204 418.33495,142.27004 418.82495,140.52404 C 419.31595,138.77704 421.19995,137.77904 423.03395,138.29504 C 424.87095,138.81104 425.96095,140.64404 425.46995,142.38904 z "
   id="path2638"
   style="fill:url(#radialGradient21752);fill-opacity:1;stroke:#690101;stroke-width:0.2226;stroke-opacity:1" />
<radialGradient
   id="XMLID_32_"
   cx="503.55469"
   cy="131.90041"
   r="4.6093001"
   gradientTransform="matrix(0.9628,0.2703,-0.2703,0.9628,-34.4883,-138.0197)"
   gradientUnits="userSpaceOnUse">
	<stop
   offset="0"
   style="stop-color:#F2CA20"
   id="stop2641" />
	<stop
   offset="0.0144"
   style="stop-color:#F2C71F"
   id="stop2643" />
	<stop
   offset="0.3516"
   style="stop-color:#F88E12"
   id="stop2645" />
	<stop
   offset="0.64"
   style="stop-color:#FC6308"
   id="stop2647" />
	<stop
   offset="0.8654"
   style="stop-color:#FE4A02"
   id="stop2649" />
	<stop
   offset="1"
   style="stop-color:#FF4000"
   id="stop2651" />
</radialGradient>
<path
   d="M 413.72495,148.00104 C 413.23395,149.74704 411.34995,150.74404 409.51395,150.23004 C 407.67895,149.71504 406.58895,147.88104 407.07795,146.13504 C 407.56795,144.38804 409.45395,143.39104 411.28895,143.90704 C 413.12595,144.42004 414.21395,146.25304 413.72495,148.00104 z "
   id="path2653"
   style="fill:url(#radialGradient21750);fill-opacity:1;stroke:#690101;stroke-width:0.2226;stroke-opacity:1" />
<radialGradient
   id="XMLID_33_"
   cx="498.14059"
   cy="137.16701"
   r="4.6083002"
   gradientTransform="matrix(0.9628,0.2703,-0.2703,0.9628,-34.4883,-138.0197)"
   gradientUnits="userSpaceOnUse">
	<stop
   offset="0"
   style="stop-color:#F2CA20"
   id="stop2656" />
	<stop
   offset="0.0144"
   style="stop-color:#F2C71F"
   id="stop2658" />
	<stop
   offset="0.3516"
   style="stop-color:#F88E12"
   id="stop2660" />
	<stop
   offset="0.64"
   style="stop-color:#FC6308"
   id="stop2662" />
	<stop
   offset="0.8654"
   style="stop-color:#FE4A02"
   id="stop2664" />
	<stop
   offset="1"
   style="stop-color:#FF4000"
   id="stop2666" />
</radialGradient>
<path
   d="M 407.08795,151.60704 C 406.59895,153.35304 404.71195,154.35204 402.87795,153.83604 C 401.04195,153.32004 399.95395,151.48804 400.44295,149.74004 C 400.93195,147.99504 402.81695,146.99604 404.65295,147.51204 C 406.48895,148.02804 407.57695,149.86104 407.08795,151.60704 z "
   id="path2668"
   style="fill:url(#radialGradient21748);fill-opacity:1;stroke:#690101;stroke-width:0.2226;stroke-opacity:1" />
<radialGradient
   id="XMLID_34_"
   cx="489.6445"
   cy="135.2236"
   r="4.6085"
   gradientTransform="matrix(0.9628,0.2703,-0.2703,0.9628,-34.4883,-138.0197)"
   gradientUnits="userSpaceOnUse">
	<stop
   offset="0"
   style="stop-color:#F2CA20"
   id="stop2671" />
	<stop
   offset="0.0144"
   style="stop-color:#F2C71F"
   id="stop2673" />
	<stop
   offset="0.3516"
   style="stop-color:#F88E12"
   id="stop2675" />
	<stop
   offset="0.64"
   style="stop-color:#FC6308"
   id="stop2677" />
	<stop
   offset="0.8654"
   style="stop-color:#FE4A02"
   id="stop2679" />
	<stop
   offset="1"
   style="stop-color:#FF4000"
   id="stop2681" />
</radialGradient>
<path
   d="M 399.43195,147.43904 C 398.94195,149.18604 397.05595,150.18404 395.22095,149.66804 C 393.38695,149.15204 392.29695,147.32104 392.78695,145.57404 C 393.27595,143.82804 395.16195,142.83004 396.99695,143.34504 C 398.83195,143.86104 399.92195,145.69504 399.43195,147.43904 z "
   id="path2683"
   style="fill:url(#radialGradient21746);fill-opacity:1;stroke:#690101;stroke-width:0.2226;stroke-opacity:1" />
<radialGradient
   id="XMLID_35_"
   cx="486.83981"
   cy="143.12109"
   r="4.6082001"
   gradientTransform="matrix(0.9628,0.2703,-0.2703,0.9628,-34.4883,-138.0197)"
   gradientUnits="userSpaceOnUse">
	<stop
   offset="0"
   style="stop-color:#F2CA20"
   id="stop2686" />
	<stop
   offset="0.0144"
   style="stop-color:#F2C71F"
   id="stop2688" />
	<stop
   offset="0.3516"
   style="stop-color:#F88E12"
   id="stop2690" />
	<stop
   offset="0.64"
   style="stop-color:#FC6308"
   id="stop2692" />
	<stop
   offset="0.8654"
   style="stop-color:#FE4A02"
   id="stop2694" />
	<stop
   offset="1"
   style="stop-color:#FF4000"
   id="stop2696" />
</radialGradient>
<path
   d="M 394.59895,154.28604 C 394.10995,156.03304 392.22395,157.02904 390.38895,156.51404 C 388.55495,156.00104 387.46495,154.16704 387.95395,152.42104 C 388.44395,150.67404 390.32895,149.67704 392.16495,150.19304 C 394.00095,150.70604 395.08895,152.54004 394.59895,154.28604 z "
   id="path2698"
   style="fill:url(#radialGradient21744);fill-opacity:1;stroke:#690101;stroke-width:0.2226;stroke-opacity:1" />
<radialGradient
   id="XMLID_36_"
   cx="500.1445"
   cy="122.2139"
   r="4.6083002"
   gradientTransform="matrix(0.9628,0.2703,-0.2703,0.9628,-34.4883,-138.0197)"
   gradientUnits="userSpaceOnUse">
	<stop
   offset="0"
   style="stop-color:#F2CA20"
   id="stop2701" />
	<stop
   offset="0.0144"
   style="stop-color:#F2C71F"
   id="stop2703" />
	<stop
   offset="0.3516"
   style="stop-color:#F88E12"
   id="stop2705" />
	<stop
   offset="0.64"
   style="stop-color:#FC6308"
   id="stop2707" />
	<stop
   offset="0.8654"
   style="stop-color:#FE4A02"
   id="stop2709" />
	<stop
   offset="1"
   style="stop-color:#FF4000"
   id="stop2711" />
</radialGradient>
<path
   d="M 413.05795,137.75304 C 412.56595,139.49704 410.68195,140.49604 408.84795,139.98104 C 407.01195,139.46504 405.92095,137.63104 406.41295,135.88704 C 406.90195,134.14004 408.78895,133.14204 410.62295,133.65804 C 412.45695,134.17404 413.54995,136.00504 413.05795,137.75304 z "
   id="path2713"
   style="fill:url(#radialGradient21742);fill-opacity:1;stroke:#690101;stroke-width:0.2226;stroke-opacity:1" />
<line
   x1="384.18649"
   y1="187.83255"
   x2="399.36414"
   y2="144.8221"
   id="line2715"
   style="fill:none;stroke:#000000;stroke-width:1.0534004;stroke-opacity:1" />
<line
   x1="336.91931"
   y1="60.375496"
   x2="261.56201"
   y2="104.0844"
   id="line2717"
   style="fill:none;stroke:#000000;stroke-width:1.00000036;stroke-miterlimit:4;stroke-dasharray:none;stroke-opacity:1" />

<line
   x1="410.03339"
   y1="111.27519"
   x2="423.84882"
   y2="131.70987"
   id="line2721"
   style="fill:none;fill-opacity:1;stroke:#000000;stroke-width:1.05339921;stroke-opacity:1" />

<path
   d="M 397.28595,172.64704 L 401.78595,177.14704 C 401.78595,177.14704 408.53795,181.89704 413.28695,177.14704 C 418.03595,172.39704 427.53695,165.89704 427.53695,165.89704 L 438.78695,169.14704 L 435.78695,159.14704 L 451.53695,143.39704 C 451.53695,143.39704 458.53795,138.39804 453.78695,133.64704 C 449.03595,128.89704 446.28695,126.14704 446.28695,126.14704"
   id="path2725"
   style="fill:none;stroke:#000000;stroke-width:1.05340004;stroke-opacity:1" />
<polyline
   points="46.967,145.663 57.73,98.088 67.134,150.428 "
   id="polyline2727"
   transform="translate(-4.242641,14.14214)"
   style="fill:none;stroke:#000000;stroke-width:1.05340004;stroke-opacity:1" />
<path
   id="path2729"
   style="fill:#ffffff" />

<text
   transform="translate(249,18)"
   font-size="12"
   id="text2733"
   style="font-size:12px;font-family:Myriad-Roman" />




<text
   font-size="12"
   id="text2735"
   style="font-size:12px;font-family:Myriad-Roman"
   x="63.413757"
   y="34.376945">Estigma</text>




<text
   font-size="12"
   id="text2737"
   style="font-size:12px;font-family:Myriad-Roman"
   x="77.364929"
   y="48.359997">Estilo</text>




<text
   font-size="12"
   id="text2739"
   style="font-size:12px;text-align:start;line-height:125%;writing-mode:lr-tb;text-anchor:start;font-family:Myriad-Roman"
   x="340.85098"
   y="63.684608"
   sodipodi:linespacing="125%">Filamento</text>




<text
   transform="translate(249,193.999)"
   font-size="12"
   id="text2741"
   style="font-size:12px;text-align:start;line-height:125%;writing-mode:lr-tb;text-anchor:start;font-family:Myriad-Roman"
   sodipodi:linespacing="125%">Eje floral</text>





<text
   transform="translate(231.667,232.666)"
   font-size="12"
   id="text2745"
   style="font-size:12px;text-align:start;line-height:125%;writing-mode:lr-tb;text-anchor:start;font-family:Myriad-Roman"
   sodipodi:linespacing="125%">Pedculo</text>




<text
   font-size="12"
   id="text2747"
   style="font-size:12px;text-align:start;line-height:125%;writing-mode:lr-tb;text-anchor:start;font-family:Myriad-Roman"
   x="241.01051"
   y="213.83757"
   sodipodi:linespacing="125%">Nectario</text>




<text
   font-size="12"
   id="text2749"
   style="font-size:12px;font-weight:bold;text-align:start;line-height:125%;writing-mode:lr-tb;text-anchor:start;font-family:Myriad-Roman"
   x="362.28528"
   y="236.39037"
   sodipodi:linespacing="125%">Estambre</text>




<text
   font-size="12"
   id="text2751"
   style="font-size:12px;font-weight:bold;font-family:Myriad-Roman"
   x="44.169525"
   y="236.54271">Ovario</text>




<text
   font-size="12"
   id="text2753"
   style="font-size:12px;text-align:start;line-height:125%;writing-mode:lr-tb;text-anchor:start;font-family:Myriad-Roman"
   x="41.788818"
   y="108.30357"
   sodipodi:linespacing="125%">vulos</text>




<text
   font-size="12"
   id="text2755"
   style="font-size:12px;font-family:Myriad-Roman"
   x="355.75714"
   y="111.42241">Conectivo</text>




<text
   font-size="12"
   id="text2757"
   style="font-size:12px;text-align:start;line-height:125%;writing-mode:lr-tb;text-anchor:start;font-family:Myriad-Roman"
   x="371.20099"
   y="196.25584"
   sodipodi:linespacing="125%">Granos de Polen</text>




<text
   font-size="12"
   id="text2759"
   style="font-size:12px;text-align:start;line-height:125%;writing-mode:lr-tb;text-anchor:start;font-family:Myriad-Roman"
   x="427.47681"
   y="180.45143"
   sodipodi:linespacing="125%">Antera</text>




<text
   font-size="12"
   id="text2761"
   style="font-size:12px;font-weight:bold;fill:#865207;fill-opacity:1;stroke:none;stroke-opacity:1;font-family:Myriad-Roman"
   x="115.79982"
   y="118.95569">Perianto</text>




<text
   font-size="12"
   id="text2763"
   style="font-size:12px;font-family:Myriad-Roman"
   x="74.271919"
   y="134.48425">Corola: Ptalos</text>




<text
   font-size="12"
   id="text2765"
   style="font-size:12px;font-family:Myriad-Roman"
   x="79.615669"
   y="147.98071">Cliz: Spalos</text>




<text
   xml:space="preserve"
   style="font-size:12px;font-style:normal;font-weight:normal;fill:#000000;fill-opacity:1;stroke:none;stroke-width:1px;stroke-linecap:butt;stroke-linejoin:miter;stroke-opacity:1;font-family:Bitstream Vera Sans"
   x="71.364929"
   y="62.495384"
   id="text6325"><tspan
     sodipodi:role="line"
     id="tspan6327"
     x="71.364929"
     y="62.495384">Ovario</tspan></text>



<text
   xml:space="preserve"
   style="font-size:12px;font-style:normal;font-weight:bold;fill:#ff0076;fill-opacity:1;stroke:none;stroke-width:1px;stroke-linecap:butt;stroke-linejoin:miter;stroke-opacity:1;font-family:Bitstream Vera Sans"
   x="69.60611"
   y="20.54038"
   id="text6329"><tspan
     sodipodi:role="line"
     id="tspan6331"
     x="69.60611"
     y="20.54038">Gineceo</tspan></text>



<line
   style="fill:none;stroke:#000000;stroke-width:1;stroke-miterlimit:4;stroke-dasharray:none;stroke-opacity:1"
   id="line6333"
   y2="59.703369"
   x2="116.78718"
   y1="103.79914"
   x1="226.24239" /><line
   style="fill:none;stroke:#000000;stroke-width:1.00000024;stroke-miterlimit:4;stroke-dasharray:none;stroke-opacity:1"
   id="line12532"
   y2="73.443108"
   x2="270.99014"
   y1="45.172703"
   x1="337.03726" /><text
   xml:space="preserve"
   style="font-size:12px;font-style:normal;font-weight:normal;text-align:start;line-height:125%;writing-mode:lr-tb;text-anchor:start;fill:#000000;fill-opacity:1;stroke:none;stroke-width:1px;stroke-linecap:butt;stroke-linejoin:miter;stroke-opacity:1;font-family:Bitstream Vera Sans"
   x="341.85294"
   y="49.654964"
   id="text12534"
   sodipodi:linespacing="125%"><tspan
     sodipodi:role="line"
     id="tspan12536"
     x="341.85294"
     y="49.654964">Antera</tspan></text>



<text
   xml:space="preserve"
   style="font-size:12px;font-style:normal;font-weight:bold;text-align:start;line-height:125%;writing-mode:lr-tb;text-anchor:start;fill:#1141b9;fill-opacity:1;stroke:none;stroke-width:1px;stroke-linecap:butt;stroke-linejoin:miter;stroke-opacity:1;font-family:Bitstream Vera Sans"
   x="305.14896"
   y="35.625324"
   id="text12538"
   sodipodi:linespacing="125%"><tspan
     sodipodi:role="line"
     x="305.14896"
     y="35.625324"
     id="tspan19632">Androceo: Estambres</tspan></text>



<path
   style="fill:none;fill-rule:evenodd;stroke:#a36403;stroke-width:2;stroke-linecap:butt;stroke-linejoin:miter;stroke-miterlimit:4;stroke-dasharray:none;stroke-opacity:1"
   d="M 165.69869,121.7262 L 165.69869,153.17115"
   id="path11850" /><path
   id="path12796"
   d="M 337.28994,38.759004 L 337.28994,70.203954"
   style="fill:none;fill-rule:evenodd;stroke:#1141b9;stroke-width:2;stroke-linecap:butt;stroke-linejoin:miter;stroke-miterlimit:4;stroke-dasharray:none;stroke-opacity:1" /><path
   style="fill:none;fill-rule:evenodd;stroke:#ff0076;stroke-width:2;stroke-linecap:butt;stroke-linejoin:miter;stroke-miterlimit:4;stroke-dasharray:none;stroke-opacity:1"
   d="M 117,23.666667 L 117,66.333333"
   id="path2107" /></svg>