<?xml version="1.0" encoding="utf-8"?>
<!-- Generator: Adobe Illustrator 15.1.0, SVG Export Plug-In . SVG Version: 6.00 Build 0)  -->
<!DOCTYPE svg PUBLIC "-//W3C//DTD SVG 1.1//EN" "http://www.w3.org/Graphics/SVG/1.1/DTD/svg11.dtd">
<svg version="1.1" id="Layer_1" xmlns="http://www.w3.org/2000/svg" xmlns:xlink="http://www.w3.org/1999/xlink" x="0px" y="0px"
	 width="780px" height="870px" viewBox="0 0 780 870" enable-background="new 0 0 780 870" xml:space="preserve">
<g>
	<line fill="none" stroke="#000000" stroke-miterlimit="10" x1="264.896" y1="770.066" x2="597.396" y2="770.066"/>
	<g>
		<g>
			<line fill="none" stroke="#000000" stroke-miterlimit="10" x1="264.896" y1="770.066" x2="264.896" y2="754.904"/>
			<line fill="none" stroke="#000000" stroke-miterlimit="10" x1="348.021" y1="770.066" x2="348.021" y2="754.904"/>
			<line fill="none" stroke="#000000" stroke-miterlimit="10" x1="431.146" y1="770.066" x2="431.146" y2="754.904"/>
			<line fill="none" stroke="#000000" stroke-miterlimit="10" x1="514.271" y1="770.066" x2="514.271" y2="754.904"/>
			<line fill="none" stroke="#000000" stroke-miterlimit="10" x1="597.396" y1="770.066" x2="597.396" y2="754.904"/>
		</g>
		<g>
		</g>
	</g>
</g>
<g>
	<g>
		<text transform="matrix(1 0 0 1 236.4902 775.9111)" font-family="'LucidaBright'" font-size="25">0</text>
		<text transform="matrix(1 0 0 1 101.5537 654.6113)" font-family="'LucidaBright'" font-size="25">200,000,000</text>
		<text transform="matrix(1 0 0 1 101.5537 533.3115)" font-family="'LucidaBright'" font-size="25">400,000,000</text>
		<text transform="matrix(1 0 0 1 101.5537 412.0112)" font-family="'LucidaBright'" font-size="25">600,000,000</text>
		<text transform="matrix(1 0 0 1 101.5537 290.7109)" font-family="'LucidaBright'" font-size="25">800,000,000</text>
		<text transform="matrix(1 0 0 1 79.7158 169.4111)" font-family="'LucidaBright'" font-size="25">1,000,000,000</text>
	</g>
	<line fill="none" stroke="#000000" stroke-miterlimit="10" x1="264.896" y1="770.066" x2="264.896" y2="163.566"/>
	<g>
		<g>
			<line fill="none" stroke="#000000" stroke-miterlimit="10" x1="264.896" y1="770.066" x2="273.208" y2="770.066"/>
			<line fill="none" stroke="#000000" stroke-miterlimit="10" x1="264.896" y1="648.767" x2="273.208" y2="648.767"/>
			<line fill="none" stroke="#000000" stroke-miterlimit="10" x1="264.896" y1="527.467" x2="273.208" y2="527.467"/>
			<line fill="none" stroke="#000000" stroke-miterlimit="10" x1="264.896" y1="406.167" x2="273.208" y2="406.167"/>
			<line fill="none" stroke="#000000" stroke-miterlimit="10" x1="264.896" y1="284.866" x2="273.208" y2="284.866"/>
			<line fill="none" stroke="#000000" stroke-miterlimit="10" x1="264.896" y1="163.566" x2="273.208" y2="163.566"/>
		</g>
		<g>
		</g>
	</g>
</g>
<g>
	<g>
		<g>
			<rect x="285.677" y="762.432" fill="#80B1D3" stroke="#000000" stroke-miterlimit="10" width="41.563" height="7.635"/>
			<rect x="368.802" y="638.187" fill="#80B1D3" stroke="#000000" stroke-miterlimit="10" width="41.563" height="131.88"/>
			<rect x="451.927" y="447.444" fill="#80B1D3" stroke="#000000" stroke-miterlimit="10" width="41.563" height="322.622"/>
			<rect x="535.052" y="173.347" fill="#80B1D3" stroke="#000000" stroke-miterlimit="10" width="41.563" height="596.72"/>
		</g>
	</g>
</g>
<g>
	<g>
	</g>
</g>
<g>
	<text transform="matrix(1 0 0 1 530.3838 796.7324)"><tspan x="0" y="0" font-family="'LucidaBright'" font-size="25">18</tspan><tspan x="30.42" y="-6" font-family="'LucidaBright'" font-size="20">th</tspan></text>
	<text transform="matrix(1 0 0 1 447.2588 796.7324)"><tspan x="0" y="0" font-family="'LucidaBright'" font-size="25">17</tspan><tspan x="30.42" y="-6" font-family="'LucidaBright'" font-size="20">th</tspan></text>
	<text transform="matrix(1 0 0 1 364.1338 796.7324)"><tspan x="0" y="0" font-family="'LucidaBright'" font-size="25">16</tspan><tspan x="30.42" y="-6" font-family="'LucidaBright'" font-size="20">th</tspan></text>
	<text transform="matrix(1 0 0 1 281.0088 796.7324)"><tspan x="0" y="0" font-family="'LucidaBright'" font-size="25">15</tspan><tspan x="30.42" y="-6" font-family="'LucidaBright'" font-size="20">th</tspan></text>
</g>
<text transform="matrix(1 0 0 1 14.6455 448.8164)"><tspan x="0" y="0" font-family="'LucidaBright'" font-size="30">Number</tspan><tspan x="0" y="36" font-family="'LucidaBright'" font-size="30">of Copies</tspan></text>
<text transform="matrix(1 0 0 1 373.0576 824.3164)" font-family="'LucidaBright'" font-size="30">Century</text>
<text transform="matrix(1 0 0 1 96.9365 73.8164)"><tspan x="0" y="0" font-family="'LucidaBright'" font-size="40">European Output of Printed Books</tspan><tspan x="188.545" y="48" font-family="'LucidaBright'" font-size="40">ca. 1450-1800*</tspan></text>
</svg>
