<?xml version="1.0" encoding="UTF-8" standalone="no"?>
<svg
   xmlns:dc="http://purl.org/dc/elements/1.1/"
   xmlns:cc="http://creativecommons.org/ns#"
   xmlns:rdf="http://www.w3.org/1999/02/22-rdf-syntax-ns#"
   xmlns:svg="http://www.w3.org/2000/svg"
   xmlns="http://www.w3.org/2000/svg"
   xmlns:sodipodi="http://sodipodi.sourceforge.net/DTD/sodipodi-0.dtd"
   xmlns:inkscape="http://www.inkscape.org/namespaces/inkscape"
   inkscape:output_extension="org.inkscape.output.svg.inkscape"
   sodipodi:docname="Dycotyledon_seed_diagram-es.svg"
   inkscape:version="1.0 (4035a4fb49, 2020-05-01)"
   sodipodi:version="0.32"
   xml:space="preserve"
   enable-background="new 0 0 617.451 591.059"
   overflow="visible"
   viewBox="0 0 617.451 591.059"
   height="591.059"
   width="617.451"
   id="Layer_1"
   version="1.0"><metadata
   id="metadata236"><rdf:RDF><cc:Work
       rdf:about=""><dc:format>image/svg+xml</dc:format><dc:type
         rdf:resource="http://purl.org/dc/dcmitype/StillImage" /><dc:title></dc:title></cc:Work></rdf:RDF></metadata><defs
   id="defs234"><linearGradient
     id="XMLID_4_"
     gradientUnits="userSpaceOnUse"
     x1="209.5229"
     y1="540.41162"
     x2="351.543"
     y2="295.00079"><stop
       offset="0"
       style="stop-color:#94C476"
       id="stop69" /><stop
       offset="0.0855"
       style="stop-color:#ADCF8D"
       id="stop71" /><stop
       offset="0.2066"
       style="stop-color:#C8DCA7"
       id="stop73" /><stop
       offset="0.3378"
       style="stop-color:#DEE6BB"
       id="stop75" /><stop
       offset="0.4819"
       style="stop-color:#EDEEC9"
       id="stop77" /><stop
       offset="0.6491"
       style="stop-color:#F6F2D1"
       id="stop79" /><stop
       offset="0.8933"
       style="stop-color:#F9F3D4"
       id="stop81" /><stop
       offset="1"
       style="stop-color:#FFFFFF"
       id="stop83" /></linearGradient><linearGradient
     id="XMLID_3_"
     gradientUnits="userSpaceOnUse"
     x1="287.64011"
     y1="171.189"
     x2="242.0641"
     y2="64.845001"><stop
       offset="0"
       style="stop-color:#5A3D1C"
       id="stop58" /><stop
       offset="1"
       style="stop-color:#C2884C"
       id="stop60" /></linearGradient></defs><sodipodi:namedview
   inkscape:window-maximized="1"
   showgrid="false"
   inkscape:document-rotation="0"
   inkscape:current-layer="g418"
   inkscape:window-y="0"
   inkscape:window-x="1600"
   inkscape:cy="295.52951"
   inkscape:cx="278.32122"
   inkscape:zoom="1.2333794"
   id="base"
   pagecolor="#ffffff"
   bordercolor="#666666"
   borderopacity="1.0"
   objecttolerance="10.0"
   gridtolerance="10.0"
   guidetolerance="10.0"
   inkscape:pageopacity="0.0"
   inkscape:pageshadow="2"
   inkscape:window-width="1920"
   inkscape:window-height="1026" />










































<g
   sodipodi:insensitive="true"
   inkscape:label="fondo"
   id="layer1"
   inkscape:groupmode="layer"><rect
     y="-9.9609372e-07"
     x="0"
     width="617.45099"
     height="591.05902"
     id="rect3"
     fill="#ffffff" /><path
     fill="#cec8aa"
     d="m 57.056,415.98 c -2.094,-9.697 -5.361,-19.262 -5.97,-29.01 -2.028,-32.463 12.155,-70.986 28.806,-98.194 16.854,-27.539 37.311,-54.117 58.895,-78.041 33.207,-36.811 74.134,-65.806 120.502,-83.562 50.842,-19.469 98.004,-35.554001 152.36,-15.689 52.15,19.06 91.807,74.276 72.498,129.93 -15.945,45.955 -59.984,56.903 -101.482,71.259 -21.029,7.275 -44.119,18.416 -58.165,36.254 -26.025,33.055 -19.555,83.523 -30.627,122.186 -3.999,13.965 -5.697,28.191 -12.83,41.158 -15.647,28.445 -47.606,42.785 -78.199,48.625 -28.199,5.383 -69.666,9.045 -93.324,-10.084 C 102.872,545.435 98.941,539.259 94.156,532.197 82.29,514.691 73.274,503.775 68.915,482.5 64.907,462.941 60.857,443.451 58.391,423.625 c -0.319,-2.561 -0.787,-5.108 -1.335,-7.645 z"
     id="path5" /><path
     fill="#ddd8c7"
     d="m 123.169,550.082 c 21.119,21.438 71.298,16.191 97.258,9.246 28.035,-7.5 44.491,-19.256 61.985,-43 14.863,-20.174 15.818,-49.404 17.051,-73.246 0.863,-16.727 -1.078,-38.568 6.225,-53.754 10.608,-22.059 24.112,-47.336 47.116,-58.479 10.953,-5.305 17.094,-12.412 26.654,-20.032 10.416,-8.304 22.223,-14.745 34.051,-20.784 7.354,-3.754 14.174,-8.312 20.951,-12.726 13.678,-8.904 27.742,-17.043 37.049,-31.004 7.42,-11.127 17.904,-28.802 15.83,-42.909 -4.445,2.302 -7.344,11.357 -10.076,15.913 -3.807,6.348 -8.123,12.93 -12.502,19 -5.855,8.116 -14.141,15.356 -23.104,19.835 -13.281,6.638 -37.911,5.108 -52.527,4.143 -32.896,-2.173 -61.98,-17.075 -93.838,-23.279 -35.792,-6.971 -73.747,-2.732 -105.408,16.075 -22.66,13.46 -35.428,38.513 -44.467,62.319 -9.22,24.281 -19.314,47.18 -24.28,72.65 -3.046,15.625 -7.875,32.452 -6.458,48.512 1.211,13.718 4.982,22.592 2.969,36.972 -3.14,22.425 -12.765,55.98 5.521,74.548 z"
     id="path7" /><path
     fill="#e5e0ca"
     stroke="#c6c3a8"
     d="m 221.664,373.714 c -12.997,30.163 -20.561,66.172 -22.459,98.773 -0.492,8.443 0.283,14.451 4.089,21.75 1.655,3.173 4.967,1.516 6.435,5.817 1.672,4.901 -1.027,26.502 -3.396,31.686 -6.582,14.4 -22.33,9.127 -32.786,2.546 -9.055,-5.7 -16.089,-13.14 -21.446,-21.728 -8.696,-13.939 -13.831,-31.74 -14.313,-48.175 -0.34,-11.595 -3.915,-23.844 -2.633,-35.414 0.41,-3.702 3.036,-6.453 3.321,-9.917 0.412,-4.988 -4.484,-9.527 -5.702,-14.16 -2.097,-7.98 -2.401,-16.883 -1.852,-25.349 1.555,-23.929 9.496,-47.055 18.813,-68.813 3.435,-8.02 8.892,-15.863 13.72,-23.238 1.814,-2.771 4.455,-5.08 6.148,-7.95 1.147,-1.944 1.331,-5.522 2.468,-6.865 2.086,-2.462 8.797,-3.459 11.556,-4.473 9.588,-3.523 18.615,-7.842 28.475,-10.662 21.563,-6.167 42.852,-13.35 65.533,-13.333 14.992,0.011 33.73,0.259 47.308,7.481 3.518,1.871 7.156,4.198 10.111,6.871 4.368,3.95 5.152,4.968 0.68,7.918 -9.89,6.524 -21.554,10.766 -31.532,17.51 -10.972,7.416 -21.796,15.085 -31.931,23.625 -21.569,18.176 -39.391,40.069 -50.607,66.1 z"
     id="path9" /><path
     fill="#e5e2dc"
     d="m 338.794,197.95 c -9.479,-2.594 -17.242,-3.643 -27.085,-3.643 -9.031,0 -19.693,-2.106 -28.19,1.703 -5.875,2.634 -9.73,7.925 -15.833,10.568 -4.958,2.147 -21.081,6.955 -23.374,-1.096 -5.319,-1.157 -8.027,3.005 -11.596,6.452 -5.732,-0.908 -7.009,8.36 -12.153,10.265 2.525,-4.81 5.349,-8.534 8.65,-12.186 2.085,-2.307 9.748,-3.428 1.271,-6.48 -6.513,-2.345 -17.09,5.413 -22.213,8.374 0.25,-0.145 -8.125,-2.996 -9.598,-2.914 -4.16,0.23 -8.266,3.01 -12.049,4.508 -4.636,1.837 -15.226,8.676 -20.158,7.055 -0.456,2.986 -2.04,5.862 -4.445,7.95 1.751,8.062 8.205,14.062 10.451,21.557 -3.9,-3.302 -10.757,-10.891 -15.298,-12.196 -13.241,-3.803 -19.862,10.885 -25.422,19.599 -8.48,13.289 -20.651,24.614 -28.395,38.587 -16.248,29.324 -28.155,64.701 -30.384,98.164 -1.84,27.635 -0.416,54.297 7.072,80.959 4.739,16.877 11.252,34.775 19.839,49.924 2.231,3.936 8.628,18.34 12.822,19.949 8.681,3.332 11.188,-5.305 11.383,-11.967 0.261,-8.908 1.76,-17.732 1.847,-26.752 0.085,-8.816 1.389,-17.742 1.94,-26.52 0.491,-7.814 0.062,-15.768 1.223,-23.502 0.717,-4.78 -0.236,-11.03 0.679,-15.317 0.313,-1.469 2.387,-2.539 2.807,-4.378 0.283,-1.24 -0.657,-2.626 -0.588,-3.87 0.204,-3.692 2.033,-6.672 2.17,-10.332 0.143,-3.826 -1.626,-7.572 -1.927,-11.363 0.955,2.441 1.778,4.958 3.247,6.93 -7.712,-13.621 -8.076,-29.439 -5.195,-44.436 3.808,-19.825 8.77,-40.74 16.796,-59.331 3.931,-9.105 9.001,-17.425 14.015,-25.868 2.996,-5.043 5.605,-11.099 9.985,-14.632 6.401,-5.165 16.815,-9.57 24.503,-12.816 10.705,-4.521 22.419,-8.629 33.901,-10.865 26.889,-5.237 53.822,-9.555 80.768,-3.852 9.059,1.917 18.094,6.635 25.362,12.051 2.07,1.543 4.246,5.624 6.118,6.698 6.098,3.498 14.867,1.79 21.35,0.755 9.089,-1.45 18.204,-2.139 27.229,-4.1 5.969,-1.297 6.51,-0.871 12.17,-0.226 11.363,1.294 21.563,-0.826 32.893,-2.219 -0.031,-5.363 -5.914,-8.702 -10.139,-11.606 -2.717,-1.869 -5.369,-3.046 -7.953,-5.429 -4.004,-3.693 -4.904,-9.803 -7.752,-12.838 -3.299,-3.517 -10.852,-4.43 -15.346,-7.181 -6.223,-3.81 -10.438,-6.649 -17.65,-8.802 -12.771,-3.813 -23.857,-11.475 -37.254,-15.194 -0.168,-0.047 -0.332,-0.092 -0.494,-0.137 z"
     id="path43" /><path
     fill="#afac9a"
     d="m 122.113,542.632 c 4.067,-17.506 7.727,-48.033 2.046,-65.475 -1.559,-4.783 -5.564,-9.152 -6.511,-13.584 2.698,2.881 5.371,5.557 8.026,8.531 -1.103,-8.566 4.409,-14.457 5.875,-21.795 2.234,-11.184 -4.298,-13.852 -6.946,-21.793 2.268,1.766 5.744,1.945 7.823,2.92 3.354,-9.848 4.359,-16.09 4.852,-25.506 0.778,-14.879 10.761,-22.848 17.756,-36.371 4.731,-9.148 8.174,-18.888 11.522,-28.605 2.69,-7.809 5,-18.469 10.807,-24.648 2.115,-2.251 5.577,-5.568 6.573,-8.636 1.813,-5.578 -3.03,-11.651 -3.878,-16.777 0.287,-0.061 0.576,-0.114 0.866,-0.159 -2.297,-7.877 -6.987,-16.859 -11.262,-23.311 1.833,3.924 4.547,7.25 6.859,10.896 2.354,3.711 3.686,7.751 5.976,11.498 1.727,2.825 5.48,5.77 6.55,8.415 2.813,0.438 7.365,-2.031 10.43,-2.398 18.612,-2.233 33.982,-10.115 51.199,-16.778 11.889,-4.6 23.752,-9.421 36.156,-12.475 9.832,-2.42 19.32,-1.403 29.444,-2.112 12.841,-0.899 26.207,-3.455 39.177,-2.303 8.201,0.728 14.793,2.813 22.963,1.541 8.018,-1.25 15.883,-5.039 24.018,-5.176 8.914,-0.151 23.189,4.351 30.896,-1.425 -3.16,-9.469 -14.857,-13.255 -21.668,-19.04 -2.955,-2.511 -3.762,-6.557 -6.377,-8.829 -1.986,-1.727 -5.1,-1.376 -7.582,-3.125 -3.91,-2.755 -6.717,-6.083 -12.193,-8.586 -27.947,-12.778 -61.279,-24.233 -92.735,-24.218 9.682,0 19.453,-1.537 28.71,0.027 10.246,1.73 20.693,4.787 31.072,6.021 9.555,1.137 10.551,2.867 18.705,8.197 5.607,3.665 12.219,7.39 18.172,10.029 5.252,2.328 11.246,3.334 15.805,6.952 5.607,4.447 10.109,10.497 16.023,14.771 2.404,1.736 5.758,2.273 8.219,4.032 1.9,1.356 3.582,5.69 5.23,6.769 13.627,8.912 29.996,-12.213 36.104,-21.613 8.682,-13.363 13.428,-30.056 11.842,-46.007 0.805,-0.217 1.242,-0.507 1.854,-0.871 0.289,-0.172 1.428,21.458 0.975,23.765 -1.172,5.96 -4.189,11.872 -7.029,17.293 -6,11.452 -14.275,23.572 -24.508,31.692 -13.738,10.904 -25.379,11.043 -41.961,10.835 -11.551,-0.144 -22.686,3.264 -34.408,2.747 -11.619,-0.513 -23.186,-2.43 -34.834,-2.274 -23.017,0.307 -46.324,2.425 -66.88,12.346 -20.677,9.98 -44.738,16.019 -67.176,20.394 -21.235,4.142 -29.036,17.23 -37.406,37.56 -18.387,44.66 -39.226,86.984 -41.89,136.316 -0.366,6.773 2.681,69.248 -6.111,72.68"
     id="path45" /><path
     fill="#8b5c29"
     stroke="#000000"
     stroke-width="0.7791"
     d="m 108.011,184.352 c 16.623,-18.143 33.508,-31.549 53.798,-45.278 39.709,-26.87 77.233,-48.428001 125.371,-57.491001 39.422,-7.422 88.853,-5.91 126.013,10.522 9.23,4.081 19.158,7.498 27.857,12.792001 21.217,12.911 37.389,38.361 44.102,62.108 7.504,26.544 11.271,54.29 1.803,80.515 -14.723,40.763 -50.912,50.899 -85.607,71.408 -15.549,9.193 -31.379,18.363 -45.215,30.113 -20.014,16.992 -37.785,43.408 -43.868,69.076 -10.19,43.008 6.748,92.535 -32.324,124.25 -15.69,12.736 -33.915,22.145 -53.092,28.406 -37.824,12.352 -79.809,12.926 -118.056,2.066 C -5.706,540.33 1.678,372.4 40.36,287.903 c 8.275,-18.076 17.714,-35.567 28.369,-52.237 11.623,-18.185 24.694,-35.392 39.282,-51.314 z m 299.414,109.316 c 29.98,-15.66 67.236,-37.24 76.072,-72.938 11.281,-45.569 -24.305,-73.073 -62.254,-85.916 -15.639,-5.292 -32.102,-9.643 -48.992,-10.58 -13.727,-0.761 -40.311,-5.23 -52.632,2.346 -4.667,2.87 -8.791,12.654 -11.984,17.519 -8.859,13.499 -21.224,24.109 -33.829,33.863 -16.09,12.45 -31.832,20.132 -51.649,24.065 -19.345,3.839 -39.419,6.485 -57.036,16.054 -32.748,17.788 -60.135,54.017 -75.333,89.903 -23.835,56.275 -34.67,115.441 -14.409,174.736 6.536,19.125 21.144,47.561 35.713,61.785 21.139,20.639 53.844,16.256 79.91,15.223 16.588,-0.658 31.706,-5.58 46.914,-12.016 28.741,-12.16 44.91,-41.508 52.529,-70.176 4.295,-16.162 5.66,-32.398 7.272,-48.871 0.503,-5.145 -0.06,-11.252 1.736,-16.119 1.354,-3.672 5.014,-6.279 4.696,-10.572 -0.327,-4.426 -4.063,-7.375 -3.913,-11.848 0.124,-3.668 2.238,-8.861 3.264,-12.475 2.564,-9.043 6.777,-17.49 12.69,-24.814 22.805,-28.24 59.967,-42.836 91.235,-59.169 z"
     id="path47" /><g
     id="g49"><g
       id="g51"><path
         fill="#5a3d1c"
         d="m 319.583,124.474 c -3.664,2.252 -6.78,7.913 -9.529,12.907 -1.054,1.915 -2.049,3.723 -2.942,5.083 -8.884,13.536 -21.341,24.093 -33.479,33.485 -16.405,12.694 -32.134,20.025 -51,23.77 l -8.883,1.7 c -16.445,3.091 -33.451,6.287 -48.594,14.513 -30.6,16.622 -59.02,50.515 -76.024,90.664 -27.759,65.542 -32.485,123.064 -14.448,175.849 6.75,19.752 21.695,48.334 36.099,62.396 19.313,18.855 47.466,17.385 72.306,16.086 l 8.754,-0.422 c 18.26,-0.725 34.237,-6.541 47.459,-12.137 33.823,-14.311 47.992,-50.758 53.428,-71.209 4.024,-15.146 5.526,-30.646 6.978,-45.639 l 0.339,-3.484 c 0.503,-5.135 -0.085,-12.316 2.065,-16.482 1.475,-2.855 5.076,-3.428 4.056,-8.264 -0.942,-4.465 -4.239,-6.75 -3.989,-11.438 0.211,-3.936 2.201,-9.293 3.243,-13.205 2.487,-9.336 6.677,-18.074 12.761,-25.61 6.543,-8.104 14.635,-15.534 24.737,-22.714 0,0 2.451,-1.808 2.484,-1.832 3.043,-2.27 5.58,-3.7 9.42,-3.47 3.791,0.228 6.869,3.382 10.662,2.987 3.016,-0.315 6.561,-2.365 8.484,-4.834 2.678,-3.437 1.514,-7.113 3.354,-10.699 4.307,-8.394 19.922,-12.033 27.67,-16.126 l 3.934,-2.079 c 34.932,-18.248 68.42,-39.835 76.863,-73.946 13.68,-55.261 -39.689,-79.786 -63.27,-87.766 -19.096,-6.462 -34.793,-9.85 -49.404,-10.66 l -9.035,-0.729 c -14.388,-1.305 -34.091,-3.095 -44.499,3.305 z M 112.96,542.611 C 98.902,528.886 84.267,500.849 77.633,481.437 59.855,429.41 64.554,372.617 92.001,307.812 c 16.488,-38.932 45.089,-73.088 74.642,-89.141 14.713,-7.992 31.473,-11.142 47.682,-14.188 l 8.914,-1.707 c 19.364,-3.843 35.494,-11.357 52.299,-24.362 12.354,-9.558 25.044,-20.322 34.179,-34.24 0.96,-1.462 1.983,-3.322 3.067,-5.291 2.436,-4.426 5.468,-9.934 8.43,-11.755 9.526,-5.857 28.633,-4.122 42.584,-2.854 l 9.146,0.737 c 14.32,0.794 29.756,4.131 48.576,10.5 20.266,6.857 63.332,26.322 63.332,67.727 0,5.106 -0.654,10.547 -2.088,16.338 -8.146,32.913 -40.996,54.023 -75.281,71.933 l -3.953,2.09 c -4.193,2.229 -8.529,4.534 -12.861,6.428 l -3.494,1.413 c -4.348,1.689 -8.844,3.436 -12.115,7.59 -0.9,1.145 -1.594,2.271 -2.205,3.266 -1.289,2.099 -2.307,3.756 -4.752,4.942 -2.48,1.202 -5.176,1.503 -8.027,1.821 -2.211,0.246 -4.498,0.502 -6.746,1.204 -3.699,1.157 -6.801,3.487 -9.801,5.74 l -2.414,1.782 c -10.338,7.346 -18.631,14.966 -25.358,23.295 -8.742,10.826 -20.076,32.975 -15.438,47.395 0.539,1.678 2.396,2.352 2.514,4.15 0.184,2.838 -1.936,3.701 -2.863,5.98 -2.213,5.447 -2.452,13.275 -3.024,19.129 l -0.339,3.488 c -1.506,15.549 -2.929,30.238 -6.888,45.137 -5.29,19.9 -19.03,55.346 -51.631,69.141 -12.962,5.484 -28.608,11.188 -46.368,11.893 l -8.793,0.422 c -24.201,1.265 -51.63,2.698 -69.967,-15.204 z m 294.519,-251.101 0.004,-0.002 z"
         id="path53" /></g><g
       id="g55"><linearGradient
         id="linearGradient101"
         gradientUnits="userSpaceOnUse"
         x1="287.64011"
         y1="171.189"
         x2="242.0641"
         y2="64.845001"><stop
           offset="0"
           style="stop-color:#5A3D1C"
           id="stop97" /><stop
           offset="1"
           style="stop-color:#C2884C"
           id="stop99" /></linearGradient><path
         style="fill:url(#XMLID_3_)"
         fill="url(#XMLID_3_)"
         stroke="#000000"
         stroke-width="0.7791"
         d="m 227.679,200.615 c 30.18,-5.141 44.027,-45.962 44.411,-71.577 0.244,-16.295 -3.197,-30.951 -11.687,-45.636 -9.834,-17.013 -30.855,-13.262 -42.387,-26.481 8.732,-4.592 16.588,-10.449 25.091,-15.471 15.226,-8.992 32.271,-19.773 44.491,-32.341 21.568,12.618 32.181,41.646 34.475,65.3 1.521,15.684 1.919,34.572 -3.566,49.018 -10.021,26.387 -30.857,55.781 -56.938,67.872 -12.69,5.884 -28.113,10.502 -42.07,11.655"
         id="path62" /><path
         fill="none"
         stroke="#5a3d1c"
         stroke-width="3.8956"
         d="m 227.278,201.077 c 30.18,-5.141 44.028,-45.962 44.411,-71.577 0.244,-16.295 -3.196,-30.951 -11.687,-45.636 -9.834,-17.013 -30.855,-13.262 -42.386,-26.481"
         id="path64" /></g></g><g
     id="g66"><linearGradient
       id="linearGradient123"
       gradientUnits="userSpaceOnUse"
       x1="209.5229"
       y1="540.41162"
       x2="351.543"
       y2="295.00079"><stop
         offset="0"
         style="stop-color:#94C476"
         id="stop107" /><stop
         offset="0.0855"
         style="stop-color:#ADCF8D"
         id="stop109" /><stop
         offset="0.2066"
         style="stop-color:#C8DCA7"
         id="stop111" /><stop
         offset="0.3378"
         style="stop-color:#DEE6BB"
         id="stop113" /><stop
         offset="0.4819"
         style="stop-color:#EDEEC9"
         id="stop115" /><stop
         offset="0.6491"
         style="stop-color:#F6F2D1"
         id="stop117" /><stop
         offset="0.8933"
         style="stop-color:#F9F3D4"
         id="stop119" /><stop
         offset="1"
         style="stop-color:#FFFFFF"
         id="stop121" /></linearGradient><path
       style="fill:url(#XMLID_4_)"
       fill="url(#XMLID_4_)"
       stroke="#c6c3a8"
       d="m 247.787,465.642 c 22.209,-31.131 10.484,-88.998 30.631,-120.608 4.031,-6.325 10.075,-12.265 15.576,-17.396 5.029,-4.691 9.79,-8.809 15.811,-12.318 4.785,-2.791 9.857,-5.115 15.199,-6.617 4.787,-1.346 8.964,-3.537 13.923,-4.62 5.143,-1.123 10.402,-1.36 15.65,-1.349 4.084,0.009 7.23,1.066 11.133,1.841 3.369,0.668 8.258,0.873 8.881,5.15 0.453,3.109 -1.682,6.465 -3.41,8.855 -2.229,3.08 -5.783,3.053 -9.02,1.57 -1.348,-0.617 -2.223,-1.547 -3.754,-1.676 -1.945,-0.164 -4.16,0.803 -6.006,1.309 -4.529,1.238 -8.881,3.199 -13.291,4.791 -4.496,1.621 -7.072,4.703 -10.051,8.465 -0.008,0.012 -0.018,0.023 -0.027,0.035 -9.039,11.143 -24.434,13.174 -26.911,30.248 -1.983,13.672 -1.079,25.695 -5.054,39.4 -9.27,31.961 -4.06,69.863 -21.162,99.402 -11.42,19.725 -36.007,42.043 -60.235,43.197 -25.133,1.199 -37.072,-27.506 -24.562,-47.646 4.976,-8.012 9.021,-9.857 17.673,-12.291 6.089,-1.711 13.332,-1.309 19.374,-3.924 8.54,-3.691 14.867,-9.14 19.632,-15.818 z"
       id="path85" /></g><path
     fill="#b2b2b2"
     stroke="#000000"
     stroke-width="0.7791"
     d="m 360.563,327.472 c 0.195,-1.219 0.232,-2.408 -0.006,-3.459 -0.965,-4.23 -4.365,-4.049 -8.271,-4.391 -13.301,-1.158 -27.19,10.074 -35.686,19.109 -8.772,9.332 -27.735,38.422 -17.263,51.928 4.715,6.076 7.45,4.43 10.203,-1.207 3.29,-6.736 7.749,-13.131 11.417,-19.717 4.606,-8.27 11.055,-12.646 18.542,-18.021 6.75,-4.846 15.984,-9.76 19.131,-17.893 0.687,-1.777 1.576,-4.114 1.933,-6.349 z"
     id="path87" /><path
     fill="#d1d1d1"
     stroke="#000000"
     stroke-width="0.7791"
     d="m 359.3,324.148 c 0.422,-0.168 0.684,-0.213 0.914,-0.648 -4.252,-6.584 -14.758,-4.568 -21.193,-2.473 -4.723,1.539 -10.902,5.355 -14.542,8.744 -2.077,1.934 -4.186,3.828 -6.235,5.801 -4.979,4.795 -9.238,10.75 -12.996,16.494 -5.188,7.93 -8.944,17.527 -9.476,27.051 -0.109,1.969 -0.113,9.666 4.07,8.482 2.262,-0.641 2.181,-7.02 2.716,-9.031 2.086,-7.838 5.463,-15.59 9.959,-22.754 6.085,-9.693 17.076,-20.227 26.91,-26.084 3.676,-2.191 7.674,-4.033 11.945,-4.777 2.178,-0.379 5.654,0.089 7.928,-0.805 z"
     id="path89" /><polyline
     fill="none"
     stroke="#000000"
     points="257.94,293.569 502.72,303.263 248.603,260.21 "
     id="polyline167" /><line
     fill="none"
     stroke="#000000"
     x1="324.41199"
     y1="349.04099"
     x2="397.603"
     y2="386.759"
     id="line169" /><line
     fill="none"
     stroke="#000000"
     x1="305.17599"
     y1="402.89999"
     x2="368.72601"
     y2="405.048"
     id="line171" /><line
     fill="none"
     stroke="#000000"
     x1="366.22601"
     y1="313.263"
     x2="502.72"
     y2="333.26099"
     id="line173" /><polyline
     fill="none"
     stroke="#000000"
     points="231.233,512.753 427.724,497.753 502.72,358.259 "
     id="polyline175" /><ellipse
     cx="257.939"
     cy="293.14899"
     rx="3.8469999"
     ry="3.4200001"
     id="ellipse177" /><ellipse
     cx="231.233"
     cy="513.33301"
     rx="3.846"
     ry="3.4200001"
     id="ellipse179" /><ellipse
     cx="325.41199"
     cy="348.621"
     rx="3.8469999"
     ry="3.4200001"
     id="ellipse181" /><ellipse
     cx="306.16699"
     cy="402.871"
     rx="3.8469999"
     ry="3.4200001"
     id="ellipse183" /><polyline
     fill="none"
     stroke="#94c476"
     stroke-width="4"
     points="502.72,280.264 502.72,376.259 598.714,376.259 "
     id="polyline199" /><ellipse
     cx="366.103"
     cy="312.81699"
     rx="3.8469999"
     ry="3.4200001"
     id="ellipse201" /><path
     fill="none"
     stroke="#c6c3a8"
     d="m 136.202,418.795 c -12.468,-20.4 -4.473,-55.06 1.089,-76.565 4.219,-16.314 10.58,-32.632 19.611,-46.958 4.461,-7.076 11.574,-13.959 14.089,-21.816 3.911,3.568 8.35,11.543 10.271,17.427 -2.233,-6.835 -5.993,-11.478 -9.472,-17.555 34.108,-19.185 77.779,-30.083 117.731,-30.024 12.196,0.018 21.557,2.471 32.592,6.042 6.595,2.134 19.241,13.868 24.076,11.957"
     id="path203" /><ellipse
     cx="248.604"
     cy="260.20901"
     rx="3.8469999"
     ry="3.4200001"
     id="ellipse205" /><line
     fill="none"
     stroke="#000000"
     x1="241.45"
     y1="420.79099"
     x2="353.12"
     y2="431.064"
     id="line229" /><ellipse
     cx="237.604"
     cy="420.79099"
     rx="3.8469999"
     ry="3.4200001"
     id="ellipse231" /></g><g
   style="display:none"
   inkscape:label="texto"
   id="layer2"
   inkscape:groupmode="layer"><text
     id="text2388"
     y="35.674313"
     x="361.60812"
     style="font-style:normal;font-weight:normal;line-height:0%;font-family:'Bitstream Vera Sans';text-align:center;text-anchor:middle;fill:#000000;fill-opacity:1;stroke:none;stroke-width:1px;stroke-linecap:butt;stroke-linejoin:miter;stroke-opacity:1"
     xml:space="preserve"><tspan
       style="font-size:18px;line-height:1.25"
       y="35.674313"
       x="361.60812"
       id="tspan2390"
       sodipodi:role="line">Tegumento</tspan></text><text
     id="text2392"
     y="274.04379"
     x="543.9798"
     style="font-style:normal;font-variant:normal;font-weight:bold;font-stretch:normal;line-height:0%;font-family:'Bitstream Vera Sans';text-align:center;writing-mode:lr-tb;text-anchor:middle;fill:#94c476;fill-opacity:1;stroke:none;stroke-width:1px;stroke-linecap:butt;stroke-linejoin:miter;stroke-opacity:1"
     xml:space="preserve"><tspan
       style="font-size:18px;line-height:1.25"
       y="274.04379"
       x="543.9798"
       id="tspan2394"
       sodipodi:role="line">Embrión</tspan></text><text
     id="text2396"
     y="307.28577"
     x="549.92896"
     style="font-style:normal;font-weight:normal;line-height:0%;font-family:'Bitstream Vera Sans';text-align:center;text-anchor:middle;fill:#000000;fill-opacity:1;stroke:none;stroke-width:1px;stroke-linecap:butt;stroke-linejoin:miter;stroke-opacity:1"
     xml:space="preserve"><tspan
       style="font-size:18px;line-height:1.25"
       y="307.28577"
       x="549.92896"
       id="tspan2398"
       sodipodi:role="line">Cotiledón</tspan></text><text
     id="text2400"
     y="338.09546"
     x="544.84448"
     style="font-style:normal;font-weight:normal;line-height:0%;font-family:'Bitstream Vera Sans';text-align:center;text-anchor:middle;fill:#000000;fill-opacity:1;stroke:none;stroke-width:1px;stroke-linecap:butt;stroke-linejoin:miter;stroke-opacity:1"
     xml:space="preserve"><tspan
       style="font-size:18px;line-height:1.25"
       y="338.09546"
       x="544.84448"
       id="tspan2402"
       sodipodi:role="line">Radícula</tspan></text><text
     id="text2404"
     y="364.8512"
     x="551.37036"
     style="font-style:normal;font-weight:normal;line-height:0%;font-family:'Bitstream Vera Sans';text-align:center;text-anchor:middle;fill:#000000;fill-opacity:1;stroke:none;stroke-width:1px;stroke-linecap:butt;stroke-linejoin:miter;stroke-opacity:1"
     xml:space="preserve"><tspan
       style="font-size:18px;line-height:1.25"
       y="364.8512"
       x="551.37036"
       id="tspan2406"
       sodipodi:role="line">Hipocótilo</tspan></text><text
     id="text2408"
     y="392.41779"
     x="420.79514"
     style="font-style:normal;font-weight:normal;line-height:0%;font-family:'Bitstream Vera Sans';text-align:center;text-anchor:middle;fill:#000000;fill-opacity:1;stroke:none;stroke-width:1px;stroke-linecap:butt;stroke-linejoin:miter;stroke-opacity:1"
     xml:space="preserve"><tspan
       style="font-size:18px;line-height:1.25"
       y="392.41779"
       x="420.79514"
       id="tspan2410"
       sodipodi:role="line">Hilo</tspan></text><text
     id="text2412"
     y="412.68726"
     x="413.49808"
     style="font-style:normal;font-weight:normal;line-height:0%;font-family:'Bitstream Vera Sans';text-align:center;text-anchor:middle;fill:#000000;fill-opacity:1;stroke:none;stroke-width:1px;stroke-linecap:butt;stroke-linejoin:miter;stroke-opacity:1"
     xml:space="preserve"><tspan
       style="font-size:18px;line-height:1.25"
       y="412.68726"
       x="413.49808"
       id="tspan2414"
       sodipodi:role="line">Micrópilo</tspan></text><text
     id="text2416"
     y="437.82147"
     x="398.09323"
     style="font-style:normal;font-weight:normal;line-height:0%;font-family:'Bitstream Vera Sans';text-align:center;text-anchor:middle;fill:#000000;fill-opacity:1;stroke:none;stroke-width:1px;stroke-linecap:butt;stroke-linejoin:miter;stroke-opacity:1"
     xml:space="preserve"><tspan
       style="font-size:18px;line-height:1.25"
       y="437.82147"
       x="398.09323"
       id="tspan2418"
       sodipodi:role="line">Albumen</tspan></text></g><g
   inkscape:groupmode="layer"
   id="g418"
   inkscape:label="texto copia"><g
     style="font-style:normal;font-weight:normal;line-height:0%;font-family:'Bitstream Vera Sans';text-align:center;text-anchor:middle;fill:#000000;fill-opacity:1;stroke:none;stroke-width:1px;stroke-linecap:butt;stroke-linejoin:miter;stroke-opacity:1"
     id="text388"
     aria-label="Tegumento"><path
       id="path535"
       style="font-size:18px;line-height:1.25"
       d="m 311.58957,22.552242 h 11.10059 v 1.494141 h -4.65821 v 11.62793 h -1.78418 v -11.62793 h -4.6582 z" /><path
       id="path537"
       style="font-size:18px;line-height:1.25"
       d="m 329.69504,30.348141 v 0.791015 h -7.43555 q 0.10547,1.669922 1.00195,2.548828 0.90528,0.870118 2.51368,0.870118 0.93164,0 1.80175,-0.228516 0.87891,-0.228516 1.74024,-0.685547 v 1.529297 q -0.87012,0.369141 -1.78418,0.5625 -0.91406,0.193359 -1.85449,0.193359 -2.35547,0 -3.73536,-1.371093 -1.37109,-1.371094 -1.37109,-3.708985 0,-2.416992 1.30078,-3.832031 1.30957,-1.423828 3.52442,-1.423828 1.98632,0 3.13769,1.283203 1.16016,1.274414 1.16016,3.47168 z m -1.61719,-0.47461 q -0.0176,-1.327148 -0.74707,-2.118164 -0.7207,-0.791015 -1.91602,-0.791015 -1.35351,0 -2.17089,0.764648 -0.8086,0.764649 -0.93164,2.15332 z" /><path
       id="path539"
       style="font-size:18px;line-height:1.25"
       d="m 338.82687,30.63818 q 0,-1.757813 -0.72949,-2.72461 -0.7207,-0.966796 -2.03027,-0.966796 -1.30078,0 -2.03028,0.966796 -0.7207,0.966797 -0.7207,2.72461 0,1.749023 0.7207,2.71582 0.7295,0.966797 2.03028,0.966797 1.30957,0 2.03027,-0.966797 0.72949,-0.966797 0.72949,-2.71582 z m 1.61719,3.814453 q 0,2.513672 -1.11621,3.735351 -1.11621,1.230469 -3.41894,1.230469 -0.85254,0 -1.6084,-0.131836 -0.75586,-0.123047 -1.46778,-0.386718 v -1.573243 q 0.71192,0.386719 1.40625,0.571289 0.69434,0.184571 1.41504,0.184571 1.59082,0 2.38184,-0.834961 0.79101,-0.826172 0.79101,-2.504883 v -0.799805 q -0.50097,0.870117 -1.2832,1.300782 -0.78223,0.430664 -1.87207,0.430664 -1.81055,0 -2.91797,-1.379883 -1.10742,-1.379883 -1.10742,-3.65625 0,-2.285156 1.10742,-3.665039 1.10742,-1.379883 2.91797,-1.379883 1.08984,0 1.87207,0.430664 0.78223,0.430664 1.2832,1.300781 v -1.49414 h 1.61719 z" /><path
       id="path541"
       style="font-size:18px;line-height:1.25"
       d="m 343.60812,31.789547 v -5.958984 h 1.61719 v 5.897461 q 0,1.39746 0.54492,2.100585 0.54493,0.694336 1.63477,0.694336 1.30957,0 2.06543,-0.834961 0.76465,-0.83496 0.76465,-2.276367 v -5.581054 h 1.61718 v 9.84375 h -1.61718 v -1.511719 q -0.58887,0.896484 -1.3711,1.335937 -0.77343,0.430664 -1.80175,0.430664 -1.69629,0 -2.5752,-1.054687 -0.87891,-1.054688 -0.87891,-3.084961 z" /><path
       id="path543"
       style="font-size:18px;line-height:1.25"
       d="m 362.84738,27.720211 q 0.60645,-1.089844 1.4502,-1.608398 0.84375,-0.518555 1.98633,-0.518555 1.53808,0 2.37304,1.081055 0.83496,1.072265 0.83496,3.058593 v 5.941407 h -1.62597 v -5.888672 q 0,-1.415039 -0.50098,-2.100586 -0.50098,-0.685547 -1.5293,-0.685547 -1.25683,0 -1.98633,0.834961 -0.72949,0.834961 -0.72949,2.276367 v 5.563477 h -1.62597 v -5.888672 q 0,-1.423828 -0.50098,-2.100586 -0.50098,-0.685547 -1.54688,-0.685547 -1.23925,0 -1.96875,0.84375 -0.72949,0.834961 -0.72949,2.267578 v 5.563477 h -1.62597 v -9.84375 h 1.62597 v 1.529296 q 0.55371,-0.905273 1.32715,-1.335937 0.77344,-0.430664 1.83691,-0.430664 1.07227,0 1.81934,0.544922 0.75586,0.544922 1.11621,1.582031 z" /><path
       id="path545"
       style="font-size:18px;line-height:1.25"
       d="m 381.13742,30.348141 v 0.791015 h -7.43555 q 0.10547,1.669922 1.00196,2.548828 0.90527,0.870118 2.51367,0.870118 0.93164,0 1.80176,-0.228516 0.8789,-0.228516 1.74023,-0.685547 v 1.529297 q -0.87012,0.369141 -1.78418,0.5625 -0.91406,0.193359 -1.85449,0.193359 -2.35547,0 -3.73535,-1.371093 -1.3711,-1.371094 -1.3711,-3.708985 0,-2.416992 1.30079,-3.832031 1.30957,-1.423828 3.52441,-1.423828 1.98633,0 3.13769,1.283203 1.16016,1.274414 1.16016,3.47168 z m -1.61719,-0.47461 q -0.0176,-1.327148 -0.74707,-2.118164 -0.7207,-0.791015 -1.91601,-0.791015 -1.35352,0 -2.1709,0.764648 -0.80859,0.764649 -0.93164,2.15332 z" /><path
       id="path547"
       style="font-size:18px;line-height:1.25"
       d="m 391.97433,29.732906 v 5.941407 h -1.61718 v -5.888672 q 0,-1.397461 -0.54492,-2.091797 -0.54493,-0.694336 -1.63477,-0.694336 -1.30957,0 -2.06543,0.834961 -0.75586,0.834961 -0.75586,2.276367 v 5.563477 h -1.62598 v -9.84375 h 1.62598 v 1.529296 q 0.58008,-0.887695 1.36231,-1.327148 0.79101,-0.439453 1.81933,-0.439453 1.69629,0 2.56641,1.054687 0.87011,1.045899 0.87011,3.084961 z" /><path
       id="path549"
       style="font-size:18px;line-height:1.25"
       d="m 396.79953,23.035641 v 2.794922 h 3.33105 v 1.256836 h -3.33105 v 5.34375 q 0,1.204101 0.3252,1.546875 0.33398,0.342773 1.34472,0.342773 h 1.66113 v 1.353516 h -1.66113 q -1.87207,0 -2.58398,-0.694336 -0.71192,-0.703125 -0.71192,-2.548828 v -5.34375 h -1.18652 v -1.256836 h 1.18652 v -2.794922 z" /><path
       id="path551"
       style="font-size:18px;line-height:1.25"
       d="m 406.07199,26.964352 q -1.30078,0 -2.05664,1.019531 -0.75586,1.010742 -0.75586,2.777344 0,1.766601 0.74707,2.786132 0.75586,1.010743 2.06543,1.010743 1.29199,0 2.04785,-1.019532 0.75586,-1.019531 0.75586,-2.777343 0,-1.749024 -0.75586,-2.768555 -0.75586,-1.02832 -2.04785,-1.02832 z m 0,-1.371094 q 2.10938,0 3.31348,1.371094 1.2041,1.371093 1.2041,3.796875 0,2.416992 -1.2041,3.796875 -1.2041,1.371093 -3.31348,1.371093 -2.11816,0 -3.32226,-1.371093 -1.19532,-1.379883 -1.19532,-3.796875 0,-2.425782 1.19532,-3.796875 1.2041,-1.371094 3.32226,-1.371094 z" /></g><g
     style="font-style:normal;font-variant:normal;font-weight:bold;font-stretch:normal;line-height:0%;font-family:'Bitstream Vera Sans';text-align:center;writing-mode:lr-tb;text-anchor:middle;fill:#94c476;fill-opacity:1;stroke:none;stroke-width:1px;stroke-linecap:butt;stroke-linejoin:miter;stroke-opacity:1"
     id="text392"
     aria-label="Embrión"><path
       id="path520"
       style="font-size:18px;line-height:1.25"
       d="m 503.55011,260.92172 h 9.13184 v 2.55762 h -5.74805 v 2.44336 h 5.40527 v 2.55762 h -5.40527 v 3.00586 h 5.94141 v 2.55761 h -9.3252 z" /><path
       id="path522"
       style="font-size:18px;line-height:1.25"
       d="m 524.82843,265.83481 q 0.59766,-0.91406 1.41504,-1.38867 0.82617,-0.4834 1.81055,-0.4834 1.69629,0 2.58398,1.0459 0.8877,1.04589 0.8877,3.04101 v 5.99414 h -3.16407 v -5.13281 q 0.009,-0.11426 0.009,-0.2373 0.009,-0.12305 0.009,-0.35157 0,-1.0459 -0.30762,-1.51172 -0.30761,-0.47461 -0.99316,-0.47461 -0.89648,0 -1.38867,0.73829 -0.4834,0.73828 -0.50098,2.13574 v 4.83398 h -3.16406 v -5.13281 q 0,-1.63477 -0.28125,-2.10059 -0.28125,-0.47461 -1.00195,-0.47461 -0.90528,0 -1.39746,0.74708 -0.49219,0.73828 -0.49219,2.11816 v 4.84277 h -3.16406 v -9.84375 h 3.16406 v 1.44141 q 0.58008,-0.83496 1.32715,-1.25684 0.75586,-0.42187 1.66113,-0.42187 1.01953,0 1.80176,0.49219 0.78222,0.49218 1.18652,1.37988 z" /><path
       id="path524"
       style="font-size:18px;line-height:1.25"
       d="m 539.69952,272.01352 q 1.01075,0 1.53809,-0.73828 0.53613,-0.73828 0.53613,-2.14453 0,-1.40625 -0.53613,-2.14453 -0.52734,-0.73829 -1.53809,-0.73829 -1.01074,0 -1.55566,0.74707 -0.53613,0.73829 -0.53613,2.13575 0,1.39746 0.53613,2.14453 0.54492,0.73828 1.55566,0.73828 z m -2.09179,-6.37207 q 0.65039,-0.86133 1.4414,-1.26563 0.79102,-0.41308 1.81934,-0.41308 1.81934,0 2.98828,1.45019 1.16895,1.44141 1.16895,3.71778 0,2.27636 -1.16895,3.72656 -1.16894,1.44141 -2.98828,1.44141 -1.02832,0 -1.81934,-0.4043 -0.79101,-0.41309 -1.4414,-1.27442 v 1.42383 h -3.14649 v -13.67578 h 3.14649 z" /><path
       id="path526"
       style="font-size:18px;line-height:1.25"
       d="m 554.65851,266.88071 q -0.41309,-0.19336 -0.82617,-0.28125 -0.4043,-0.0967 -0.81739,-0.0967 -1.21289,0 -1.87207,0.78222 -0.65039,0.77344 -0.65039,2.22364 v 4.53515 h -3.14648 v -9.84375 h 3.14648 v 1.61719 q 0.60645,-0.9668 1.38867,-1.40625 0.79102,-0.44824 1.88965,-0.44824 0.15821,0 0.34278,0.0176 0.18457,0.009 0.53613,0.0527 z" /><path
       id="path528"
       style="font-size:18px;line-height:1.25"
       d="m 556.22296,264.20004 h 3.14649 v 9.84375 h -3.14649 z m 0,-3.83203 h 3.14649 v 2.56641 h -3.14649 z" /><path
       id="path530"
       style="font-size:18px;line-height:1.25"
       d="m 567.07745,266.21274 q -1.04589,0 -1.59961,0.75586 -0.54492,0.74707 -0.54492,2.16211 0,1.41504 0.54492,2.1709 0.55372,0.74707 1.59961,0.74707 1.02832,0 1.57325,-0.74707 0.54492,-0.75586 0.54492,-2.1709 0,-1.41504 -0.54492,-2.16211 -0.54493,-0.75586 -1.57325,-0.75586 z m 0,-2.25 q 2.54004,0 3.96387,1.37109 1.43262,1.3711 1.43262,3.79688 0,2.42578 -1.43262,3.79687 -1.42383,1.3711 -3.96387,1.3711 -2.54882,0 -3.99023,-1.3711 -1.43262,-1.37109 -1.43262,-3.79687 0,-2.42578 1.43262,-3.79688 1.44141,-1.37109 3.99023,-1.37109 z m 1.37989,-4.31543 h 2.4873 l -3.24316,3.30469 h -1.72266 z" /><path
       id="path532"
       style="font-size:18px;line-height:1.25"
       d="m 584.65558,268.04965 v 5.99414 h -3.16406 v -0.97558 -3.61231 q 0,-1.27441 -0.0615,-1.75781 -0.0527,-0.4834 -0.19336,-0.71191 -0.18457,-0.30762 -0.50097,-0.47461 -0.31641,-0.17579 -0.72071,-0.17579 -0.98437,0 -1.54687,0.76465 -0.5625,0.75586 -0.5625,2.10059 v 4.84277 h -3.14649 v -9.84375 h 3.14649 v 1.44141 q 0.71191,-0.86133 1.51172,-1.26563 0.7998,-0.41308 1.7666,-0.41308 1.70508,0 2.58398,1.0459 0.8877,1.04589 0.8877,3.04101 z" /></g><g
     style="font-style:normal;font-weight:normal;line-height:0%;font-family:'Bitstream Vera Sans';text-align:center;text-anchor:middle;fill:#000000;fill-opacity:1;stroke:none;stroke-width:1px;stroke-linecap:butt;stroke-linejoin:miter;stroke-opacity:1"
     id="text396"
     aria-label="Cotiledón"><path
       id="path501"
       style="font-size:18px;line-height:1.25"
       d="m 518.74097,295.17444 v 1.87207 q -0.89649,-0.83496 -1.91602,-1.24805 -1.01074,-0.41308 -2.15332,-0.41308 -2.25,0 -3.44531,1.37988 -1.19531,1.37109 -1.19531,3.97266 0,2.59277 1.19531,3.97265 1.19531,1.3711 3.44531,1.3711 1.14258,0 2.15332,-0.41309 1.01953,-0.41309 1.91602,-1.24805 v 1.85449 q -0.93164,0.63282 -1.97754,0.94922 -1.03711,0.31641 -2.19727,0.31641 -2.97949,0 -4.69336,-1.81934 -1.71386,-1.82812 -1.71386,-4.98339 0,-3.16407 1.71386,-4.9834 1.71387,-1.82813 4.69336,-1.82813 1.17774,0 2.21485,0.31641 1.04589,0.30762 1.95996,0.93164 z" /><path
       id="path503"
       style="font-size:18px;line-height:1.25"
       d="m 525.22729,298.57581 q -1.30078,0 -2.05664,1.01953 -0.75586,1.01074 -0.75586,2.77734 0,1.7666 0.74708,2.78613 0.75585,1.01075 2.06542,1.01075 1.292,0 2.04786,-1.01954 0.75586,-1.01953 0.75586,-2.77734 0,-1.74902 -0.75586,-2.76855 -0.75586,-1.02832 -2.04786,-1.02832 z m 0,-1.3711 q 2.10938,0 3.31348,1.3711 1.2041,1.37109 1.2041,3.79687 0,2.41699 -1.2041,3.79688 -1.2041,1.37109 -3.31348,1.37109 -2.11816,0 -3.32226,-1.37109 -1.19531,-1.37989 -1.19531,-3.79688 0,-2.42578 1.19531,-3.79687 1.2041,-1.3711 3.32226,-1.3711 z" /><path
       id="path505"
       style="font-size:18px;line-height:1.25"
       d="m 534.02515,294.64709 v 2.79493 h 3.33105 v 1.25683 h -3.33105 v 5.34375 q 0,1.2041 0.32519,1.54688 0.33399,0.34277 1.34473,0.34277 h 1.66113 v 1.35352 h -1.66113 q -1.87207,0 -2.58399,-0.69434 -0.71191,-0.70312 -0.71191,-2.54883 v -5.34375 h -1.18652 v -1.25683 h 1.18652 v -2.79493 z" /><path
       id="path507"
       style="font-size:18px;line-height:1.25"
       d="m 539.48315,297.44202 h 1.61719 v 9.84375 h -1.61719 z m 0,-3.83203 h 1.61719 v 2.04785 h -1.61719 z" /><path
       id="path509"
       style="font-size:18px;line-height:1.25"
       d="m 544.48413,293.60999 h 1.61719 v 13.67578 h -1.61719 z" /><path
       id="path511"
       style="font-size:18px;line-height:1.25"
       d="m 557.90503,301.95959 v 0.79102 h -7.43555 q 0.10547,1.66992 1.00196,2.54883 0.90527,0.87012 2.51367,0.87012 0.93164,0 1.80176,-0.22852 0.8789,-0.22852 1.74023,-0.68555 v 1.5293 q -0.87012,0.36914 -1.78418,0.5625 -0.91406,0.19336 -1.85449,0.19336 -2.35547,0 -3.73535,-1.37109 -1.3711,-1.3711 -1.3711,-3.70899 0,-2.41699 1.30078,-3.83203 1.30957,-1.42383 3.52442,-1.42383 1.98633,0 3.13769,1.28321 1.16016,1.27441 1.16016,3.47167 z m -1.61719,-0.4746 q -0.0176,-1.32715 -0.74707,-2.11817 -0.7207,-0.79101 -1.91601,-0.79101 -1.35352,0 -2.1709,0.76464 -0.8086,0.76465 -0.93164,2.15332 z" /><path
       id="path513"
       style="font-size:18px;line-height:1.25"
       d="m 567.03687,298.93616 v -5.32617 h 1.61718 v 13.67578 h -1.61718 v -1.47657 q -0.50977,0.87891 -1.292,1.30957 -0.77343,0.42188 -1.86328,0.42188 -1.78418,0 -2.90918,-1.42383 -1.11621,-1.42383 -1.11621,-3.74414 0,-2.32031 1.11621,-3.74414 1.125,-1.42383 2.90918,-1.42383 1.08985,0 1.86328,0.43067 0.78223,0.42187 1.292,1.30078 z m -5.51075,3.43652 q 0,1.78418 0.7295,2.80371 0.73828,1.01074 2.02148,1.01074 1.2832,0 2.02148,-1.01074 0.73829,-1.01953 0.73829,-2.80371 0,-1.78418 -0.73829,-2.79492 -0.73828,-1.01953 -2.02148,-1.01953 -1.2832,0 -2.02148,1.01953 -0.7295,1.01074 -0.7295,2.79492 z" /><path
       id="path515"
       style="font-size:18px;line-height:1.25"
       d="m 575.79956,298.57581 q -1.30078,0 -2.05664,1.01953 -0.75586,1.01074 -0.75586,2.77734 0,1.7666 0.74707,2.78613 0.75586,1.01075 2.06543,1.01075 1.29199,0 2.04785,-1.01954 0.75586,-1.01953 0.75586,-2.77734 0,-1.74902 -0.75586,-2.76855 -0.75586,-1.02832 -2.04785,-1.02832 z m 0,-1.3711 q 2.10938,0 3.31348,1.3711 1.2041,1.37109 1.2041,3.79687 0,2.41699 -1.2041,3.79688 -1.2041,1.37109 -3.31348,1.37109 -2.11816,0 -3.32227,-1.37109 -1.19531,-1.37989 -1.19531,-3.79688 0,-2.42578 1.19531,-3.79687 1.20411,-1.3711 3.32227,-1.3711 z m 1.22168,-4.31543 h 1.74902 l -2.86523,3.30469 h -1.34473 z" /><path
       id="path517"
       style="font-size:18px;line-height:1.25"
       d="m 591.18042,301.34436 v 5.94141 h -1.61719 v -5.88868 q 0,-1.39746 -0.54492,-2.09179 -0.54492,-0.69434 -1.63477,-0.69434 -1.30957,0 -2.06542,0.83496 -0.75586,0.83496 -0.75586,2.27637 v 5.56348 h -1.62598 v -9.84375 h 1.62598 v 1.52929 q 0.58007,-0.88769 1.3623,-1.32714 0.79102,-0.43946 1.81934,-0.43946 1.69629,0 2.5664,1.05469 0.87012,1.0459 0.87012,3.08496 z" /></g><g
     style="font-style:normal;font-weight:normal;line-height:0%;font-family:'Bitstream Vera Sans';text-align:center;text-anchor:middle;fill:#000000;fill-opacity:1;stroke:none;stroke-width:1px;stroke-linecap:butt;stroke-linejoin:miter;stroke-opacity:1"
     id="text400"
     aria-label="Radícula"><path
       id="path484"
       style="font-size:18px;line-height:1.25"
       d="m 514.38159,331.94312 q 0.57129,0.19335 1.10742,0.82617 0.54493,0.63281 1.08985,1.74023 l 1.80176,3.58594 h -1.90723 l -1.67871,-3.36621 q -0.65039,-1.31836 -1.26563,-1.74903 -0.60644,-0.43066 -1.66113,-0.43066 h -1.93359 v 5.5459 h -1.77539 v -13.12207 h 4.00781 q 2.25,0 3.35742,0.94043 1.10742,0.94043 1.10742,2.83887 0,1.23925 -0.58008,2.05664 -0.57129,0.81738 -1.66992,1.13379 z m -4.44726,-5.51075 v 4.65821 h 2.23242 q 1.2832,0 1.93359,-0.58887 0.65918,-0.59766 0.65918,-1.74902 0,-1.15137 -0.65918,-1.73145 -0.65039,-0.58887 -1.93359,-0.58887 z" /><path
       id="path486"
       style="font-size:18px;line-height:1.25"
       d="m 524.67358,333.14722 q -1.95996,0 -2.71582,0.44824 -0.75586,0.44824 -0.75586,1.5293 0,0.86132 0.5625,1.37109 0.57129,0.50098 1.54688,0.50098 1.34473,0 2.15332,-0.94922 0.81738,-0.95801 0.81738,-2.54004 v -0.36035 z m 3.22559,-0.66797 v 5.61621 h -1.61719 v -1.49414 q -0.55371,0.89648 -1.37988,1.32715 -0.82617,0.42187 -2.02148,0.42187 -1.51172,0 -2.40821,-0.84375 -0.88769,-0.85254 -0.88769,-2.27637 0,-1.66113 1.10742,-2.50488 1.11621,-0.84375 3.32226,-0.84375 h 2.26758 v -0.1582 q 0,-1.11621 -0.73828,-1.72266 -0.72949,-0.61523 -2.05664,-0.61523 -0.84375,0 -1.64355,0.20215 -0.79981,0.20214 -1.53809,0.60644 v -1.49414 q 0.8877,-0.34277 1.72266,-0.50976 0.83496,-0.17579 1.62597,-0.17579 2.13574,0 3.19043,1.10743 1.05469,1.10742 1.05469,3.35742 z" /><path
       id="path488"
       style="font-size:18px;line-height:1.25"
       d="m 537.70776,329.74585 v -5.32617 h 1.61719 v 13.67578 h -1.61719 v -1.47656 q -0.50976,0.8789 -1.29199,1.30957 -0.77344,0.42187 -1.86328,0.42187 -1.78418,0 -2.90918,-1.42383 -1.11621,-1.42382 -1.11621,-3.74414 0,-2.32031 1.11621,-3.74414 1.125,-1.42383 2.90918,-1.42383 1.08984,0 1.86328,0.43067 0.78223,0.42187 1.29199,1.30078 z m -5.51074,3.43652 q 0,1.78418 0.72949,2.80371 0.73828,1.01075 2.02149,1.01075 1.2832,0 2.02148,-1.01075 0.73828,-1.01953 0.73828,-2.80371 0,-1.78418 -0.73828,-2.79492 -0.73828,-1.01953 -2.02148,-1.01953 -1.28321,0 -2.02149,1.01953 -0.72949,1.01074 -0.72949,2.79492 z" /><path
       id="path490"
       style="font-size:18px;line-height:1.25"
       d="m 542.65601,328.25171 h 1.61718 v 9.84375 h -1.61718 z m 2.03027,-4.55274 h 1.74902 l -2.86523,3.30469 h -1.34473 z" /><path
       id="path492"
       style="font-size:18px;line-height:1.25"
       d="m 554.74097,328.62964 v 1.51172 q -0.68555,-0.37793 -1.37989,-0.5625 -0.68554,-0.19336 -1.38867,-0.19336 -1.57324,0 -2.44336,1.00195 -0.87011,0.99317 -0.87011,2.79492 0,1.80176 0.87011,2.80371 0.87012,0.99317 2.44336,0.99317 0.70313,0 1.38867,-0.18457 0.69434,-0.19336 1.37989,-0.57129 v 1.49414 q -0.67676,0.31641 -1.40625,0.47461 -0.72071,0.1582 -1.53809,0.1582 -2.22363,0 -3.5332,-1.39746 -1.30957,-1.39746 -1.30957,-3.77051 0,-2.4082 1.31836,-3.78808 1.32715,-1.37989 3.62988,-1.37989 0.74707,0 1.45898,0.15821 0.71192,0.14941 1.37989,0.45703 z" /><path
       id="path494"
       style="font-size:18px;line-height:1.25"
       d="m 557.38647,334.21069 v -5.95898 h 1.61719 v 5.89746 q 0,1.39746 0.54492,2.10059 0.54493,0.69433 1.63477,0.69433 1.30957,0 2.06543,-0.83496 0.76465,-0.83496 0.76465,-2.27637 v -5.58105 h 1.61719 v 9.84375 h -1.61719 v -1.51172 q -0.58887,0.89648 -1.3711,1.33594 -0.77343,0.43066 -1.80175,0.43066 -1.69629,0 -2.5752,-1.05469 -0.87891,-1.05468 -0.87891,-3.08496 z" /><path
       id="path496"
       style="font-size:18px;line-height:1.25"
       d="m 568.96167,324.41968 h 1.61719 v 13.67578 h -1.61719 z" /><path
       id="path498"
       style="font-size:18px;line-height:1.25"
       d="m 578.43628,333.14722 q -1.95996,0 -2.71582,0.44824 -0.75586,0.44824 -0.75586,1.5293 0,0.86132 0.5625,1.37109 0.57129,0.50098 1.54687,0.50098 1.34473,0 2.15332,-0.94922 0.81739,-0.95801 0.81739,-2.54004 v -0.36035 z m 3.22559,-0.66797 v 5.61621 h -1.61719 v -1.49414 q -0.55371,0.89648 -1.37989,1.32715 -0.82617,0.42187 -2.02148,0.42187 -1.51172,0 -2.4082,-0.84375 -0.8877,-0.85254 -0.8877,-2.27637 0,-1.66113 1.10742,-2.50488 1.11621,-0.84375 3.32227,-0.84375 h 2.26758 v -0.1582 q 0,-1.11621 -0.73828,-1.72266 -0.7295,-0.61523 -2.05664,-0.61523 -0.84375,0 -1.64356,0.20215 -0.7998,0.20214 -1.53808,0.60644 v -1.49414 q 0.88769,-0.34277 1.72265,-0.50976 0.83496,-0.17579 1.62598,-0.17579 2.13574,0 3.19043,1.10743 1.05469,1.10742 1.05469,3.35742 z" /></g><g
     style="font-style:normal;font-weight:normal;line-height:0%;font-family:'Bitstream Vera Sans';text-align:center;text-anchor:middle;fill:#000000;fill-opacity:1;stroke:none;stroke-width:1px;stroke-linecap:butt;stroke-linejoin:miter;stroke-opacity:1"
     id="text404"
     aria-label="Hipocótilo"><path
       id="path463"
       style="font-size:18px;line-height:1.25"
       d="m 508.15894,351.72913 h 1.77539 v 5.3789 h 6.45117 v -5.3789 h 1.77539 v 13.12207 h -1.77539 v -6.24903 h -6.45117 v 6.24903 h -1.77539 z" /><path
       id="path465"
       style="font-size:18px;line-height:1.25"
       d="m 521.62378,355.00745 h 1.61719 v 9.84375 h -1.61719 z m 0,-3.83203 h 1.61719 v 2.04785 h -1.61719 z" /><path
       id="path467"
       style="font-size:18px;line-height:1.25"
       d="m 528.18921,363.37463 v 5.22071 h -1.62598 v -13.58789 h 1.62598 v 1.49414 q 0.50976,-0.87891 1.2832,-1.30078 0.78223,-0.43067 1.86328,-0.43067 1.79297,0 2.90918,1.42383 1.125,1.42383 1.125,3.74414 0,2.32031 -1.125,3.74414 -1.11621,1.42383 -2.90918,1.42383 -1.08105,0 -1.86328,-0.42188 -0.77344,-0.43066 -1.2832,-1.30957 z m 5.50195,-3.43652 q 0,-1.78418 -0.73828,-2.79492 -0.72949,-1.01953 -2.01269,-1.01953 -1.28321,0 -2.02149,1.01953 -0.72949,1.01074 -0.72949,2.79492 0,1.78418 0.72949,2.80371 0.73828,1.01074 2.02149,1.01074 1.2832,0 2.01269,-1.01074 0.73828,-1.01953 0.73828,-2.80371 z" /><path
       id="path469"
       style="font-size:18px;line-height:1.25"
       d="m 541.86499,356.14124 q -1.30078,0 -2.05664,1.01953 -0.75586,1.01074 -0.75586,2.77734 0,1.7666 0.74707,2.78613 0.75586,1.01075 2.06543,1.01075 1.29199,0 2.04785,-1.01954 0.75586,-1.01953 0.75586,-2.77734 0,-1.74902 -0.75586,-2.76855 -0.75586,-1.02832 -2.04785,-1.02832 z m 0,-1.3711 q 2.10938,0 3.31348,1.3711 1.2041,1.37109 1.2041,3.79687 0,2.41699 -1.2041,3.79688 -1.2041,1.37109 -3.31348,1.37109 -2.11816,0 -3.32227,-1.37109 -1.19531,-1.37989 -1.19531,-3.79688 0,-2.42578 1.19531,-3.79687 1.20411,-1.3711 3.32227,-1.3711 z" /><path
       id="path471"
       style="font-size:18px;line-height:1.25"
       d="m 556.14722,355.38538 v 1.51171 q -0.68555,-0.37792 -1.37989,-0.5625 -0.68554,-0.19335 -1.38867,-0.19335 -1.57324,0 -2.44336,1.00195 -0.87011,0.99316 -0.87011,2.79492 0,1.80176 0.87011,2.80371 0.87012,0.99317 2.44336,0.99317 0.70313,0 1.38867,-0.18457 0.69434,-0.19336 1.37989,-0.57129 v 1.49414 q -0.67676,0.3164 -1.40625,0.47461 -0.72071,0.1582 -1.53809,0.1582 -2.22363,0 -3.5332,-1.39746 -1.30957,-1.39746 -1.30957,-3.77051 0,-2.4082 1.31836,-3.78809 1.32715,-1.37988 3.62988,-1.37988 0.74707,0 1.45898,0.1582 0.71192,0.14942 1.37989,0.45704 z" /><path
       id="path473"
       style="font-size:18px;line-height:1.25"
       d="m 562.77417,356.14124 q -1.30078,0 -2.05664,1.01953 -0.75586,1.01074 -0.75586,2.77734 0,1.7666 0.74707,2.78613 0.75586,1.01075 2.06543,1.01075 1.29199,0 2.04785,-1.01954 0.75586,-1.01953 0.75586,-2.77734 0,-1.74902 -0.75586,-2.76855 -0.75586,-1.02832 -2.04785,-1.02832 z m 0,-1.3711 q 2.10937,0 3.31348,1.3711 1.2041,1.37109 1.2041,3.79687 0,2.41699 -1.2041,3.79688 -1.20411,1.37109 -3.31348,1.37109 -2.11816,0 -3.32227,-1.37109 -1.19531,-1.37989 -1.19531,-3.79688 0,-2.42578 1.19531,-3.79687 1.20411,-1.3711 3.32227,-1.3711 z m 1.22168,-4.31543 h 1.74902 l -2.86523,3.30469 h -1.34473 z" /><path
       id="path475"
       style="font-size:18px;line-height:1.25"
       d="m 571.57202,352.21252 v 2.79493 h 3.33106 v 1.25683 h -3.33106 v 5.34375 q 0,1.2041 0.3252,1.54688 0.33398,0.34277 1.34472,0.34277 h 1.66114 v 1.35352 h -1.66114 q -1.87207,0 -2.58398,-0.69434 -0.71192,-0.70312 -0.71192,-2.54883 v -5.34375 h -1.18652 v -1.25683 h 1.18652 v -2.79493 z" /><path
       id="path477"
       style="font-size:18px;line-height:1.25"
       d="m 577.03003,355.00745 h 1.61719 v 9.84375 h -1.61719 z m 0,-3.83203 h 1.61719 v 2.04785 h -1.61719 z" /><path
       id="path479"
       style="font-size:18px;line-height:1.25"
       d="m 582.03101,351.17542 h 1.61718 v 13.67578 h -1.61718 z" /><path
       id="path481"
       style="font-size:18px;line-height:1.25"
       d="m 590.84644,356.14124 q -1.30079,0 -2.05665,1.01953 -0.75585,1.01074 -0.75585,2.77734 0,1.7666 0.74707,2.78613 0.75586,1.01075 2.06543,1.01075 1.29199,0 2.04785,-1.01954 0.75586,-1.01953 0.75586,-2.77734 0,-1.74902 -0.75586,-2.76855 -0.75586,-1.02832 -2.04785,-1.02832 z m 0,-1.3711 q 2.10937,0 3.31347,1.3711 1.2041,1.37109 1.2041,3.79687 0,2.41699 -1.2041,3.79688 -1.2041,1.37109 -3.31347,1.37109 -2.11817,0 -3.32227,-1.37109 -1.19531,-1.37989 -1.19531,-3.79688 0,-2.42578 1.19531,-3.79687 1.2041,-1.3711 3.32227,-1.3711 z" /></g><g
     style="font-style:normal;font-weight:normal;line-height:0%;font-family:'Bitstream Vera Sans';text-align:center;text-anchor:middle;fill:#000000;fill-opacity:1;stroke:none;stroke-width:1px;stroke-linecap:butt;stroke-linejoin:miter;stroke-opacity:1"
     id="text408"
     aria-label="Hilo"><path
       id="path454"
       style="font-size:18px;line-height:1.25"
       d="m 405.28683,379.29572 h 1.7754 v 5.3789 h 6.45117 v -5.3789 h 1.77539 v 13.12207 h -1.77539 v -6.24903 h -6.45117 v 6.24903 h -1.7754 z" /><path
       id="path456"
       style="font-size:18px;line-height:1.25"
       d="m 418.75168,382.57404 h 1.61719 v 9.84375 h -1.61719 z m 0,-3.83204 h 1.61719 v 2.04786 h -1.61719 z" /><path
       id="path458"
       style="font-size:18px;line-height:1.25"
       d="m 423.75266,378.742 h 1.61718 v 13.67579 h -1.61718 z" /><path
       id="path460"
       style="font-size:18px;line-height:1.25"
       d="m 432.56808,383.70782 q -1.30078,0 -2.05664,1.01954 -0.75586,1.01074 -0.75586,2.77734 0,1.7666 0.74708,2.78613 0.75585,1.01074 2.06542,1.01074 1.292,0 2.04786,-1.01953 0.75586,-1.01953 0.75586,-2.77734 0,-1.74902 -0.75586,-2.76855 -0.75586,-1.02833 -2.04786,-1.02833 z m 0,-1.37109 q 2.10938,0 3.31348,1.37109 1.2041,1.3711 1.2041,3.79688 0,2.41699 -1.2041,3.79687 -1.2041,1.3711 -3.31348,1.3711 -2.11816,0 -3.32226,-1.3711 -1.19531,-1.37988 -1.19531,-3.79687 0,-2.42578 1.19531,-3.79688 1.2041,-1.37109 3.32226,-1.37109 z" /></g><g
     style="font-style:normal;font-weight:normal;line-height:0%;font-family:'Bitstream Vera Sans';text-align:center;text-anchor:middle;fill:#000000;fill-opacity:1;stroke:none;stroke-width:1px;stroke-linecap:butt;stroke-linejoin:miter;stroke-opacity:1"
     id="text412"
     aria-label="Micrópilo"><path
       id="path435"
       style="font-size:18px;line-height:1.25"
       d="m 374.82181,399.56519 h 2.64551 l 3.34863,8.92968 3.36621,-8.92968 h 2.64551 v 13.12207 h -1.73145 v -11.52247 l -3.38379,9 h -1.78418 l -3.38379,-9 v 11.52247 h -1.72265 z" /><path
       id="path437"
       style="font-size:18px;line-height:1.25"
       d="m 390.28177,402.84351 h 1.61719 v 9.84375 h -1.61719 z m 0,-3.83204 h 1.61719 v 2.04786 h -1.61719 z" /><path
       id="path439"
       style="font-size:18px;line-height:1.25"
       d="m 402.36673,403.22144 v 1.51171 q -0.68555,-0.37793 -1.37988,-0.5625 -0.68555,-0.19336 -1.38867,-0.19336 -1.57325,0 -2.44336,1.00196 -0.87012,0.99316 -0.87012,2.79492 0,1.80176 0.87012,2.80371 0.87011,0.99316 2.44336,0.99316 0.70312,0 1.38867,-0.18457 0.69433,-0.19335 1.37988,-0.57128 v 1.49414 q -0.67676,0.3164 -1.40625,0.47461 -0.7207,0.1582 -1.53809,0.1582 -2.22363,0 -3.5332,-1.39746 -1.30957,-1.39746 -1.30957,-3.77051 0,-2.4082 1.31836,-3.78809 1.32715,-1.37988 3.62988,-1.37988 0.74707,0 1.45899,0.1582 0.71191,0.14942 1.37988,0.45704 z" /><path
       id="path441"
       style="font-size:18px;line-height:1.25"
       d="m 410.88333,404.35522 q -0.27246,-0.1582 -0.59765,-0.22851 -0.31641,-0.0791 -0.70313,-0.0791 -1.37109,0 -2.10937,0.89648 -0.7295,0.8877 -0.7295,2.55762 v 5.18555 h -1.62597 v -9.84375 h 1.62597 v 1.52929 q 0.50977,-0.89648 1.32715,-1.32715 0.81738,-0.43945 1.98633,-0.43945 0.16699,0 0.36914,0.0264 0.20215,0.0176 0.44824,0.0615 z" /><path
       id="path443"
       style="font-size:18px;line-height:1.25"
       d="m 415.99857,403.97729 q -1.30079,0 -2.05664,1.01954 -0.75586,1.01074 -0.75586,2.77734 0,1.7666 0.74707,2.78613 0.75586,1.01074 2.06543,1.01074 1.29199,0 2.04785,-1.01953 0.75586,-1.01953 0.75586,-2.77734 0,-1.74902 -0.75586,-2.76855 -0.75586,-1.02833 -2.04785,-1.02833 z m 0,-1.37109 q 2.10937,0 3.31347,1.37109 1.2041,1.3711 1.2041,3.79688 0,2.41699 -1.2041,3.79687 -1.2041,1.3711 -3.31347,1.3711 -2.11817,0 -3.32227,-1.3711 -1.19531,-1.37988 -1.19531,-3.79687 0,-2.42578 1.19531,-3.79688 1.2041,-1.37109 3.32227,-1.37109 z m 1.22168,-4.31543 h 1.74902 l -2.86524,3.30469 h -1.34472 z" /><path
       id="path445"
       style="font-size:18px;line-height:1.25"
       d="m 424.76126,411.21069 v 5.22071 h -1.62598 v -13.58789 h 1.62598 v 1.49414 q 0.50977,-0.87891 1.2832,-1.30078 0.78223,-0.43067 1.86329,-0.43067 1.79296,0 2.90918,1.42383 1.125,1.42383 1.125,3.74414 0,2.32031 -1.125,3.74414 -1.11622,1.42383 -2.90918,1.42383 -1.08106,0 -1.86329,-0.42188 -0.77343,-0.43066 -1.2832,-1.30957 z m 5.50195,-3.43652 q 0,-1.78418 -0.73828,-2.79492 -0.72949,-1.01953 -2.01269,-1.01953 -1.28321,0 -2.02149,1.01953 -0.72949,1.01074 -0.72949,2.79492 0,1.78418 0.72949,2.80371 0.73828,1.01074 2.02149,1.01074 1.2832,0 2.01269,-1.01074 0.73828,-1.01953 0.73828,-2.80371 z" /><path
       id="path447"
       style="font-size:18px;line-height:1.25"
       d="m 434.62259,402.84351 h 1.61719 v 9.84375 h -1.61719 z m 0,-3.83204 h 1.61719 v 2.04786 h -1.61719 z" /><path
       id="path449"
       style="font-size:18px;line-height:1.25"
       d="m 439.62357,399.01147 h 1.61718 v 13.67579 h -1.61718 z" /><path
       id="path451"
       style="font-size:18px;line-height:1.25"
       d="m 448.439,403.97729 q -1.30079,0 -2.05665,1.01954 -0.75585,1.01074 -0.75585,2.77734 0,1.7666 0.74707,2.78613 0.75586,1.01074 2.06543,1.01074 1.29199,0 2.04785,-1.01953 0.75586,-1.01953 0.75586,-2.77734 0,-1.74902 -0.75586,-2.76855 -0.75586,-1.02833 -2.04785,-1.02833 z m 0,-1.37109 q 2.10937,0 3.31347,1.37109 1.2041,1.3711 1.2041,3.79688 0,2.41699 -1.2041,3.79687 -1.2041,1.3711 -3.31347,1.3711 -2.11817,0 -3.32227,-1.3711 -1.19531,-1.37988 -1.19531,-3.79687 0,-2.42578 1.19531,-3.79688 1.2041,-1.37109 3.32227,-1.37109 z" /></g><g
     style="font-style:normal;font-weight:normal;line-height:0%;font-family:'Bitstream Vera Sans';text-align:center;text-anchor:middle;fill:#000000;fill-opacity:1;stroke:none;stroke-width:1px;stroke-linecap:butt;stroke-linejoin:miter;stroke-opacity:1"
     id="text416"
     aria-label="Albumen"><path
       id="path420"
       style="font-size:18px;line-height:1.25"
       d="m 364.16306,426.44843 -2.40821,6.53027 h 4.8252 z m -1.00196,-1.74903 h 2.0127 l 5.00097,13.12207 h -1.8457 l -1.19531,-3.36621 h -5.91504 l -1.19531,3.36621 h -1.87207 z" /><path
       id="path422"
       style="font-size:18px;line-height:1.25"
       d="m 372.02048,424.14569 h 1.61718 v 13.67578 h -1.61718 z" /><path
       id="path424"
       style="font-size:18px;line-height:1.25"
       d="m 384.08786,432.90839 q 0,-1.78418 -0.73828,-2.79493 -0.72949,-1.01953 -2.0127,-1.01953 -1.2832,0 -2.02148,1.01953 -0.72949,1.01075 -0.72949,2.79493 0,1.78418 0.72949,2.80371 0.73828,1.01074 2.02148,1.01074 1.28321,0 2.0127,-1.01074 0.73828,-1.01953 0.73828,-2.80371 z m -5.50195,-3.43653 q 0.50976,-0.8789 1.2832,-1.30078 0.78223,-0.43066 1.86328,-0.43066 1.79297,0 2.90918,1.42383 1.125,1.42382 1.125,3.74414 0,2.32031 -1.125,3.74414 -1.11621,1.42382 -2.90918,1.42382 -1.08105,0 -1.86328,-0.42187 -0.77344,-0.43066 -1.2832,-1.30957 v 1.47656 h -1.62598 v -13.67578 h 1.62598 z" /><path
       id="path426"
       style="font-size:18px;line-height:1.25"
       d="m 388.28024,433.93671 v -5.95899 h 1.61719 v 5.89746 q 0,1.39746 0.54492,2.10059 0.54492,0.69433 1.63477,0.69433 1.30957,0 2.06543,-0.83496 0.76465,-0.83496 0.76465,-2.27636 v -5.58106 h 1.61718 v 9.84375 h -1.61718 v -1.51172 q -0.58887,0.89649 -1.3711,1.33594 -0.77344,0.43066 -1.80176,0.43066 -1.69628,0 -2.57519,-1.05468 -0.87891,-1.05469 -0.87891,-3.08496 z" /><path
       id="path428"
       style="font-size:18px;line-height:1.25"
       d="m 407.5195,429.86737 q 0.60645,-1.08984 1.4502,-1.6084 0.84375,-0.51855 1.98632,-0.51855 1.53809,0 2.37305,1.08105 0.83496,1.07227 0.83496,3.0586 v 5.9414 h -1.62597 v -5.88867 q 0,-1.41504 -0.50098,-2.10059 -0.50098,-0.68554 -1.5293,-0.68554 -1.25683,0 -1.98633,0.83496 -0.72949,0.83496 -0.72949,2.27637 v 5.56347 h -1.62597 v -5.88867 q 0,-1.42383 -0.50098,-2.10059 -0.50098,-0.68554 -1.54688,-0.68554 -1.23925,0 -1.96875,0.84375 -0.72949,0.83496 -0.72949,2.26758 v 5.56347 h -1.62598 v -9.84375 h 1.62598 v 1.5293 q 0.55371,-0.90527 1.32715,-1.33594 0.77344,-0.43066 1.83691,-0.43066 1.07227,0 1.81934,0.54492 0.75586,0.54492 1.11621,1.58203 z" /><path
       id="path430"
       style="font-size:18px;line-height:1.25"
       d="m 425.80954,432.4953 v 0.79102 h -7.43555 q 0.10547,1.66992 1.00196,2.54882 0.90527,0.87012 2.51367,0.87012 0.93164,0 1.80176,-0.22851 0.8789,-0.22852 1.74023,-0.68555 v 1.5293 q -0.87012,0.36914 -1.78418,0.5625 -0.91406,0.19335 -1.85449,0.19335 -2.35547,0 -3.73535,-1.37109 -1.3711,-1.37109 -1.3711,-3.70898 0,-2.417 1.30078,-3.83203 1.30957,-1.42383 3.52442,-1.42383 1.98633,0 3.13769,1.2832 1.16016,1.27441 1.16016,3.47168 z m -1.61719,-0.47461 q -0.0176,-1.32715 -0.74707,-2.11816 -0.7207,-0.79102 -1.91601,-0.79102 -1.35352,0 -2.1709,0.76465 -0.8086,0.76465 -0.93164,2.15332 z" /><path
       id="path432"
       style="font-size:18px;line-height:1.25"
       d="m 436.64645,431.88007 v 5.9414 h -1.61718 v -5.88867 q 0,-1.39746 -0.54493,-2.0918 -0.54492,-0.69433 -1.63476,-0.69433 -1.30957,0 -2.06543,0.83496 -0.75586,0.83496 -0.75586,2.27637 v 5.56347 h -1.62598 v -9.84375 h 1.62598 v 1.5293 q 0.58008,-0.8877 1.3623,-1.32715 0.79102,-0.43945 1.81934,-0.43945 1.69629,0 2.56641,1.05468 0.87011,1.0459 0.87011,3.08497 z" /></g></g></svg>
