<?xml version="1.0" encoding="UTF-8" standalone="no"?>
<!-- Created with Inkscape (http://www.inkscape.org/) -->
<svg
   xmlns:svg="http://www.w3.org/2000/svg"
   xmlns="http://www.w3.org/2000/svg"
   version="1.0"
   width="607.46973"
   height="237.42073"
   viewBox="0.00024 0 617.96875 244.48828"
   id="Layer_1"
   xml:space="preserve"
   style="overflow:visible"><defs
   id="defs252">
	
	

	

	
	

	

	
	

	

	

	
	
	
	
	
	
	

	
	
	
	
	
	
	
	
	

	
	

	

	
	

	

	
	
	
	
	
	
	

	
	
	
	
	
	
	
	
	
	
	
</defs>

<rect
   width="607.46973"
   height="190.49072"
   x="0.00023999999"
   y="22.51026"
   id="rect5"
   style="fill:#e5e5e5" />
<path
   d="M 319.45337,46.845698 L 262.00415,46.845698 C 256.07251,46.845698 252.04028,49.863278 249.45337,53.505858 C 248.53931,54.792968 231.87232,45.478518 222.20532,46.814448 L 219.27563,51.169918 C 219.00805,52.093748 236.52465,49.234368 245.70336,59.814448 L 245.66039,63.023428 L 245.81762,66.484368 L 251.00707,180.65039 C 251.11547,183.02734 252.11156,185.06836 253.88891,186.55273 C 255.75903,188.11328 258.25805,188.83886 260.57934,189.14843 C 261.89282,189.32323 251.75024,200.76366 252.80493,200.74804 C 254.04516,200.72949 256.71313,201.72949 257.15552,201.67577 C 257.20923,201.67577 262.53931,192.81542 271.20532,189.17968 C 285.9436,189.17968 333.00415,189.17968 333.00415,189.17968 C 335.44165,189.17968 337.49829,188.62206 339.22095,187.71191 C 340.21509,187.18652 341.0979,186.54394 341.87915,185.82324 C 356.20532,189.81543 349.01001,185.69824 349.61548,184.81543 C 350.3772,183.70313 350.17017,185.85059 345.83423,179.9043 C 346.46704,178.31836 346.83228,176.78418 346.98267,175.54102 L 347.01587,175.26758 L 346.99829,174.99219 C 346.94751,174.17969 342.66821,105.59766 341.37134,77.242188 C 341.14087,72.177738 341.25415,68.380858 341.00415,66.513668 C 339.02173,51.734368 326.91626,46.195308 349.07642,48.421868 C 348.38111,47.099598 350.0022,44.808588 349.17408,43.812488 C 348.29517,42.753898 344.52174,42.568348 333.5647,49.849598 C 331.28345,47.953118 329.3147,47.138658 329.11939,47.060538 L 328.58228,46.845698 L 319.45337,46.845698 L 319.45337,46.845698 z M 262.00415,52.845698 C 262.00415,52.845698 326.02368,52.845698 327.33423,52.845698 C 329.07056,53.742178 335.00415,57.462888 335.00415,66.513668 C 335.00415,78.919918 340.57056,168.33203 340.99048,175.03711 C 340.77759,176.42578 339.42017,183.17969 333.00415,183.17969 L 266.47485,183.17969 L 266.27368,183.20703 C 264.2893,183.4668 259.59106,183.50195 257.73071,181.94336 C 257.25024,181.54102 257.03344,181.07227 257.00122,180.37695 C 257.00122,180.37695 251.71313,64.037108 251.68286,63.376948 C 251.99536,61.730468 254.052,52.845698 262.00415,52.845698 z"
   id="path7"
   style="fill:#072c3d" />
<path
   d="M 263.50122,55.833988 C 273.70142,55.830078 283.8606,56.546878 294.02856,56.681648 C 301.16821,56.776378 309.05981,53.811528 316.15454,55.632818 C 331.55884,59.587898 333.50024,80.585948 334.18384,93.671878 C 335.57251,120.22852 337.19458,146.77442 338.83423,173.31739 C 338.63306,174.65235 337.34009,181.14552 331.219,181.14552 L 267.76392,181.14552 L 267.57251,181.17189 C 265.67993,181.42091 261.19751,181.45607 259.42407,179.95705 C 258.96606,179.57033 258.75805,179.11916 258.7268,178.45119 C 258.24047,167.66115 261.67797,157.81642 262.50414,147.17873 C 263.21898,137.95705 261.9768,128.91506 260.53051,120.15627 C 258.83813,109.90723 242.62134,55.841798 263.50122,55.833988 z"
   id="path9"
   style="fill:#e4f792;stroke:#006b33;stroke-width:0.95762002" />
<path
   d="M 276.73071,148.27149 C 284.57055,142.70704 272.45141,135.08985 269.40454,142.28614 C 267.41626,146.98047 272.60767,151.19922 276.73071,148.27149 z"
   id="path11"
   style="fill:#ccff00;stroke:#072c3d;stroke-width:0.95762002" />
<path
   d="M 279.1897,114.45606 C 280.34595,116.17286 281.45142,117.89942 282.2522,119.66797 C 287.71314,131.71387 297.69947,161.06445 315.29517,157.35938 C 326.70923,154.95606 328.10962,141.63965 328.28736,132.13379 C 328.53736,118.89844 326.97291,105.26074 321.70142,93.013668 C 314.75806,76.880858 292.23658,65.568358 280.219,83.338868 C 276.02564,89.541018 271.55103,98.010748 274.07056,105.56153 C 275.08813,108.61231 277.21313,111.52149 279.1897,114.45606 z"
   id="path13"
   style="fill:#00a0c6;stroke:#072c3d;stroke-width:0.95762002" />
<ellipse
   cx="277.31958"
   cy="70.360352"
   rx="2.25"
   ry="2"
   transform="translate(-6.06543,-1.4882819)"
   id="ellipse15"
   style="fill:#ffffff;stroke:#000000" />
<ellipse
   cx="327.31958"
   cy="74.610352"
   rx="1.75"
   ry="2.25"
   transform="translate(-6.06543,-1.4882819)"
   id="ellipse17"
   style="fill:#ffffff;stroke:#000000" />
<circle
   cx="302.81958"
   cy="172.11035"
   r="2.25"
   transform="translate(-6.06543,-1.4882819)"
   id="circle19"
   style="fill:#ffffff;stroke:#000000" />
<ellipse
   cx="329.06958"
   cy="169.98535"
   rx="2"
   ry="2.125"
   transform="translate(-6.06543,-1.4882819)"
   id="ellipse21"
   style="fill:#ffffff;stroke:#000000" />
<path
   d="M 306.17017,141.5127 C 306.17017,141.5127 278.26197,167.26856 241.50415,158.84668 L 240.83618,166.17871 L 222.17016,152.17969 L 243.52172,145.5127 L 242.3391,152.31836 C 242.3391,152.31836 279.50414,154.84668 294.69555,130.03809 L 306.17017,141.5127 z"
   id="path23"
   style="fill:#00ff00;stroke:#000000" />
<path
   d="M 200.58911,114.24024 L 200.58911,119.75196 L 205.9104,119.75196 L 205.9104,114.24024 L 209.13306,114.24024 L 209.13306,128.52833 L 205.9104,128.52833 L 205.9104,122.5713 L 200.58911,122.5713 L 200.58911,128.52833 L 197.36743,128.52833 L 197.36743,114.24024 L 200.58911,114.24024 L 200.58911,114.24024 z"
   id="path27" /><path
   d="M 222.2981,128.76172 C 218.07935,128.76172 215.5774,125.56055 215.5774,121.49024 C 215.5774,117.20801 218.33326,114.00684 222.53053,114.00684 C 226.9192,114.00684 229.31471,117.29297 229.31471,121.23633 C 229.31471,125.94238 226.49537,128.76172 222.31862,128.76172 L 222.2981,128.76172 z M 222.44653,126.19629 C 224.63012,126.19629 225.88012,124.14063 225.88012,121.3418 C 225.88012,118.77637 224.67211,116.57227 222.44653,116.57227 C 220.21997,116.57227 218.96899,118.73438 218.96899,121.40528 C 218.96899,124.09766 220.26294,126.1963 222.42504,126.1963 L 222.44653,126.1963 L 222.44653,126.19629 z"
   id="path29" />
<path
   d="M 209.50806,132.93652 L 209.50806,131.85058 L 210.48755,130.96581 C 212.17505,129.45507 212.9895,128.59276 213.0022,127.69628 C 213.0022,127.0703 212.63599,126.57519 211.75025,126.57519 C 211.09009,126.57519 210.51099,126.90527 210.10962,127.20019 L 209.60278,125.92578 C 210.16919,125.48926 211.07739,125.13476 212.10473,125.13476 C 213.8518,125.13476 214.79614,126.15039 214.79614,127.54296 C 214.79614,128.82909 213.87524,129.85644 212.75415,130.84765 L 212.04614,131.43749 L 212.04614,131.46093 L 214.94946,131.46093 L 214.94946,132.93652 L 209.50806,132.93652 z"
   id="path33" />
<path
   d="M 295.21411,108.08887 L 295.21411,113.12598 L 300.07641,113.12598 L 300.07641,108.08887 L 303.02172,108.08887 L 303.02172,121.14649 L 300.07641,121.14649 L 300.07641,115.70215 L 295.21411,115.70215 L 295.21411,121.14649 L 292.26977,121.14649 L 292.26977,108.08887 L 295.21411,108.08887 z"
   id="path37" /><path
   d="M 315.05298,121.35938 C 311.19751,121.35938 308.91138,118.43458 308.91138,114.71485 C 308.91138,110.80176 311.42993,107.87598 315.26587,107.87598 C 319.27564,107.87598 321.46509,110.87891 321.46509,114.48243 C 321.46509,118.78321 318.88892,121.35938 315.07251,121.35938 L 315.05298,121.35938 L 315.05298,121.35938 z M 315.18774,119.01563 C 317.18383,119.01563 318.32641,117.13575 318.32641,114.57911 C 318.32641,112.23536 317.22289,110.21973 315.18774,110.21973 C 313.15454,110.21973 312.01098,112.19629 312.01098,114.63672 C 312.01098,117.09766 313.19262,119.01563 315.16821,119.01563 L 315.18774,119.01563 z"
   id="path39" />
<path
   d="M 303.3645,124.55469 L 303.3645,123.5625 L 304.26001,122.75293 C 305.802,121.37207 306.54712,120.58496 306.55689,119.76563 C 306.55689,119.19336 306.22291,118.74024 305.41431,118.74024 C 304.80982,118.74024 304.2815,119.04297 303.91431,119.31251 L 303.45142,118.14747 C 303.969,117.74806 304.79908,117.42481 305.73755,117.42481 C 307.33423,117.42481 308.19653,118.35254 308.19653,119.62501 C 308.19653,120.80079 307.35571,121.73927 306.33032,122.64552 L 305.68384,123.18458 L 305.68384,123.20606 L 308.33618,123.20606 L 308.33618,124.55469 L 303.3645,124.55469 z"
   id="path43" />
<path
   d="M 212.96216,87.602538 C 212.96216,87.602538 245.14966,67.449218 279.71802,82.519528 L 281.72974,75.437498 L 297.48657,92.645508 L 275.27075,95.250978 L 277.6897,88.781248 C 277.6897,88.781248 241.63306,79.427728 222.11743,101 L 212.96216,87.602538 z"
   id="path45"
   style="fill:#ffff00;stroke:#000000" />
<path
   d="M 119.25806,47.586918 L 61.80884,47.586918 C 55.87818,47.586918 51.84595,50.604498 49.25806,54.247078 C 48.34497,55.533208 31.67798,46.218758 22.01099,47.555668 L 19.08033,51.910158 C 18.81275,52.833988 36.33033,49.975588 45.50904,60.555668 L 45.46509,63.764648 L 45.62329,67.225588 L 50.81274,181.39161 C 50.92016,183.76856 51.91723,185.80958 53.69458,187.29395 C 55.5647,188.8545 58.06274,189.57911 60.38501,189.88965 C 61.69751,190.06348 51.55591,201.50488 52.60962,201.48926 C 53.85083,201.46973 56.51782,202.46973 56.96118,202.41699 C 57.01489,202.41699 62.34399,193.55566 71.01001,189.9209 C 85.74829,189.9209 132.80981,189.9209 132.80981,189.9209 C 135.24731,189.9209 137.30395,189.36231 139.02661,188.45215 C 140.01977,187.92676 140.90259,187.28418 141.68384,186.56348 C 156.01099,190.55567 163.07251,186.43848 163.67798,185.55567 C 164.4397,184.44434 149.97583,186.59083 145.63892,180.64551 C 146.27173,179.05957 146.63697,177.52442 146.78736,176.28223 L 146.82056,176.00879 L 146.80298,175.7334 C 146.7522,174.9209 142.4729,106.33887 141.177,77.983398 C 140.94555,72.918948 141.05981,69.122068 140.80884,67.254878 C 138.82642,52.475578 140.97876,46.935538 163.13892,49.163078 C 162.44361,47.840808 164.0647,45.548818 163.23755,44.553698 C 162.35767,43.495108 144.32642,43.308578 133.36939,50.590808 C 131.08814,48.694328 129.11939,47.879868 128.92408,47.801748 L 128.38697,47.586908 L 119.25806,47.586908 L 119.25806,47.586918 z M 61.80884,53.586918 C 61.80884,53.586918 125.82837,53.586918 127.13989,53.586918 C 128.87524,54.482428 134.80884,58.204108 134.80884,67.254888 C 134.80884,79.661138 140.37622,169.07325 140.79517,175.77833 C 140.58228,177.167 139.22583,183.92091 132.80982,183.92091 L 66.27954,183.92091 L 66.07934,183.94825 C 64.09496,184.20802 59.39672,184.24317 57.53539,182.68458 C 57.0559,182.28224 56.83812,181.81349 56.80687,181.11817 C 56.80687,181.11817 51.51781,64.778328 51.48851,64.117188 C 51.80103,62.471678 53.85767,53.586918 61.80884,53.586918 z"
   id="path47"
   style="fill:#072c3d" />
<path
   d="M 58.29614,179.28223 C 58.29614,179.28223 85.92895,146.00684 88.97583,138.25489 C 93.01978,127.96387 83.30884,120.25294 83.30884,120.25294 C 79.97583,116.92091 61.04712,117.48927 56.75806,121.19825 L 56.56861,116.84669 C 56.56861,116.84669 68.97584,113.58692 81.14869,112.21485 C 82.88502,112.01856 85.10182,109.74903 85.64283,105.63965 C 86.91529,95.981448 60.57642,56.320308 60.57642,56.320308 C 61.72388,56.636718 63.94068,56.048828 65.00122,56.920898 C 70.80298,61.691408 91.30884,102.9209 91.30884,102.9209 C 95.68091,98.547848 100.97583,101.25391 100.97583,101.25391 C 104.04419,95.386718 122.28833,55.071288 122.28833,55.071288 C 122.28833,55.071288 125.91431,56.891598 126.30884,55.920898 C 126.70337,54.950198 103.90357,97.180668 109.64282,102.9209 C 113.20434,106.48145 119.92798,116.81934 119.92798,116.81934 C 122.61743,123.06934 122.80884,126.4209 120.80884,134.08692 C 120.80884,134.08692 118.79614,138.76661 135.71802,140.67286 C 135.71802,140.67286 136.45435,141.40919 135.85865,143.25489 C 135.85865,143.25489 118.66822,141.04981 115.64283,145.58497 C 112.38599,150.46974 116.40455,155.8252 137.14478,178.58692 L 134.74048,181.01856 C 134.74048,181.01856 108.67114,155.917 106.66528,153.7295 C 106.66528,153.7295 98.26684,142.22364 89.64282,145.92091 C 89.64282,145.92091 69.13696,172.19825 60.80591,182.01661 C 59.55298,181.3584 58.74145,180.43067 58.29614,179.28223 z"
   id="path49"
   style="fill:#e4f792;stroke:#006b33;stroke-width:0.95762002" />
<path
   d="M 97.87036,127.67871 C 105.70923,122.11426 93.59009,114.49707 90.54321,121.69238 C 88.55591,126.3877 93.74634,130.60645 97.87036,127.67871 z"
   id="path51"
   style="fill:#ccff00;stroke:#072c3d;stroke-width:0.95762002" />
<path
   d="M 92.43384,107.50684 C 91.95825,110.96192 95.64868,115.14747 97.4563,117.73731 C 102.30298,124.68067 102.54614,129.35059 99.79224,136.88575 C 98.67505,139.94239 96.60572,143.36427 100.64869,145.48536 C 110.07935,150.42872 116.40748,135.86817 117.3401,129.05958 C 118.46998,120.81153 115.03541,111.56935 107.97291,106.8877 C 104.96998,104.89844 97.14088,101.9209 93.85963,104.90235 C 92.99731,105.68652 92.56177,106.56934 92.43384,107.50684 z"
   id="path53"
   style="fill:#00a0c6;stroke:#072c3d;stroke-width:0.95762002" />
<ellipse
   cx="99.373291"
   cy="113.07422"
   rx="2.25"
   ry="2"
   transform="translate(-6.06543,-1.4882819)"
   id="ellipse55"
   style="fill:#ffffff;stroke:#000000" />
<ellipse
   cx="92.707283"
   cy="116.40723"
   rx="1.75"
   ry="2.25"
   transform="translate(-6.06543,-1.4882819)"
   id="ellipse57"
   style="fill:#ffffff;stroke:#000000" />
<circle
   cx="104.87427"
   cy="133.90723"
   r="2.25"
   transform="translate(-6.06543,-1.4882819)"
   id="circle59"
   style="fill:#ffffff;stroke:#000000" />
<ellipse
   cx="96.608643"
   cy="123.18066"
   rx="2"
   ry="2.125"
   transform="translate(-6.06543,-1.4882819)"
   id="ellipse61"
   style="fill:#ffffff;stroke:#000000" />
<path
   d="M 105.052,92.297848 C 105.052,92.297848 71.45141,109.99512 38.10376,92.389648 L 35.56958,99.302738 L 21.13892,80.967768 L 43.48755,80.026358 L 40.59302,86.297838 C 40.59302,86.297838 75.85181,98.313468 96.92212,78.255848 L 105.052,92.297848 z"
   id="path63"
   style="fill:#00ff00;stroke:#000000" />
<path
   d="M 99.71899,164.77832 C 99.71899,164.77832 63.39575,175.86621 33.93774,152.32129 L 30.15258,158.6377 L 19.41528,137.92286 L 41.54321,141.18653 L 37.52466,146.80372 C 37.52466,146.80372 69.90747,165.21388 94.36353,149.45997 L 99.71899,164.77832 z"
   id="path65"
   style="fill:#00ff00;stroke:#000000" />
<path
   d="M 9.73853,108.48047 L 9.73853,113.99219 L 15.05982,113.99219 L 15.05982,108.48047 L 18.2815,108.48047 L 18.2815,122.76953 L 15.05982,122.76953 L 15.05982,116.8125 L 9.73853,116.8125 L 9.73853,122.76953 L 6.51587,122.76953 L 6.51587,108.48047 L 9.73853,108.48047 z"
   id="path69" /><path
   d="M 31.44653,123.00293 C 27.22778,123.00293 24.7268,119.80176 24.7268,115.73145 C 24.7268,111.44825 27.48266,108.24707 31.67993,108.24707 C 36.0686,108.24707 38.46411,111.5332 38.46411,115.47656 C 38.46411,120.18261 35.6438,123.00293 31.46802,123.00293 L 31.44653,123.00293 z M 31.59497,120.4375 C 33.77856,120.4375 35.02954,118.38086 35.02954,115.58301 C 35.02954,113.01758 33.82056,110.8125 31.59497,110.8125 C 29.36938,110.8125 28.11841,112.97461 28.11841,115.64648 C 28.11841,118.33886 29.41138,120.4375 31.57349,120.4375 L 31.59497,120.4375 z"
   id="path71" />
<path
   d="M 18.65649,127.17774 L 18.65649,126.0918 L 19.63696,125.20606 C 21.32446,123.69532 22.13891,122.83399 22.15063,121.93653 C 22.15063,121.31153 21.78442,120.81544 20.89965,120.81544 C 20.23852,120.81544 19.66039,121.14649 19.25902,121.44142 L 18.75121,120.16603 C 19.31762,119.72951 20.2268,119.37599 21.25316,119.37599 C 23.00023,119.37599 23.94457,120.39064 23.94457,121.78322 C 23.94457,123.07033 23.02367,124.0967 21.90258,125.08791 L 21.19457,125.67873 L 21.19457,125.70217 L 24.09789,125.70217 L 24.09789,127.17776 L 18.65649,127.17776 L 18.65649,127.17774 z"
   id="path75" />


<g
   transform="matrix(1.0055976,0,0,0.9799043,-6.373297,-1.0966504)"
   id="g109">
	
	
	
	
	
	
	
	
<text
   x="52.269028"
   y="15.513671"
   id="text2633"
   xml:space="preserve"
   style="font-size:14px;font-style:normal;font-variant:normal;font-weight:normal;font-stretch:normal;text-align:start;line-height:100%;writing-mode:lr-tb;text-anchor:start;fill:#000000;fill-opacity:1;stroke:none;stroke-width:1px;stroke-linecap:butt;stroke-linejoin:miter;stroke-opacity:1;font-family:Arial;-inkscape-font-specification:Arial"><tspan
     x="52.269028"
     y="15.513671"
     id="tspan2635"
     style="font-size:20px">Hipert칩nico</tspan></text>
<text
   x="262.00537"
   y="15.776101"
   id="text2637"
   xml:space="preserve"
   style="font-size:14px;font-style:normal;font-variant:normal;font-weight:normal;font-stretch:normal;text-align:start;line-height:100%;writing-mode:lr-tb;text-anchor:start;fill:#000000;fill-opacity:1;stroke:none;stroke-width:1px;stroke-linecap:butt;stroke-linejoin:miter;stroke-opacity:1;font-family:Arial;-inkscape-font-specification:Arial"><tspan
     x="262.00537"
     y="15.776101"
     id="tspan2639"
     style="font-size:20px">Isot칩nico</tspan></text>
<text
   x="458.39868"
   y="15.513671"
   id="text2641"
   xml:space="preserve"
   style="font-size:14px;font-style:normal;font-variant:normal;font-weight:normal;font-stretch:normal;text-align:start;line-height:100%;writing-mode:lr-tb;text-anchor:start;fill:#000000;fill-opacity:1;stroke:none;stroke-width:1px;stroke-linecap:butt;stroke-linejoin:miter;stroke-opacity:1;font-family:Arial;-inkscape-font-specification:Arial"><tspan
     x="458.39868"
     y="15.513671"
     id="tspan2643"
     style="font-size:20px">Hipot칩nico</tspan></text>
</g>


<path
   d="M 530.1106,43.566408 C 530.1106,43.566408 506.53833,40.221678 491.53833,40.221678 C 476.53833,40.221678 453.03247,46.369138 450.44458,50.011718 C 449.53149,51.298828 432.8645,41.984378 423.19653,43.320308 L 420.26684,47.675778 C 419.99926,48.599608 437.51684,45.740228 446.69555,56.320308 L 446.6516,59.529288 L 444.49926,62.990228 C 436.03735,101.72265 451.99926,177.15625 451.99926,177.15625 C 452.10668,179.5332 453.10375,181.57422 454.8811,183.05859 C 456.75122,184.61914 459.24926,185.34375 461.57153,185.65429 C 462.88403,185.82812 452.74243,197.26952 453.79614,197.2539 C 455.03735,197.23437 457.70434,198.23437 458.1477,198.18163 C 458.20141,198.18163 463.53051,189.3203 472.19653,185.68554 C 486.93481,185.68554 533.99633,185.68554 533.99633,185.68554 C 536.43383,185.68554 538.49047,185.12695 540.21313,184.21679 C 541.20629,183.6914 542.08911,183.04882 542.87036,182.32812 C 557.19751,186.32031 564.25903,182.20312 564.8645,181.32031 C 565.62622,180.20898 551.16235,182.35547 546.82544,176.41015 C 547.45825,174.82421 548.00708,171.77343 548.00708,171.77343 L 547.9895,171.49804 C 547.93872,170.68554 560.49927,106.68359 541.99536,63.019518 C 540.01294,48.240218 542.16528,42.701158 564.32544,44.927718 C 563.63013,43.605448 565.25122,41.314438 564.42407,40.318338 C 563.54419,39.259748 545.51294,39.074198 534.55591,46.355448 C 532.27466,44.458988 530.30591,43.644528 530.1106,43.566408 L 529.57349,43.351568 L 530.1106,43.566408 z M 462.99536,49.351558 C 497.66821,41.851558 527.01489,49.351558 528.32641,49.351558 C 530.06176,50.248038 533.59399,56.617188 535.99536,63.019528 C 556.49927,117.68359 541.56274,164.83789 541.98169,171.54297 C 541.7688,172.93164 540.41235,179.68555 533.99634,179.68555 L 467.46607,179.68555 L 467.26587,179.71289 C 465.28149,179.97266 460.58325,180.00781 458.72192,178.44922 C 458.24243,178.04688 458.02465,177.57813 457.9934,176.88281 C 457.9934,176.88281 441.2434,107.75781 452.67504,59.882808 C 454.13403,54.946288 462.99536,49.351558 462.99536,49.351558 z"
   id="path169"
   style="fill:#072c3d" />
<path
   d="M 464.49145,52.339848 C 496.73364,45.417968 525.552,52.339848 526.802,52.339848 C 528.45923,53.201178 530.74048,57.460938 534.11841,65.480478 C 551.53638,106.82423 539.42798,163.37501 539.82642,169.82228 C 539.62427,171.15822 538.3313,177.65041 532.21119,177.65041 L 468.75514,177.65041 L 468.56373,177.67775 C 466.67115,177.9258 462.18873,177.96095 460.41529,176.46291 C 459.95826,176.07619 459.75025,175.62502 459.719,174.95705 C 459.719,174.95705 443.53541,107.06057 454.64673,62.464858 C 454.64673,62.464848 457.63989,52.339848 464.49145,52.339848 z"
   id="path171"
   style="fill:#e4f792;stroke:#006b33;stroke-width:0.95762002" />
<path
   d="M 470.34497,108.11524 C 478.18384,102.55079 466.0647,94.933598 463.01782,102.12891 C 461.03052,106.82422 466.22095,111.04297 470.34497,108.11524 z"
   id="path173"
   style="fill:#ccff00;stroke:#072c3d;stroke-width:0.95762002" />
<path
   d="M 477.07935,145.02246 C 478.76294,149.02539 481.53248,152.56152 485.89673,155.38379 C 501.02857,165.17188 519.33911,166.32813 533.02173,153.08008 C 544.41333,142.05078 539.36157,115.11524 538.51099,100.19336 C 537.35767,79.958978 522.11451,54.169918 497.70435,60.416988 C 478.38794,65.360348 477.70435,82.312498 477.70435,99.414058 C 477.70435,113.83008 471.57056,131.92285 477.07935,145.02246 z"
   id="path175"
   style="fill:#00a0c6;stroke:#072c3d;stroke-width:0.95762002" />
<ellipse
   cx="469.84009"
   cy="58.395512"
   rx="2.25"
   ry="2"
   transform="translate(-6.06543,-1.4882819)"
   id="ellipse177"
   style="fill:#ffffff;stroke:#000000" />
<ellipse
   cx="535.1604"
   cy="64.266602"
   rx="1.75"
   ry="2.25"
   transform="translate(-6.06543,-1.4882819)"
   id="ellipse179"
   style="fill:#ffffff;stroke:#000000" />
<circle
   cx="486.76978"
   cy="161.87695"
   r="2.25"
   transform="translate(-6.06543,-1.4882819)"
   id="circle181"
   style="fill:#ffffff;stroke:#000000" />
<ellipse
   cx="533.58423"
   cy="166.02344"
   rx="2"
   ry="2.125"
   transform="translate(-6.06543,-1.4882819)"
   id="ellipse183"
   style="fill:#ffffff;stroke:#000000" />
<path
   d="M 401.71313,148.30664 C 401.71313,148.30664 429.55395,122.47851 466.33325,130.80469 L 466.98266,123.47071 L 485.68481,137.41993 L 464.35083,144.14259 L 465.51489,137.334 C 465.51489,137.334 428.34399,134.90236 413.21606,159.75002 L 401.71313,148.30664 z"
   id="path185"
   style="fill:#ffff00;stroke:#000000" />
<path
   d="M 385.5813,109.74512 L 385.5813,115.25684 L 390.90259,115.25684 L 390.90259,109.74512 L 394.12427,109.74512 L 394.12427,124.03418 L 390.90259,124.03418 L 390.90259,118.07715 L 385.5813,118.07715 L 385.5813,124.03418 L 382.35864,124.03418 L 382.35864,109.74512 L 385.5813,109.74512 z"
   id="path189" /><path
   d="M 407.28931,124.26758 C 403.07056,124.26758 400.56958,121.06641 400.56958,116.9961 C 400.56958,112.7129 403.32544,109.51172 407.52271,109.51172 C 411.91138,109.51172 414.30689,112.79785 414.30689,116.74121 C 414.30689,121.44726 411.48658,124.26758 407.3108,124.26758 L 407.28931,124.26758 z M 407.43774,121.70215 C 409.62133,121.70215 410.87231,119.64551 410.87231,116.84766 C 410.87231,114.28223 409.66333,112.07715 407.43774,112.07715 C 405.21215,112.07715 403.96118,114.23926 403.96118,116.91113 C 403.96118,119.60351 405.25415,121.70215 407.41626,121.70215 L 407.43774,121.70215 z"
   id="path191" />
<path
   d="M 394.49927,127.44238 L 394.49927,126.35644 L 395.47974,125.4707 C 397.16724,123.95996 397.98169,123.09863 397.99341,122.20117 C 397.99341,121.57617 397.6272,121.08008 396.74243,121.08008 C 396.0813,121.08008 395.50317,121.41113 395.1018,121.70606 L 394.59399,120.43067 C 395.1604,119.99415 396.06958,119.64063 397.09594,119.64063 C 398.84301,119.64063 399.78735,120.65528 399.78735,122.04786 C 399.78735,123.33497 398.86645,124.36134 397.74536,125.35255 L 397.03735,125.94337 L 397.03735,125.96681 L 399.94067,125.96681 L 399.94067,127.4424 L 394.49927,127.4424 L 394.49927,127.44238 z"
   id="path195" />
<path
   d="M 496.20532,104.59473 L 496.20532,109.63184 L 501.0686,109.63184 L 501.0686,104.59473 L 504.01294,104.59473 L 504.01294,117.65235 L 501.0686,117.65235 L 501.0686,112.20801 L 496.20532,112.20801 L 496.20532,117.65235 L 493.26098,117.65235 L 493.26098,104.59473 L 496.20532,104.59473 z"
   id="path199" /><path
   d="M 516.04419,117.86524 C 512.18872,117.86524 509.90259,114.94044 509.90259,111.22071 C 509.90259,107.30665 512.42114,104.38087 516.25708,104.38087 C 520.26782,104.38087 522.4563,107.3838 522.4563,110.98829 C 522.4563,115.28907 519.88013,117.86524 516.06372,117.86524 L 516.04419,117.86524 z M 516.17993,115.52149 C 518.17505,115.52149 519.3186,113.64161 519.3186,111.08497 C 519.3186,108.74024 518.21411,106.72559 516.17993,106.72559 C 514.14575,106.72559 513.0022,108.70118 513.0022,111.14258 C 513.0022,113.60352 514.18384,115.52149 516.1604,115.52149 L 516.17993,115.52149 z"
   id="path201" />
<path
   d="M 504.35571,121.05957 L 504.35571,120.06738 L 505.25122,119.25879 C 506.79321,117.87793 507.53833,117.09082 507.54907,116.27051 C 507.54907,115.69922 507.21411,115.2461 506.40552,115.2461 C 505.80103,115.2461 505.27271,115.54786 504.90552,115.81739 L 504.44263,114.65235 C 504.96021,114.25391 505.79029,113.92969 506.72876,113.92969 C 508.32544,113.92969 509.18774,114.85742 509.18774,116.13086 C 509.18774,117.30664 508.34692,118.24414 507.32251,119.15039 L 506.67505,119.69043 L 506.67505,119.71191 L 509.32837,119.71191 L 509.32837,121.05957 L 504.35571,121.05957 L 504.35571,121.05957 z"
   id="path205" />
<path
   d="M 401.78345,77.292968 C 401.78345,77.292968 433.97193,57.138668 468.54029,72.210938 L 470.55201,65.126958 L 486.30787,82.335938 L 464.09303,84.941408 L 466.51198,78.470708 C 466.51198,78.470708 430.45534,69.117188 410.93874,90.689458 L 401.78345,77.292968 z"
   id="path207"
   style="fill:#ffff00;stroke:#000000" />

<line
   x1="515.52563"
   y1="137.23633"
   x2="576.22681"
   y2="72.535156"
   id="line225"
   style="fill:none;stroke:#000000" />

<text
   x="552.83307"
   y="66.924347"
   id="text2701"
   xml:space="preserve"
   style="font-size:14px;font-style:normal;font-variant:normal;font-weight:normal;font-stretch:normal;text-align:start;line-height:100%;writing-mode:lr-tb;text-anchor:start;fill:#00a8c8;fill-opacity:1;stroke:none;stroke-width:1px;stroke-linecap:butt;stroke-linejoin:miter;stroke-opacity:1;font-family:Arial;-inkscape-font-specification:Arial"><tspan
     x="552.83307"
     y="66.924347"
     id="tspan2703">Vacuola</tspan></text>
<text
   x="260.61496"
   y="232.55769"
   id="text3475"
   xml:space="preserve"
   style="font-size:14px;font-style:normal;font-variant:normal;font-weight:normal;font-stretch:normal;text-align:start;line-height:100%;writing-mode:lr-tb;text-anchor:start;fill:#000000;fill-opacity:1;stroke:none;stroke-width:1px;stroke-linecap:butt;stroke-linejoin:miter;stroke-opacity:1;font-family:Arial;-inkscape-font-specification:Arial"><tspan
     x="260.61496"
     y="232.55769"
     id="tspan3477"
     style="font-size:20px">Fl치cida</tspan></text>
<text
   x="459.242"
   y="233.21175"
   id="text3479"
   xml:space="preserve"
   style="font-size:14px;font-style:normal;font-variant:normal;font-weight:normal;font-stretch:normal;text-align:start;line-height:100%;writing-mode:lr-tb;text-anchor:start;fill:#000000;fill-opacity:1;stroke:none;stroke-width:1px;stroke-linecap:butt;stroke-linejoin:miter;stroke-opacity:1;font-family:Arial;-inkscape-font-specification:Arial"><tspan
     x="459.242"
     y="233.21175"
     id="tspan3481"
     style="font-size:20px">Turgente</tspan></text>
<text
   x="38.113754"
   y="232.55772"
   id="text3483"
   xml:space="preserve"
   style="font-size:14px;font-style:normal;font-variant:normal;font-weight:normal;font-stretch:normal;text-align:start;line-height:100%;writing-mode:lr-tb;text-anchor:start;fill:#000000;fill-opacity:1;stroke:none;stroke-width:1px;stroke-linecap:butt;stroke-linejoin:miter;stroke-opacity:1;font-family:Arial;-inkscape-font-specification:Arial"><tspan
     x="38.113754"
     y="232.55772"
     id="tspan3485"
     style="font-size:20px">Plasmolizada</tspan></text>
</svg>